<?xml version="1.0" encoding="utf-8"?>
<!-- Generator: Adobe Illustrator 24.0.2, SVG Export Plug-In . SVG Version: 6.00 Build 0)  -->
<svg version="1.1" id="Composant_20_1" xmlns="http://www.w3.org/2000/svg" xmlns:xlink="http://www.w3.org/1999/xlink" x="0px"
	 y="0px" viewBox="0 0 67.7 67.8" style="enable-background:new 0 0 67.7 67.8;" xml:space="preserve">
<style type="text/css">
	.st0{fill:#35D9C0;}
	.st1{fill:#FFFFFF;}
</style>
<path id="Tracé_137" class="st0" d="M67,48.5c3.6,11.8-6.6,22-18.4,18.4l-36-10.6c-12-3.6-16.7-18.6-8.5-26.9L29.4,4.2
	c8.3-8.3,23.3-3.6,26.9,8.5L67,48.5z"/>
<g id="CIJMs0_1_">
</g>
<g>
	<path class="st1" d="M37.7,30.7c-0.8,0.1-1.3,0.4-1.7,1.1c-0.6,1.2-1.3,2.4-1.9,3.6c-0.4,0.8-0.8,1.6-1.3,2.4
		c-0.1-0.2-0.1-0.3-0.2-0.4c-1-2-2.1-4-3.1-6c-0.3-0.6-1.4-1-2-0.7c-0.8,0.4-1.1,1-1.1,1.8c0,3.5,0,6.9,0,10.4c0,0.1,0,0.2,0,0.4
		c0.4,0,0.7,0,1.1,0c1,0,1.4-0.4,1.4-1.4c0-2.2,0-4.3,0-6.5c0-0.1,0-0.2,0-0.3c0.1,0.1,0.2,0.2,0.3,0.4c0.8,1.6,1.7,3.2,2.5,4.8
		c0.3,0.7,0.7,1,1.4,0.9c0.3,0,0.4-0.1,0.6-0.4c0.9-1.8,1.9-3.6,2.8-5.4c0-0.1,0.1-0.2,0.2-0.3c0.1,0.1,0.1,0.3,0.1,0.4
		c0,2.1,0,4.3,0,6.4c0,0.7,0.4,1.3,1,1.4c0.5,0.1,1,0,1.5,0c0-0.1,0-0.1,0-0.2c0-3.7,0-7.3,0-11c0-0.1,0-0.2,0-0.4
		C39.2,31.1,38.5,30.6,37.7,30.7z"/>
	<path class="st1" d="M18.5,30.7c-1,0-2,0-2.9,0c-1.2,0-1.9,0.7-1.9,2c0,3.5,0,6.9,0,10.4c0,0.1,0,0.2,0,0.4c0.1,0,0.2,0,0.2,0
		c1.6,0,3.2,0,4.8,0c1.7-0.1,3.3-0.7,4.4-2c1.1-1.3,1.4-2.8,1.4-4.4c0-1.4-0.3-2.7-1.1-3.9C22.2,31.4,20.5,30.8,18.5,30.7z M22,37.9
		c-0.3,1.3-0.8,2.4-2.2,3c-0.5,0.2-0.9,0.3-1.4,0.3c-0.7,0-1.5,0-2.2,0c0-0.2,0-0.3,0-0.4c0-2.4,0-4.8,0-7.3c0-0.6,0.1-0.7,0.7-0.7
		c0.6,0,1.3,0,1.9,0c1.8,0.2,3,1.3,3.2,3.1C22,36.6,22.1,37.3,22,37.9z"/>
	<path class="st1" d="M48.8,35.3C48.7,36.4,48.1,37,47,37c-0.4,0-0.9,0-1.3,0c-0.4,0-0.8,0-1.2,0c0-0.3,0-0.6,0-0.9c0-1,0-1.9,0-2.9
		c0-0.3,0.2-0.3,0.4-0.3c0.6,0,1.2,0,1.8,0c0.3,0,0.6,0,0.8,0c0-0.8,0-1.5,0-2.2c-0.1,0-0.2,0-0.3,0c-1,0-2,0-2.9,0
		c-1.3,0.1-2.3,0.8-2.3,2.2c0,3.4,0,6.7,0,10.1c0,0.1,0,0.2,0,0.4c0.4,0,0.8,0,1.2,0c0.8,0.1,1.3-0.4,1.3-1.3c0-0.9,0-1.7,0-2.6
		c0-0.1,0-0.2,0-0.4c0.9,0,1.8,0,2.7,0c2.1,0.1,3.8-1.4,4.1-3.5c0.1-0.3,0-0.6,0.1-1c-0.9,0-1.7,0-2.5,0
		C48.9,34.9,48.9,35.1,48.8,35.3z"/>
	<path class="st1" d="M51.3,31.9c0.5-0.5,1-1,1.4-1.5c0.5-0.5,1-1,1.5-1.5c0.2-0.2,0.3-0.5,0.1-0.9c-0.1-0.3-0.4-0.4-0.8-0.4
		c-0.1,0.1-0.3,0.1-0.5,0.3c-0.9,1-1.9,2-2.8,2.9c-0.3,0.3-0.3,0.8-0.1,1.1C50.5,32.2,50.9,32.2,51.3,31.9z"/>
	<path class="st1" d="M48.9,31.4c0.4,0,0.7-0.4,0.7-0.8c0-0.7,0-1.3,0-2c0-0.7,0-1.4,0-2.1c0-0.5-0.3-0.8-0.7-0.8
		c-0.4,0-0.8,0.3-0.8,0.8c0,1.4,0,2.7,0,4.1C48.1,31.1,48.4,31.4,48.9,31.4z"/>
	<path class="st1" d="M56.2,33.5c0-0.2,0-0.3,0-0.5c-0.1-0.3-0.4-0.5-0.7-0.5c-1.4,0-2.8,0-4.3,0c-0.4,0-0.7,0.3-0.7,0.7
		c0,0.4,0.3,0.7,0.7,0.7c1.4,0,2.9,0,4.3,0c0.3,0,0.5-0.1,0.6-0.4c0,0,0,0,0,0C56.1,33.6,56.1,33.5,56.2,33.5z"/>
</g>
</svg>
