<svg id="Composant_14_7" data-name="Composant 14 – 7" xmlns="http://www.w3.org/2000/svg" width="38" height="38" viewBox="0 0 38 38">
  <rect id="Rectangle_65" data-name="Rectangle 65" width="38" height="38" rx="11" fill="#7613e0"/>
  <g id="Groupe_188" data-name="Groupe 188" transform="translate(6.758 10.385)">
    <path id="Tracé_54" data-name="Tracé 54" d="M6.6,24v3.33H5.993a.4.4,0,0,1-.341-.189L4.328,24.568a.442.442,0,0,1,0-.378A.525.525,0,0,1,4.707,24Z" transform="translate(-2.644 -14.919)" fill="#fff"/>
    <path id="Tracé_55" data-name="Tracé 55" d="M3.9,13.2v3.33H2.012a.393.393,0,0,1-.3-.151l-1.7-2.573a.344.344,0,0,1,0-.378.4.4,0,0,1,.341-.189L3.9,13.2Z" transform="translate(0.05 -8.205)" fill="#fff"/>
    <path id="Tracé_56" data-name="Tracé 56" d="M55.832,24.568l-1.324,2.573a.4.4,0,0,1-.341.189H53.6V24h1.93a.452.452,0,0,1,.341.189A1.287,1.287,0,0,0,55.832,24.568Z" transform="translate(-33.3 -14.919)" fill="#fff"/>
    <path id="Tracé_57" data-name="Tracé 57" d="M57.4,13.705l-1.7,2.573a.344.344,0,0,1-.3.151H53.5V13.1h3.595a.4.4,0,0,1,.341.189A.521.521,0,0,1,57.4,13.705Z" transform="translate(-33.238 -8.143)" fill="#fff"/>
    <path id="Tracé_58" data-name="Tracé 58" d="M43.4.5V3.338h2.838Z" transform="translate(-26.959 -0.311)" fill="#fff"/>
    <path id="Tracé_59" data-name="Tracé 59" d="M23.752,3.784a.357.357,0,0,1-.378-.378V0H12.778A.357.357,0,0,0,12.4.378V16.989a.357.357,0,0,0,.378.378h14a.379.379,0,0,0,.378-.378V3.784Zm-9.346-.378a.357.357,0,0,1,.378-.378H21.1a.357.357,0,0,1,.378.378.357.357,0,0,1-.378.378H14.784A.407.407,0,0,1,14.405,3.405Zm10.141,11.73h-9.5a.378.378,0,0,1,0-.757h9.535a.357.357,0,0,1,.378.378A.413.413,0,0,1,24.546,15.135Zm0-2.838h-9.5a.378.378,0,1,1,0-.757h9.535a.357.357,0,0,1,.378.378A.441.441,0,0,1,24.546,12.3Zm0-2.838h-9.5a.378.378,0,1,1,0-.757h9.535a.357.357,0,0,1,.378.378A.413.413,0,0,1,24.546,9.46Zm0-2.838h-9.5a.378.378,0,0,1,0-.757h9.535a.357.357,0,0,1,.378.378A.413.413,0,0,1,24.546,6.622Z" transform="translate(-7.689)" fill="#fff"/>
  </g>
</svg>
