<?xml version="1.0" encoding="utf-8"?>
<!-- Generator: Adobe Illustrator 25.1.0, SVG Export Plug-In . SVG Version: 6.00 Build 0)  -->
<svg version="1.1" id="Composant_15_5" xmlns="http://www.w3.org/2000/svg" xmlns:xlink="http://www.w3.org/1999/xlink" x="0px"
	 y="0px" viewBox="0 0 38 38" style="enable-background:new 0 0 38 38;" xml:space="preserve">
<style type="text/css">
	.st0{fill:#C6E66D;}
	.st1{enable-background:new    ;}
	.st2{fill:#FFFFFF;}
	.st3{opacity:0.5;fill:#FFFFFF;enable-background:new    ;}
	.st4{opacity:0.8;fill:#FFFFFF;enable-background:new    ;}
</style>
<g>
	<path id="Tracé_482" class="st0" d="M11,0H27c6.1,0,11,4.9,11,11l0,0V27c0,6.1-4.9,11-11,11H11C4.9,38,0,33.1,0,27V11
		C0,4.9,4.9,0,11,0z"/>
	<g class="st1">
		<path class="st2" d="M11.3,8.2C11.5,8,11.7,7.9,12,7.8c0.3-0.1,0.5-0.1,0.8-0.1c0.2,0,0.4,0,0.6,0.1s0.3,0.2,0.4,0.3
			c0.1,0.1,0.2,0.3,0.3,0.4c0.1,0.2,0.1,0.4,0.1,0.6v2.3h-0.4c-0.1,0-0.2,0-0.2,0c0,0-0.1-0.1-0.1-0.2l-0.1-0.2
			c-0.1,0.1-0.2,0.2-0.3,0.2c-0.1,0.1-0.2,0.1-0.3,0.2c-0.1,0-0.2,0.1-0.3,0.1c-0.1,0-0.2,0-0.4,0c-0.2,0-0.3,0-0.4-0.1
			c-0.1,0-0.2-0.1-0.3-0.2c-0.1-0.1-0.2-0.2-0.2-0.3s-0.1-0.3-0.1-0.4c0-0.1,0-0.3,0.1-0.4c0.1-0.1,0.2-0.3,0.4-0.4
			c0.2-0.1,0.4-0.2,0.7-0.3c0.3-0.1,0.6-0.1,1-0.1V9.1c0-0.2,0-0.4-0.1-0.5c-0.1-0.1-0.2-0.2-0.4-0.2c-0.1,0-0.2,0-0.3,0
			s-0.2,0.1-0.2,0.1S12,8.6,12,8.7c-0.1,0-0.1,0-0.2,0c-0.1,0-0.1,0-0.2-0.1s-0.1-0.1-0.1-0.1L11.3,8.2z M13.3,9.8
			c-0.2,0-0.4,0-0.6,0.1c-0.2,0-0.3,0.1-0.4,0.1c-0.1,0-0.2,0.1-0.2,0.2c0,0.1-0.1,0.1-0.1,0.2c0,0.1,0,0.2,0.1,0.3
			c0.1,0.1,0.2,0.1,0.3,0.1c0.2,0,0.3,0,0.4-0.1c0.1-0.1,0.2-0.1,0.4-0.3V9.8z"/>
		<path class="st2" d="M15.9,8.2C16,8.1,16,8,16.1,8c0.1-0.1,0.2-0.1,0.3-0.2c0.1,0,0.2-0.1,0.3-0.1c0.1,0,0.2,0,0.4,0
			c0.2,0,0.4,0,0.5,0.1C17.8,7.9,17.9,8,18,8.1c0.1,0.2,0.2,0.4,0.3,0.6s0.1,0.5,0.1,0.8c0,0.3,0,0.5-0.1,0.8
			c-0.1,0.2-0.2,0.4-0.3,0.6c-0.1,0.2-0.3,0.3-0.5,0.4c-0.2,0.1-0.4,0.1-0.6,0.1c-0.2,0-0.4,0-0.5-0.1s-0.3-0.1-0.4-0.2v1.4h-1V7.7
			h0.6c0.1,0,0.2,0.1,0.2,0.2L15.9,8.2z M16,10.4c0.1,0.1,0.2,0.2,0.3,0.2c0.1,0,0.2,0.1,0.3,0.1c0.1,0,0.2,0,0.3-0.1
			c0.1,0,0.2-0.1,0.2-0.2s0.1-0.2,0.2-0.4c0-0.1,0.1-0.3,0.1-0.5c0-0.2,0-0.4,0-0.5s-0.1-0.3-0.1-0.3c-0.1-0.1-0.1-0.1-0.2-0.2
			c-0.1,0-0.2-0.1-0.3-0.1c-0.2,0-0.3,0-0.4,0.1c-0.1,0.1-0.2,0.2-0.3,0.3V10.4z"/>
		<path class="st2" d="M22.6,10.1c0.1,0,0.1,0,0.1,0.1l0.4,0.4c-0.2,0.3-0.5,0.5-0.8,0.6c-0.3,0.1-0.7,0.2-1.1,0.2
			c-0.4,0-0.7-0.1-1-0.2c-0.3-0.1-0.6-0.3-0.8-0.5c-0.2-0.2-0.4-0.5-0.5-0.8s-0.2-0.7-0.2-1c0-0.3,0-0.5,0.1-0.7
			c0.1-0.2,0.1-0.4,0.2-0.6c0.1-0.2,0.2-0.4,0.4-0.5c0.1-0.2,0.3-0.3,0.5-0.4c0.2-0.1,0.4-0.2,0.6-0.3c0.2-0.1,0.5-0.1,0.7-0.1
			c0.2,0,0.4,0,0.5,0c0.2,0,0.3,0.1,0.5,0.1s0.3,0.1,0.4,0.2c0.1,0.1,0.2,0.2,0.3,0.3l-0.4,0.5c0,0,0,0.1-0.1,0.1c0,0-0.1,0-0.1,0
			c-0.1,0-0.1,0-0.2-0.1s-0.1-0.1-0.2-0.1c-0.1,0-0.2-0.1-0.3-0.1c-0.1,0-0.3-0.1-0.5-0.1c-0.2,0-0.4,0-0.6,0.1
			c-0.2,0.1-0.3,0.2-0.5,0.3S20.1,7.9,20,8.1c-0.1,0.2-0.1,0.5-0.1,0.7c0,0.3,0,0.5,0.1,0.7c0.1,0.2,0.2,0.4,0.3,0.5
			c0.1,0.1,0.3,0.3,0.5,0.3c0.2,0.1,0.4,0.1,0.6,0.1c0.1,0,0.2,0,0.3,0s0.2,0,0.3-0.1s0.2-0.1,0.2-0.1c0.1,0,0.1-0.1,0.2-0.2
			C22.5,10.2,22.5,10.1,22.6,10.1C22.6,10.1,22.6,10.1,22.6,10.1z"/>
		<path class="st2" d="M28.3,6.2l-2.1,5.1h-1l-2.1-5.1H24c0.1,0,0.2,0,0.2,0.1c0.1,0,0.1,0.1,0.1,0.2l1.1,2.9c0,0.1,0.1,0.2,0.1,0.4
			c0,0.1,0.1,0.3,0.1,0.4c0-0.1,0.1-0.3,0.1-0.4c0-0.1,0.1-0.3,0.1-0.4l1.1-2.9c0-0.1,0.1-0.1,0.1-0.2c0.1,0,0.1-0.1,0.2-0.1H28.3z"
			/>
	</g>
	<g id="Groupe_279" transform="translate(43.168 42.92) rotate(-13)">
		<path id="Tracé_489" class="st2" d="M-10-28.4l-7-4c-0.5-0.3-1.1-0.1-1.4,0.4c0,0-7,11.3-7.9,13.7c-0.3,0.5-0.1,1.1,0.4,1.4l7,4
			c0.5,0.3,1.1,0.1,1.4-0.4L-9.6-27C-9.4-27.5-9.5-28.1-10-28.4z M-15-30.1l2,1.2c0.2,0.1,0.2,0.3,0.1,0.5c-0.1,0.2-0.3,0.2-0.5,0.1
			l-2-1.2c-0.2-0.1-0.2-0.3-0.1-0.5S-15.2-30.2-15-30.1z M-21.8-15.9c-0.4-0.2-0.5-0.8-0.3-1.2c0.2-0.4,0.8-0.5,1.2-0.3
			s0.5,0.8,0.3,1.2C-20.9-15.8-21.4-15.7-21.8-15.9C-21.8-15.9-21.8-15.9-21.8-15.9z M-17.2-16.5l-6.5-3.7l5.6-9.7l6.5,3.7
			L-17.2-16.5z"/>
	</g>
	<path class="st2" d="M12.5,21.4c-0.6,0.5-0.8,1.2-0.8,1.9c0.1,0.8,0.5,1.4,1.2,1.8l0.2-0.7c-0.4-0.3-0.7-0.8-0.6-1.3
		c0-0.5,0.2-0.9,0.6-1.2c0.3-0.2,0.6-0.4,1-0.4l0.2-0.7C13.6,20.8,13,20.9,12.5,21.4z"/>
	<path class="st3" d="M10.3,17.1c-3.4,2.1-4.4,6.5-2.3,9.8c0.8,1.3,2,2.3,3.4,2.8l0.2-0.7c-1.8-0.7-3.2-2.2-3.7-4.2
		C7,21.4,9,17.9,12.4,17c1-0.3,2.1-0.3,3.1,0l0.2-0.7C14,15.8,12,16,10.3,17.1z"/>
	<path class="st4" d="M12.1,18.8c-2.2,1-3.3,3.4-2.7,5.7c0.4,1.4,1.4,2.4,2.6,3l0.2-0.7c-1.1-0.5-2-1.6-2.2-2.9
		c-0.4-2.2,1.1-4.3,3.3-4.6c0.5-0.1,1,0,1.4,0l0.2-0.7C14.1,18.3,13.1,18.3,12.1,18.8z"/>
</g>
</svg>
