<?xml version="1.0" encoding="utf-8"?>
<!-- Generator: Adobe Illustrator 24.0.2, SVG Export Plug-In . SVG Version: 6.00 Build 0)  -->
<svg version="1.1" id="Composant_20_1" xmlns="http://www.w3.org/2000/svg" xmlns:xlink="http://www.w3.org/1999/xlink" x="0px"
	 y="0px" viewBox="0 0 67.7 67.8" style="enable-background:new 0 0 67.7 67.8;" xml:space="preserve">
<style type="text/css">
	.st0{fill:#FFFFFF;}
	.st1{fill:#DE5D80;}
</style>
<rect x="18" y="23.3" class="st0" width="35.8" height="30.8"/>
<path class="st1" d="M66.8,48.4L56.2,12.8C52.6,0.9,37.7-3.8,29.5,4.4l-25,25c-8.2,8.2-3.6,23.2,8.4,26.7l35.6,10.6
	C60.2,70.3,70.3,60.2,66.8,48.4z M49.8,29.4l-14.3,23c-0.4,0.7-1.4,0.9-2.1,0.5c-0.3-0.2-0.6-0.5-0.7-0.9l-2.4-9.5l7.8-8.6
	l-11.4,2.4l-7-6.8c-0.6-0.6-0.6-1.5,0-2.1c0.3-0.3,0.6-0.4,1-0.4l27-0.9c1.2,0,2.2,0.9,2.3,2.1C50.2,28.6,50,29,49.8,29.4z"/>
</svg>
