<?xml version="1.0" encoding="utf-8"?>
<!-- Generator: Adobe Illustrator 25.1.0, SVG Export Plug-In . SVG Version: 6.00 Build 0)  -->
<svg version="1.1" id="Composant_15_5" xmlns="http://www.w3.org/2000/svg" xmlns:xlink="http://www.w3.org/1999/xlink" x="0px"
	 y="0px" viewBox="0 0 38 38" style="enable-background:new 0 0 38 38;" xml:space="preserve">
<style type="text/css">
	.st0{fill:#FF7765;}
	.st1{enable-background:new    ;}
	.st2{fill:#FFFFFF;}
	.st3{fill:none;}
	.st4{opacity:0.5;fill:#FFFFFF;enable-background:new    ;}
	.st5{opacity:0.8;fill:#FFFFFF;enable-background:new    ;}
</style>
<path id="Tracé_135" class="st0" d="M11,0h16c6.1,0,11,4.9,11,11l0,0v16c0,6.1-4.9,11-11,11H11C4.9,38,0,33.1,0,27V11
	C0,4.9,4.9,0,11,0z"/>
<g class="st1">
	<path class="st2" d="M12.2,9.7c0,0.3,0.1,0.6,0.3,0.7c0.2,0.2,0.4,0.2,0.6,0.2c0.1,0,0.2,0,0.3,0s0.2-0.1,0.3-0.1
		c0.1,0,0.1-0.1,0.2-0.1c0.1,0,0.1,0,0.2,0c0.1,0,0.1,0,0.2,0.1l0.3,0.4c-0.1,0.1-0.2,0.2-0.3,0.3c-0.1,0.1-0.3,0.1-0.4,0.2
		c-0.1,0-0.3,0.1-0.4,0.1c-0.1,0-0.3,0-0.4,0c-0.3,0-0.5,0-0.7-0.1c-0.2-0.1-0.4-0.2-0.6-0.4c-0.2-0.2-0.3-0.4-0.4-0.6
		c-0.1-0.2-0.1-0.5-0.1-0.8c0-0.2,0-0.5,0.1-0.7c0.1-0.2,0.2-0.4,0.4-0.6C11.8,8,12,7.9,12.2,7.8s0.5-0.1,0.7-0.1
		c0.2,0,0.4,0,0.6,0.1C13.8,7.9,14,8,14.1,8.1c0.1,0.1,0.3,0.3,0.3,0.5c0.1,0.2,0.1,0.4,0.1,0.7c0,0.1,0,0.1,0,0.2c0,0,0,0.1,0,0.1
		c0,0,0,0-0.1,0.1c0,0-0.1,0-0.1,0H12.2z M13.7,9.1c0-0.1,0-0.2,0-0.3c0-0.1-0.1-0.2-0.1-0.2c-0.1-0.1-0.1-0.1-0.2-0.2
		c-0.1,0-0.2-0.1-0.3-0.1c-0.2,0-0.4,0.1-0.5,0.2c-0.1,0.1-0.2,0.3-0.3,0.6H13.7z"/>
	<path class="st2" d="M18.8,10.1c0.1,0,0.1,0,0.1,0.1l0.4,0.4c-0.2,0.3-0.5,0.5-0.8,0.6c-0.3,0.1-0.7,0.2-1.1,0.2
		c-0.4,0-0.7-0.1-1-0.2c-0.3-0.1-0.6-0.3-0.8-0.5c-0.2-0.2-0.4-0.5-0.5-0.8C15,9.5,15,9.2,15,8.8c0-0.3,0-0.5,0.1-0.7
		c0.1-0.2,0.1-0.4,0.2-0.6c0.1-0.2,0.2-0.4,0.4-0.5c0.1-0.2,0.3-0.3,0.5-0.4c0.2-0.1,0.4-0.2,0.6-0.2c0.2-0.1,0.5-0.1,0.7-0.1
		c0.2,0,0.4,0,0.5,0c0.2,0,0.3,0.1,0.5,0.1c0.1,0.1,0.3,0.1,0.4,0.2c0.1,0.1,0.2,0.2,0.3,0.3l-0.4,0.5c0,0,0,0.1-0.1,0.1
		c0,0-0.1,0-0.1,0c-0.1,0-0.1,0-0.2-0.1c-0.1,0-0.1-0.1-0.2-0.1S18.1,7.2,18,7.1c-0.1,0-0.3-0.1-0.5-0.1c-0.2,0-0.4,0-0.6,0.1
		c-0.2,0.1-0.3,0.2-0.5,0.3c-0.1,0.1-0.2,0.3-0.3,0.5c-0.1,0.2-0.1,0.5-0.1,0.7c0,0.3,0,0.5,0.1,0.7c0.1,0.2,0.2,0.4,0.3,0.5
		s0.3,0.3,0.5,0.3c0.2,0.1,0.4,0.1,0.6,0.1c0.1,0,0.2,0,0.3,0c0.1,0,0.2,0,0.3-0.1c0.1,0,0.2-0.1,0.2-0.1c0.1,0,0.1-0.1,0.2-0.2
		C18.6,10.2,18.6,10.1,18.8,10.1C18.7,10.1,18.7,10.1,18.8,10.1z"/>
	<path class="st2" d="M21.6,6.3c0.3,0,0.7,0,0.9,0.1s0.5,0.2,0.6,0.3c0.2,0.1,0.3,0.3,0.4,0.5c0.1,0.2,0.1,0.4,0.1,0.7
		c0,0.3,0,0.5-0.1,0.7c-0.1,0.2-0.2,0.4-0.4,0.5s-0.4,0.3-0.6,0.4c-0.3,0.1-0.6,0.1-0.9,0.1H21v1.8h-1.1V6.3H21.6z M21.6,8.8
		c0.3,0,0.6-0.1,0.7-0.2c0.2-0.2,0.2-0.4,0.2-0.7c0-0.1,0-0.2-0.1-0.3c0-0.1-0.1-0.2-0.2-0.3c-0.1-0.1-0.2-0.1-0.3-0.2
		c-0.1,0-0.3-0.1-0.4-0.1H21v1.7H21.6z"/>
	<path class="st2" d="M27.1,7.2c0,0.1-0.1,0.1-0.1,0.1c0,0-0.1,0-0.1,0c-0.1,0-0.1,0-0.2-0.1c-0.1,0-0.1-0.1-0.2-0.1
		c-0.1,0-0.2-0.1-0.3-0.1C26.1,7.1,26,7,25.9,7c-0.2,0-0.4,0.1-0.5,0.2c-0.1,0.1-0.2,0.3-0.2,0.4c0,0.1,0,0.2,0.1,0.3
		c0.1,0.1,0.2,0.1,0.3,0.2c0.1,0.1,0.2,0.1,0.4,0.1c0.1,0,0.3,0.1,0.4,0.1s0.3,0.1,0.4,0.2c0.1,0.1,0.3,0.2,0.4,0.3
		c0.1,0.1,0.2,0.2,0.3,0.4s0.1,0.3,0.1,0.5c0,0.2,0,0.5-0.1,0.7c-0.1,0.2-0.2,0.4-0.4,0.5c-0.2,0.2-0.3,0.3-0.6,0.4
		c-0.2,0.1-0.5,0.1-0.8,0.1c-0.2,0-0.3,0-0.5,0s-0.3-0.1-0.5-0.1c-0.1-0.1-0.3-0.1-0.4-0.2c-0.1-0.1-0.2-0.2-0.3-0.3l0.3-0.5
		c0,0,0.1-0.1,0.1-0.1c0,0,0.1,0,0.1,0c0.1,0,0.1,0,0.2,0.1c0.1,0,0.2,0.1,0.2,0.2c0.1,0.1,0.2,0.1,0.3,0.2c0.1,0,0.3,0.1,0.4,0.1
		c0.2,0,0.4-0.1,0.6-0.2c0.1-0.1,0.2-0.3,0.2-0.5c0-0.1,0-0.2-0.1-0.3c-0.1-0.1-0.2-0.1-0.3-0.2c-0.1-0.1-0.2-0.1-0.4-0.1
		c-0.1,0-0.3-0.1-0.4-0.1c-0.1,0-0.3-0.1-0.4-0.2c-0.1-0.1-0.3-0.2-0.4-0.3c-0.1-0.1-0.2-0.2-0.3-0.4c-0.1-0.2-0.1-0.4-0.1-0.6
		c0-0.2,0-0.4,0.1-0.6c0.1-0.2,0.2-0.3,0.3-0.5c0.1-0.1,0.3-0.2,0.5-0.3c0.2-0.1,0.5-0.1,0.7-0.1c0.3,0,0.6,0,0.9,0.1
		c0.3,0.1,0.5,0.2,0.7,0.4L27.1,7.2z"/>
</g>
<g id="Groupe_281" transform="translate(35.145 42.92) rotate(-13)">
	<path id="Tracé_489_1_" class="st2" d="M-2.2-26.6l-7-4c-0.5-0.3-1.1-0.1-1.4,0.4c0,0-7,11.3-7.9,13.6c-0.3,0.5-0.1,1.1,0.4,1.4
		l7,4c0.5,0.3,1.1,0.1,1.4-0.4l7.9-13.6C-1.6-25.7-1.7-26.3-2.2-26.6z M-7.2-28.3l2,1.2c0.2,0.1,0.2,0.3,0.1,0.5
		c-0.1,0.2-0.3,0.2-0.5,0.1l-2-1.2c-0.2-0.1-0.2-0.3-0.1-0.5C-7.6-28.3-7.4-28.4-7.2-28.3z M-14-14.2c-0.4-0.2-0.5-0.7-0.3-1.2
		c0.2-0.4,0.7-0.5,1.2-0.3c0.4,0.2,0.5,0.7,0.3,1.2C-13.1-14.1-13.6-13.9-14-14.2C-14-14.1-14-14.1-14-14.2z M-9.4-14.7l-6.5-3.7
		l5.6-9.7l6.5,3.7L-9.4-14.7z"/>
</g>
<g>
	<path class="st3" d="M13.4,19.2c-2.2,0.4-3.6,2.5-3.3,4.6c0.2,1.3,1.1,2.4,2.2,2.9l0.5-1.6c-0.6-0.4-1.1-1.1-1.2-1.9
		c-0.1-0.7,0.2-1.4,0.8-1.9c0.5-0.5,1.2-0.6,1.8-0.6l0.5-1.6C14.3,19.1,13.9,19.1,13.4,19.2z"/>
	<path class="st3" d="M12.5,23.1c0,0.5,0.2,1,0.6,1.3l0.9-2.9c-0.4,0-0.7,0.1-1,0.4C12.7,22.2,12.5,22.6,12.5,23.1z"/>
	<path class="st3" d="M12.4,17C9,17.9,7,21.3,7.9,24.8c0.5,2,1.9,3.5,3.7,4.3l0.5-1.5c-1.2-0.6-2.2-1.6-2.6-3
		c-0.7-2.3,0.5-4.7,2.7-5.7c0.9-0.4,1.9-0.5,2.9-0.3l0.5-1.5C14.5,16.7,13.5,16.7,12.4,17z"/>
	<path class="st2" d="M12.5,21.4c-0.6,0.5-0.8,1.2-0.8,1.9c0.1,0.8,0.5,1.5,1.2,1.9l0.2-0.8c-0.4-0.3-0.7-0.8-0.6-1.3
		c0-0.5,0.2-0.9,0.6-1.2c0.3-0.2,0.6-0.4,1-0.4l0.2-0.7C13.6,20.7,13,20.9,12.5,21.4z"/>
	<path class="st4" d="M10.3,17.1c-3.3,2.1-4.4,6.5-2.3,9.8c0.8,1.3,2,2.3,3.4,2.8l0.2-0.7c-1.8-0.7-3.2-2.3-3.7-4.3
		C7,21.3,9,17.9,12.4,17c1-0.3,2.1-0.3,3.1,0l0.2-0.7C14,15.8,12,16,10.3,17.1z"/>
	<path class="st5" d="M12.2,18.8c-2.2,1-3.3,3.4-2.7,5.7c0.4,1.4,1.4,2.4,2.6,3l0.2-0.7c-1.1-0.5-2-1.6-2.2-2.9
		c-0.4-2.2,1.1-4.3,3.3-4.6c0.5-0.1,1-0.1,1.4,0l0.2-0.7C14.1,18.3,13.1,18.3,12.2,18.8z"/>
</g>
</svg>
