<svg id="Composant_15_5" data-name="Composant 15 5" xmlns="http://www.w3.org/2000/svg" viewBox="0 0 38 38" width="38" height="38">
  <g>
    <path d="M11,0H27A11,11,0,0,1,38,11h0V27A11,11,0,0,1,27,38H11A11,11,0,0,1,0,27V11A11,11,0,0,1,11,0Z" style="fill: #5fd67a"/>
    <g style="isolation: isolate">
      <g style="isolation: isolate">
        <path d="M13.92,5.18a.24.24,0,0,1-.08.09.15.15,0,0,1-.1,0,.24.24,0,0,1-.13,0l-.16-.09a1.12,1.12,0,0,0-.22-.1A1.11,1.11,0,0,0,13,5a.61.61,0,0,0-.43.13.42.42,0,0,0-.14.33.33.33,0,0,0,.08.22.62.62,0,0,0,.2.15L13,6l.34.11.33.14a1.15,1.15,0,0,1,.29.2,1,1,0,0,1,.2.29,1.1,1.1,0,0,1,.08.43,1.44,1.44,0,0,1-.09.51,1.42,1.42,0,0,1-.28.41,1.23,1.23,0,0,1-.44.28,1.55,1.55,0,0,1-.59.1,2,2,0,0,1-.74-.15,1.68,1.68,0,0,1-.33-.16,1.94,1.94,0,0,1-.27-.21l.25-.39a.27.27,0,0,1,.07-.08.22.22,0,0,1,.11,0,.27.27,0,0,1,.16.05l.18.12.25.12a.9.9,0,0,0,.34.06.69.69,0,0,0,.45-.14.47.47,0,0,0,.15-.39A.36.36,0,0,0,13.34,7a.69.69,0,0,0-.21-.16,1.6,1.6,0,0,0-.29-.11l-.33-.1a2.26,2.26,0,0,1-.33-.13,1.15,1.15,0,0,1-.29-.2,1.1,1.1,0,0,1-.2-.31,1.28,1.28,0,0,1-.08-.47,1.07,1.07,0,0,1,.09-.43A1,1,0,0,1,12,4.73a1.31,1.31,0,0,1,.41-.26,1.7,1.7,0,0,1,.57-.1,2.09,2.09,0,0,1,.67.11,1.62,1.62,0,0,1,.51.31Z" style="fill: #fff"/>
        <path d="M15.28,7.1a.91.91,0,0,0,.23.58.7.7,0,0,0,.5.18,1.12,1.12,0,0,0,.27,0l.2-.09.15-.08.14,0a.17.17,0,0,1,.14.06l.22.28a1.18,1.18,0,0,1-.27.23,1.35,1.35,0,0,1-.3.14,1.67,1.67,0,0,1-.32.08l-.3,0a1.74,1.74,0,0,1-.56-.1,1.21,1.21,0,0,1-.44-.29,1.27,1.27,0,0,1-.3-.47,1.69,1.69,0,0,1-.11-.66,1.61,1.61,0,0,1,.09-.54,1.33,1.33,0,0,1,.28-.44,1.11,1.11,0,0,1,.43-.3,1.32,1.32,0,0,1,.57-.12,1.4,1.4,0,0,1,.51.09,1.14,1.14,0,0,1,.39.25,1.15,1.15,0,0,1,.26.41,1.53,1.53,0,0,1,.09.54.53.53,0,0,1,0,.14.12.12,0,0,1,0,.09.12.12,0,0,1-.05,0H15.28Zm1.19-.45a.91.91,0,0,0,0-.23.5.5,0,0,0-.1-.19.76.76,0,0,0-.17-.13.62.62,0,0,0-.25,0,.61.61,0,0,0-.43.15.79.79,0,0,0-.2.44Z" style="fill: #fff"/>
        <path d="M19.38,6.15a.23.23,0,0,1-.07.07l-.08,0a.2.2,0,0,1-.11,0L19,6.15l-.17-.06a.66.66,0,0,0-.21,0,.44.44,0,0,0-.28.08.24.24,0,0,0-.11.2.18.18,0,0,0,.06.14.56.56,0,0,0,.15.1l.22.08.25.08.25.1a.8.8,0,0,1,.21.15.66.66,0,0,1,.15.21.65.65,0,0,1,.06.29,1,1,0,0,1-.07.38.86.86,0,0,1-.23.3,1,1,0,0,1-.36.2,1.51,1.51,0,0,1-.5.07,1.33,1.33,0,0,1-.28,0,1.28,1.28,0,0,1-.28-.07l-.24-.11a.94.94,0,0,1-.19-.14l.17-.28a.3.3,0,0,1,.08-.08.21.21,0,0,1,.12,0,.28.28,0,0,1,.12,0l.13.07.17.08a.83.83,0,0,0,.24,0l.19,0a.4.4,0,0,0,.13-.07.23.23,0,0,0,.07-.1.22.22,0,0,0,0-.26.49.49,0,0,0-.16-.1,1,1,0,0,0-.21-.08l-.26-.08-.24-.11A.71.71,0,0,1,17.72,7a.73.73,0,0,1-.16-.22,1,1,0,0,1,0-.33.88.88,0,0,1,.06-.33.83.83,0,0,1,.21-.28.94.94,0,0,1,.34-.19,1.4,1.4,0,0,1,.47-.08,1.54,1.54,0,0,1,.55.1,1.2,1.2,0,0,1,.41.26Z" style="fill: #fff"/>
        <path d="M20,6a1.86,1.86,0,0,1,.55-.34,2,2,0,0,1,.66-.11,1.13,1.13,0,0,1,.45.09,1,1,0,0,1,.33.22,1,1,0,0,1,.22.35,1.33,1.33,0,0,1,.07.45V8.4h-.34a.37.37,0,0,1-.17,0,.22.22,0,0,1-.09-.13l-.06-.18a1.46,1.46,0,0,1-.21.16.82.82,0,0,1-.2.12,1,1,0,0,1-.23.07,1.2,1.2,0,0,1-.28,0,1.27,1.27,0,0,1-.34,0A.69.69,0,0,1,19.91,8a.88.88,0,0,1-.06-.33.63.63,0,0,1,.08-.32.71.71,0,0,1,.27-.28,1.48,1.48,0,0,1,.52-.21,3.41,3.41,0,0,1,.8-.1V6.62a.54.54,0,0,0-.11-.39.38.38,0,0,0-.32-.13.89.89,0,0,0-.26,0l-.19.08-.14.08a.42.42,0,0,1-.16,0,.25.25,0,0,1-.13,0,.28.28,0,0,1-.09-.1Zm1.54,1.25-.46,0a.9.9,0,0,0-.29.09.39.39,0,0,0-.15.13.25.25,0,0,0-.05.15.26.26,0,0,0,.09.23.4.4,0,0,0,.26.07.67.67,0,0,0,.33-.07.83.83,0,0,0,.27-.21Z" style="fill: #fff"/>
        <path d="M22.85,8.4V5.57h.47a.18.18,0,0,1,.19.13l0,.18.15-.14.17-.11.2-.08a.85.85,0,0,1,.23,0,.67.67,0,0,1,.43.14A1,1,0,0,1,25,6a.66.66,0,0,1,.17-.23,1.06,1.06,0,0,1,.21-.16,1.23,1.23,0,0,1,.52-.12,1.18,1.18,0,0,1,.43.08.72.72,0,0,1,.31.21,1.06,1.06,0,0,1,.19.33,1.65,1.65,0,0,1,.06.46V8.4h-.76V6.6c0-.33-.14-.5-.42-.5l-.18,0a.71.71,0,0,0-.14.1.49.49,0,0,0-.1.16.66.66,0,0,0,0,.21V8.4h-.76V6.6a.54.54,0,0,0-.1-.38.4.4,0,0,0-.31-.12.54.54,0,0,0-.25.06.92.92,0,0,0-.22.18V8.4Z" style="fill: #fff"/>
      </g>
      <g style="isolation: isolate">
        <path d="M15.88,9.12l-1.61,4h-.74l-1.6-4h.66a.23.23,0,0,1,.17.05.26.26,0,0,1,.1.13l.87,2.29.09.28.09.32c0-.11.05-.22.08-.32l.09-.28.86-2.29A.38.38,0,0,1,15,9.17a.35.35,0,0,1,.18-.05Z" style="fill: #fff"/>
        <path d="M17,9.47a.33.33,0,0,1,0,.17.56.56,0,0,1-.1.15l-.15.1a.58.58,0,0,1-.19,0l-.18,0a.71.71,0,0,1-.14-.1.4.4,0,0,1-.1-.15.33.33,0,0,1,0-.17.34.34,0,0,1,0-.18.4.4,0,0,1,.1-.15.45.45,0,0,1,.14-.1l.18,0a.58.58,0,0,1,.19,0,.65.65,0,0,1,.15.1.56.56,0,0,1,.1.15A.34.34,0,0,1,17,9.47Zm-.09.8V13.1h-.76V10.27Z" style="fill: #fff"/>
        <path d="M18.54,13.14a.9.9,0,0,1-.34-.06.6.6,0,0,1-.25-.16.58.58,0,0,1-.15-.25.88.88,0,0,1-.05-.33V10.81h-.27a.12.12,0,0,1-.1,0,.13.13,0,0,1-.05-.11v-.3l.46-.08.15-.73a.16.16,0,0,1,.17-.13h.39v.87h.73v.52H18.5v1.48a.24.24,0,0,0,.06.18.19.19,0,0,0,.16.07h.09l.07,0,.05,0,.05,0,.05,0,0,0,.22.36a1.08,1.08,0,0,1-.35.19A1.4,1.4,0,0,1,18.54,13.14Z" style="fill: #fff"/>
        <path d="M19.57,10.66a1.65,1.65,0,0,1,.55-.33,1.76,1.76,0,0,1,.66-.12,1.13,1.13,0,0,1,.45.09.86.86,0,0,1,.33.23.84.84,0,0,1,.22.35,1.23,1.23,0,0,1,.07.44V13.1h-.34a.37.37,0,0,1-.17,0,.22.22,0,0,1-.09-.13l-.06-.18a1.46,1.46,0,0,1-.21.16.82.82,0,0,1-.2.12,1,1,0,0,1-.23.08l-.28,0a1.27,1.27,0,0,1-.34-.05.69.69,0,0,1-.43-.39.84.84,0,0,1-.06-.33.63.63,0,0,1,.08-.32.79.79,0,0,1,.27-.28,2,2,0,0,1,.52-.21,3.41,3.41,0,0,1,.8-.1v-.14a.54.54,0,0,0-.11-.39.41.41,0,0,0-.32-.13.89.89,0,0,0-.26,0l-.19.08-.14.08a.42.42,0,0,1-.16,0,.25.25,0,0,1-.13,0,.28.28,0,0,1-.09-.1Zm1.54,1.25-.46.05-.29.09a.39.39,0,0,0-.15.13.25.25,0,0,0-.05.15.26.26,0,0,0,.09.23.4.4,0,0,0,.26.07.67.67,0,0,0,.33-.07.83.83,0,0,0,.27-.21Z" style="fill: #fff"/>
        <path d="M23.21,9V13.1h-.76V9Z" style="fill: #fff"/>
        <path d="M24.44,11.8a.86.86,0,0,0,.23.58.67.67,0,0,0,.49.18,1,1,0,0,0,.27,0,1.38,1.38,0,0,0,.2-.08l.16-.09a.35.35,0,0,1,.14,0,.18.18,0,0,1,.14.06l.21.28a1.13,1.13,0,0,1-.26.23,1.35,1.35,0,0,1-.3.14,1.87,1.87,0,0,1-.32.08l-.31,0a1.45,1.45,0,0,1-.55-.1,1.09,1.09,0,0,1-.44-.29,1.33,1.33,0,0,1-.31-.47,1.91,1.91,0,0,1-.1-.66,1.61,1.61,0,0,1,.09-.54,1.16,1.16,0,0,1,.27-.44,1.23,1.23,0,0,1,.44-.3,1.32,1.32,0,0,1,.57-.11,1.35,1.35,0,0,1,.5.08,1.18,1.18,0,0,1,.4.25,1.13,1.13,0,0,1,.25.41,1.33,1.33,0,0,1,.1.54c0,.06,0,.11,0,.14a.46.46,0,0,1,0,.09.12.12,0,0,1-.05,0H24.44Zm1.19-.45a.91.91,0,0,0,0-.23.52.52,0,0,0-.1-.18.52.52,0,0,0-.17-.13.51.51,0,0,0-.25-.05.58.58,0,0,0-.43.15.79.79,0,0,0-.2.44Z" style="fill: #fff"/>
      </g>
    </g>
    <g>
      <path d="M14.05,21.5a2.3,2.3,0,0,0-2.21,2.38v6.81a2.3,2.3,0,0,0,2.21,2.38H24.94a2.31,2.31,0,0,0,2.22-2.38V23.88a2.31,2.31,0,0,0-2.22-2.38Zm0,1h3.16a3.15,3.15,0,0,0-.61,1.87v.36l-.17,0H12.86v-.85A1.27,1.27,0,0,1,14,22.52Zm5.11,0h.68a1.68,1.68,0,0,1,1.53,1.87v.89s0,0-.05,0a2.29,2.29,0,0,0-.46,1.44v.86a2.27,2.27,0,0,0,.46,1.44l.05.05v1.06a1.68,1.68,0,0,1-1.53,1.87h-.68a1.68,1.68,0,0,1-1.53-1.87V29.12l0-.05a2.28,2.28,0,0,0,.47-1.44v-.86a2.28,2.28,0,0,0-.47-1.44l0,0v-.89a1.68,1.68,0,0,1,1.53-1.87Zm2.63,0h3.15a1.27,1.27,0,0,1,1.19,1.35h0v.85H22.39v-.35a3.15,3.15,0,0,0-.61-1.87Zm-8.93,3.24h3.57a.52.52,0,0,1,.45.22,1.26,1.26,0,0,1,.24.8v.85a1.3,1.3,0,0,1-.24.8.55.55,0,0,1-.45.22H12.86Zm9.7,0h3.57v2.89H22.56a.56.56,0,0,1-.45-.22,1.29,1.29,0,0,1-.23-.8v-.86a1.24,1.24,0,0,1,.23-.79A.51.51,0,0,1,22.56,25.76Zm-6,3.9v.52a3.2,3.2,0,0,0,.6,1.87H14.05a1.27,1.27,0,0,1-1.19-1.35h0v-1H16.6Zm5.79,0h3.74v1A1.26,1.26,0,0,1,25,32.05H21.79a3.07,3.07,0,0,0,.6-1.87Z" style="fill: #fff"/>
      <path d="M12.81,20.36h.87A2.22,2.22,0,0,0,11,19.29a2.17,2.17,0,0,0-1.39,1.38,2.22,2.22,0,0,0,1.25,2.76v-.81a1.5,1.5,0,1,1,2-2.26Z" style="fill: #fff"/>
    </g>
    <path d="M17.61,20.36h.72A6.69,6.69,0,1,0,10.86,28v-.72a6,6,0,1,1,6.75-6.95Z" style="fill: #abedb6;isolation: isolate"/>
    <path d="M15.34,20.36h.73a4.47,4.47,0,1,0-5.21,5.42v-.73a3.76,3.76,0,1,1,4.48-4.69Z" style="fill: #ceefd5"/>
  </g>
</svg>
