<?xml version="1.0" encoding="utf-8"?>
<!-- Generator: Adobe Illustrator 25.1.0, SVG Export Plug-In . SVG Version: 6.00 Build 0)  -->
<svg version="1.1" id="Composant_21_1" xmlns="http://www.w3.org/2000/svg" xmlns:xlink="http://www.w3.org/1999/xlink" x="0px"
	 y="0px" viewBox="0 0 67.9 67.9" style="enable-background:new 0 0 67.9 67.9;" xml:space="preserve">
<style type="text/css">
	.st0{fill:#FFFFFF;}
	.st1{fill:#07A2CF;}
</style>
<rect x="17.8" y="21.5" class="st0" width="35.8" height="30.8"/>
<g>
	<path id="Tracé_139" class="st1" d="M67.1,48.6c3.5,11.8-6.7,22-18.5,18.5l-36-10.7c-12.1-3.6-16.8-18.6-8.5-27L29.5,4.2
		c8.3-8.3,23.4-3.6,27,8.5L67.1,48.6z"/>
	<g id="LTCZ4Q.tif" transform="translate(23.941 17.279)">
		<g id="Groupe_272" transform="translate(75.543 109.569)">
			<path id="Tracé_474" class="st0" d="M-72.7-95.1c0.4-0.2,0.9-0.3,1.4-0.4c0.7-0.1,1.4-0.2,2-0.1c0.4,0,0.8,0.1,1.1,0.2
				c0.6,0.2,1.1,0.7,1.3,1.3l0.1,0.1c0.3-0.3,0.6-0.5,0.9-0.7c0.7-0.5,1.6-0.8,2.4-0.9c0.7-0.1,1.4-0.1,2.1,0.1
				c1.3,0.4,2.1,1.3,2.4,2.7c0.1,0.7,0,1.4-0.1,2c-0.3,1.1-0.6,2.2-0.9,3.4c0,0.1-0.1,0.3,0,0.4c0,0.2,0.1,0.3,0.3,0.3c0,0,0,0,0,0
				c0.2,0,0.3,0,0.5-0.1c0.2-0.1,0.4-0.2,0.6-0.2c-0.1,0.4-0.2,0.7-0.3,1.1c-0.3,1-0.5,2-0.8,3c0,0.1-0.1,0.1-0.1,0.2
				c-1.1,0.4-2.2,0.6-3.4,0.6c-0.8,0-1.6-0.3-2.2-0.8c-0.5-0.5-0.9-1.1-0.9-1.9c0-0.7,0.1-1.4,0.3-2.1c0.2-0.8,0.5-1.7,0.7-2.5
				c0.1-0.2,0.1-0.5,0-0.7c0-0.1-0.2-0.2-0.3-0.2c-0.3,0-0.5,0.1-0.6,0.3c-0.2,0.3-0.4,0.7-0.5,1c-0.2,0.8-0.4,1.5-0.6,2.3
				c-0.3,1.4-0.7,2.7-1,4.1c0,0.1-0.1,0.1-0.1,0.1c-1.9,0-3.8,0-5.8,0c-0.1,0-0.1,0-0.1-0.1c0.6-2.5,1.3-5.1,1.9-7.6
				c0.2-0.6,0.3-1.3,0.5-1.9c0.2-0.8,0.1-1.6-0.2-2.4C-72.5-94.7-72.6-94.9-72.7-95.1z"/>
			<path id="Tracé_475" class="st0" d="M-53.2-81.9c-1.2,0-2.4-0.1-3.6-0.3c-0.6-0.1-1.2-0.3-1.7-0.5c-0.1,0-0.1-0.1-0.1-0.1
				c0.3-1.2,0.6-2.5,0.9-3.7c0-0.1,0.1-0.1,0.1-0.1c0.8,0.3,1.6,0.6,2.5,0.7c0.5,0.1,1,0.1,1.4,0c0.2,0,0.3-0.1,0.3-0.3
				c0.1-0.2,0-0.4-0.2-0.5c-0.2-0.1-0.4-0.2-0.6-0.3c-0.6-0.2-1.2-0.4-1.7-0.6c-0.6-0.2-1.1-0.6-1.5-1c-0.6-0.5-0.9-1.3-0.9-2.1
				c-0.1-0.7,0.1-1.5,0.4-2.1c0.4-0.8,1.1-1.4,1.9-1.8c0.7-0.3,1.5-0.6,2.3-0.7c0.8-0.1,1.7-0.2,2.5-0.2c1.5,0,3.1,0.4,4.5,1
				c0.2,0.1,0.4,0.2,0.6,0.3c0.1,0,0.1,0.1,0.1,0.2c-0.5,1.1-0.9,2.3-1.4,3.4c0,0.1-0.1,0.1-0.2,0c-0.7-0.4-1.4-0.7-2.1-0.9
				c-0.5-0.1-1.1-0.2-1.6-0.1c-0.1,0-0.1,0-0.2,0c-0.2,0-0.3,0.2-0.3,0.3c0,0.2,0.1,0.3,0.2,0.4c0.2,0.1,0.3,0.2,0.5,0.2
				c0.6,0.2,1.3,0.4,1.9,0.7c0.5,0.2,1,0.5,1.4,0.8c0.6,0.6,1,1.4,1,2.3c0,0.7-0.1,1.3-0.3,1.9c-0.4,1-1.2,1.7-2.1,2.1
				c-0.7,0.3-1.4,0.5-2.2,0.6C-52.1-82-52.7-81.9-53.2-81.9z"/>
			<path id="Tracé_476" class="st0" d="M-80.7-85.4c0-0.6,0.1-1.2,0.3-1.8c0.3-1.2,0.6-2.3,0.9-3.5c0-0.1,0-0.2,0-0.3
				c0-0.2-0.2-0.3-0.4-0.3c-0.3,0-0.6,0.1-0.9,0.3c-0.1,0-0.1,0-0.2-0.1c-0.3-1-0.6-2-0.8-3c0-0.1,0-0.1,0.1-0.2
				c0.9-0.5,1.8-0.9,2.7-1.2c0.6-0.2,1.3-0.3,1.9-0.3c0.6,0,1.2,0,1.7,0.1c1.2,0.3,2.1,1.3,2.1,2.6c0,0.6-0.1,1.3-0.2,1.9
				c-0.5,2.1-1.1,4.2-1.6,6.4c-0.2,0.7-0.4,1.5-0.6,2.2c0,0.1-0.1,0.1-0.2,0.1c-0.4,0-0.7,0.1-1.1,0.1c-0.3,0-0.7,0-1-0.1
				c-0.4,0-0.8-0.2-1.2-0.3c-0.8-0.3-1.4-1.1-1.5-1.9C-80.7-85-80.7-85.2-80.7-85.4z"/>
			<path id="Tracé_477" class="st0" d="M-75.1-97.2c-0.6,0-1.3-0.1-1.9-0.4c-1-0.5-1.5-1.5-1.4-2.6c0.1-1.1,1-2,2.1-2.2
				c0.9-0.2,1.8-0.1,2.7,0.1c0.9,0.3,1.5,1,1.7,1.9c0.3,1.4-0.6,2.7-2,3c0,0,0,0,0,0C-74.3-97.2-74.7-97.2-75.1-97.2z"/>
		</g>
	</g>
</g>
</svg>
