<?xml version="1.0" encoding="utf-8"?>
<!-- Generator: Adobe Illustrator 24.0.2, SVG Export Plug-In . SVG Version: 6.00 Build 0)  -->
<svg version="1.1" id="Calque_1" xmlns="http://www.w3.org/2000/svg" xmlns:xlink="http://www.w3.org/1999/xlink" x="0px" y="0px"
	 viewBox="0 0 54 54" style="enable-background:new 0 0 54 54;" xml:space="preserve">
<style type="text/css">
	.st0{fill:#2F78CC;}
</style>
<path class="st0" d="M21.8,35.5c-7.4,0-13.4-6-13.4-13.4c0-7.4,6-13.4,13.4-13.4c7.4,0,13.4,6,13.4,13.4
	C35.3,29.5,29.3,35.5,21.8,35.5z M53,46.7L42.6,36.2c-0.5-0.5-1.1-0.7-1.8-0.7h-1.7c2.9-3.7,4.6-8.4,4.6-13.4
	c0-12.1-9.8-21.9-21.9-21.9S0,10,0,22.1s9.8,21.9,21.9,21.9c5.1,0,9.7-1.7,13.4-4.6V41c0,0.7,0.3,1.3,0.7,1.8l10.5,10.5
	c1,1,2.6,1,3.6,0l3-3C54,49.3,54,47.7,53,46.7z"/>
</svg>
