<svg id="Composant_15_5" data-name="Composant 15 5" xmlns="http://www.w3.org/2000/svg" viewBox="0 0 38 38" width="38" height="38">
  <rect id="Rectangle_65" data-name="Rectangle 65" width="38" height="38" rx="11" fill="#d34a3c"/>
  <g id="CPS" style="isolation: isolate">
    <path d="M17,10.75a.2.2,0,0,1,.15.06l.41.45a1.91,1.91,0,0,1-.76.59,2.62,2.62,0,0,1-1.09.21,2.54,2.54,0,0,1-1-.2,2.27,2.27,0,0,1-.78-.54,2.49,2.49,0,0,1-.49-.82,3.15,3.15,0,0,1-.17-1,3.38,3.38,0,0,1,.08-.72,2.94,2.94,0,0,1,.24-.63,2.77,2.77,0,0,1,.38-.52,2.46,2.46,0,0,1,.51-.39A2.37,2.37,0,0,1,15.06,7a2.64,2.64,0,0,1,.7-.08,3,3,0,0,1,.53,0,3.23,3.23,0,0,1,.47.14,2.52,2.52,0,0,1,.4.21l.33.27L17.14,8a.6.6,0,0,1-.08.08.29.29,0,0,1-.14,0,.32.32,0,0,1-.17-.06l-.21-.13a1.31,1.31,0,0,0-.31-.13,1.53,1.53,0,0,0-.47-.06,1.63,1.63,0,0,0-.59.11,1.25,1.25,0,0,0-.45.34,1.44,1.44,0,0,0-.3.53,2.39,2.39,0,0,0-.1.73,2.08,2.08,0,0,0,.11.73,1.78,1.78,0,0,0,.31.54,1.23,1.23,0,0,0,.46.33,1.39,1.39,0,0,0,.57.12l.32,0a1.07,1.07,0,0,0,.27-.06A1.28,1.28,0,0,0,16.6,11a1.46,1.46,0,0,0,.22-.17l.08-.05Z" style="fill: #fff"/>
    <path d="M19.86,6.92a3,3,0,0,1,.9.12,2.09,2.09,0,0,1,.63.34,1.39,1.39,0,0,1,.36.53,1.71,1.71,0,0,1,.12.65,1.93,1.93,0,0,1-.13.69,1.38,1.38,0,0,1-.37.53,1.62,1.62,0,0,1-.62.35,3,3,0,0,1-.89.12h-.67V12h-1V6.92Zm0,2.53a1,1,0,0,0,.72-.24.86.86,0,0,0,.23-.65.9.9,0,0,0-.06-.34A.62.62,0,0,0,20.58,8a.87.87,0,0,0-.3-.17,1.33,1.33,0,0,0-.42-.06h-.67V9.45Z" style="fill: #fff"/>
    <path d="M25.29,7.89a.44.44,0,0,1-.1.12.21.21,0,0,1-.14,0A.29.29,0,0,1,24.89,8l-.21-.11-.27-.12a1,1,0,0,0-.36,0,.79.79,0,0,0-.55.16.54.54,0,0,0-.18.42.37.37,0,0,0,.1.28.65.65,0,0,0,.26.19,2.59,2.59,0,0,0,.37.15l.42.13a3.25,3.25,0,0,1,.43.18,1.55,1.55,0,0,1,.37.26,1.44,1.44,0,0,1,.26.37,1.44,1.44,0,0,1,.1.54,1.75,1.75,0,0,1-.12.65,1.58,1.58,0,0,1-.35.53,1.69,1.69,0,0,1-.56.36,2.24,2.24,0,0,1-.76.13,2.61,2.61,0,0,1-.48-.05,3.09,3.09,0,0,1-.46-.14,2.74,2.74,0,0,1-.42-.21,1.91,1.91,0,0,1-.35-.27l.31-.5a.28.28,0,0,1,.1-.09.25.25,0,0,1,.14,0,.35.35,0,0,1,.2.07l.24.16a2.44,2.44,0,0,0,.32.15,1.08,1.08,0,0,0,.43.07.9.9,0,0,0,.57-.17.63.63,0,0,0,.2-.5.5.5,0,0,0-.1-.31.86.86,0,0,0-.26-.2,2.61,2.61,0,0,0-.37-.14l-.42-.13a3.16,3.16,0,0,1-.43-.16,1.38,1.38,0,0,1-.36-.26,1.28,1.28,0,0,1-.27-.4,1.69,1.69,0,0,1-.1-.59,1.49,1.49,0,0,1,.45-1A1.84,1.84,0,0,1,23.31,7,2,2,0,0,1,24,6.87a2.32,2.32,0,0,1,.84.14,1.81,1.81,0,0,1,.66.39Z" style="fill: #fff"/>
    <path id="Tracé_478" data-name="Tracé 478" d="M14.14,21a2.48,2.48,0,0,0-2.38,2.56V30.9a2.47,2.47,0,0,0,2.38,2.56H25.85a2.47,2.47,0,0,0,2.38-2.56V23.58A2.48,2.48,0,0,0,25.85,21Zm0,1.09h3.4a3.41,3.41,0,0,0-.66,2v.38l-.18,0H12.86v-.91a1.37,1.37,0,0,1,1.28-1.47Zm5.49,0h.73a1.81,1.81,0,0,1,1.65,2v.95l-.05.06a2.4,2.4,0,0,0-.5,1.55v.92a2.4,2.4,0,0,0,.5,1.55s0,0,.05.05v1.14a1.81,1.81,0,0,1-1.65,2h-.73a1.81,1.81,0,0,1-1.65-2V29.21l.05-.05a2.4,2.4,0,0,0,.5-1.55v-.92a2.4,2.4,0,0,0-.5-1.55L18,25.08v-.95a1.82,1.82,0,0,1,1.65-2Zm2.83,0h3.39a1.37,1.37,0,0,1,1.28,1.47v.91H23.29l-.18,0v-.38a3.47,3.47,0,0,0-.65-2Zm-9.6,3.48H16.7a.6.6,0,0,1,.48.24,1.35,1.35,0,0,1,.25.86v.92a1.32,1.32,0,0,1-.25.85.55.55,0,0,1-.48.24H12.86Zm10.43,0h3.85V28.7H23.29a.55.55,0,0,1-.48-.24,1.32,1.32,0,0,1-.25-.85v-.92a1.35,1.35,0,0,1,.25-.86.6.6,0,0,1,.48-.24Zm-6.41,4.2v.56a3.4,3.4,0,0,0,.65,2H14.14a1.37,1.37,0,0,1-1.28-1.47V29.8h4Zm6.23,0h4v1.1a1.38,1.38,0,0,1-1.29,1.47H22.46a3.4,3.4,0,0,0,.65-2Z" style="fill: #fff"/>
    <path id="Tracé_481" data-name="Tracé 481" d="M15.52,19.79h.79a4.79,4.79,0,0,0-4.73-3.71,4.81,4.81,0,0,0-.88,9.54v-.78a4.05,4.05,0,1,1,4.82-5.05Z" style="fill: #efb5b4"/>
    <path d="M18.74,19.79a7.2,7.2,0,1,0-8,8.25v-.78A6.43,6.43,0,1,1,18,19.79h.78Z" style="fill: #ef9a95"/>
    <path id="Tracé_479" data-name="Tracé 479" d="M12.8,19.79h.93a2.38,2.38,0,0,0-2.88-1.15,2.32,2.32,0,0,0-1.48,1.48,2.39,2.39,0,0,0,1.33,3v-.87a1.61,1.61,0,0,1,.45-2.87A1.61,1.61,0,0,1,12.8,19.79Z" style="fill: #fff"/>
  </g>
</svg>
