<svg id="Composant_19_1" data-name="Composant 19 – 1" xmlns="http://www.w3.org/2000/svg" width="581.59" height="554.139" viewBox="0 0 581.59 554.139">
  <g id="Groupe_258" data-name="Groupe 258" transform="translate(343.84 151.021)">
    <path id="Tracé_54" data-name="Tracé 54" d="M25.317,24V54.265h-5.5a3.612,3.612,0,0,1-3.1-1.72L4.682,29.159c-.688-1.032-.344-2.407,0-3.439A4.776,4.776,0,0,1,8.121,24Z" transform="translate(10.623 58.54)" fill="#fff"/>
    <path id="Tracé_55" data-name="Tracé 55" d="M35.889,13.2V43.465h-17.2a3.574,3.574,0,0,1-2.751-1.376L.466,18.7a3.124,3.124,0,0,1,0-3.439,3.612,3.612,0,0,1,3.1-1.72L35.889,13.2Z" transform="translate(0.05 32.197)" fill="#fff"/>
    <path id="Tracé_56" data-name="Tracé 56" d="M73.891,29.159,61.854,52.545a3.612,3.612,0,0,1-3.1,1.72H53.6V24H71.14a4.1,4.1,0,0,1,3.1,1.72A11.7,11.7,0,0,0,73.891,29.159Z" transform="translate(130.91 58.54)" fill="#fff"/>
    <path id="Tracé_57" data-name="Tracé 57" d="M88.923,18.6,73.447,41.989A3.128,3.128,0,0,1,70.7,43.365H53.5V13.1H86.172a3.612,3.612,0,0,1,3.1,1.72A4.732,4.732,0,0,1,88.923,18.6Z" transform="translate(130.666 31.953)" fill="#fff"/>
    <path id="Tracé_58" data-name="Tracé 58" d="M43.4.5V26.294H69.194Z" transform="translate(106.031 1.22)" fill="#fff"/>
    <path id="Tracé_59" data-name="Tracé 59" d="M115.574,34.391a3.249,3.249,0,0,1-3.439-3.439V0h-96.3A3.249,3.249,0,0,0,12.4,3.439V154.418a3.249,3.249,0,0,0,3.439,3.439H143.088a3.446,3.446,0,0,0,3.439-3.439V34.391ZM30.627,30.952a3.249,3.249,0,0,1,3.439-3.439H91.5a3.249,3.249,0,0,1,3.439,3.439A3.249,3.249,0,0,1,91.5,34.391H34.067A3.7,3.7,0,0,1,30.627,30.952ZM122.8,137.566H36.474a3.439,3.439,0,0,1,0-6.878h86.667a3.249,3.249,0,0,1,3.439,3.439C126.58,136.19,124.516,137.566,122.8,137.566Zm0-25.794H36.474a3.439,3.439,0,1,1,0-6.878h86.667a3.249,3.249,0,0,1,3.439,3.439A4,4,0,0,1,122.8,111.772Zm0-25.794H36.474a3.439,3.439,0,0,1,0-6.878h86.667a3.249,3.249,0,0,1,3.439,3.439C126.58,84.6,124.516,85.979,122.8,85.979Zm0-25.794H36.474a3.439,3.439,0,0,1,0-6.878h86.667a3.249,3.249,0,0,1,3.439,3.439C126.58,58.809,124.516,60.185,122.8,60.185Z" transform="translate(30.417)" fill="#fff"/>
  </g>
  <g id="Groupe_259" data-name="Groupe 259" transform="translate(267.84 208.417)" opacity="0.178">
    <path id="Tracé_54-2" data-name="Tracé 54" d="M8.609,24v6.223H7.478a.743.743,0,0,1-.636-.354L4.366,25.061a.826.826,0,0,1,0-.707A.982.982,0,0,1,5.073,24Z" transform="translate(-1.219 -7.027)" fill="#fff"/>
    <path id="Tracé_55-2" data-name="Tracé 55" d="M7.34,13.2v6.223H3.8a.735.735,0,0,1-.566-.283L.056,14.332a.642.642,0,0,1,0-.707.743.743,0,0,1,.636-.354L7.34,13.2Z" transform="translate(0.05 -3.865)" fill="#fff"/>
    <path id="Tracé_56-2" data-name="Tracé 56" d="M57.772,25.061,55.3,29.87a.743.743,0,0,1-.636.354H53.6V24h3.607a.844.844,0,0,1,.636.354A2.406,2.406,0,0,0,57.772,25.061Z" transform="translate(-15.659 -7.027)" fill="#fff"/>
    <path id="Tracé_57-2" data-name="Tracé 57" d="M60.784,14.232,57.6,19.04a.643.643,0,0,1-.566.283H53.5V13.1h6.718a.743.743,0,0,1,.636.354A.973.973,0,0,1,60.784,14.232Z" transform="translate(-15.63 -3.836)" fill="#fff"/>
    <path id="Tracé_58-2" data-name="Tracé 58" d="M43.4.5V5.8h5.3Z" transform="translate(-12.672 -0.146)" fill="#fff"/>
    <path id="Tracé_59-2" data-name="Tracé 59" d="M33.616,7.072a.668.668,0,0,1-.707-.707V0h-19.8A.668.668,0,0,0,12.4.707V31.753a.668.668,0,0,0,.707.707H39.273a.709.709,0,0,0,.707-.707V7.072ZM16.148,6.365a.668.668,0,0,1,.707-.707h11.81a.668.668,0,0,1,.707.707.668.668,0,0,1-.707.707H16.855A.761.761,0,0,1,16.148,6.365ZM35.1,28.288H17.35a.707.707,0,1,1,0-1.414H35.172a.668.668,0,0,1,.707.707A.771.771,0,0,1,35.1,28.288Zm0-5.3H17.35a.707.707,0,1,1,0-1.414H35.172a.668.668,0,0,1,.707.707A.824.824,0,0,1,35.1,22.984Zm0-5.3H17.35a.707.707,0,1,1,0-1.414H35.172a.668.668,0,0,1,.707.707A.771.771,0,0,1,35.1,17.68Zm0-5.3H17.35a.707.707,0,0,1,0-1.414H35.172a.668.668,0,0,1,.707.707A.771.771,0,0,1,35.1,12.376Z" transform="translate(-3.595)" fill="#fff"/>
  </g>
  <g id="Groupe_261" data-name="Groupe 261" transform="translate(343.856 331.325)" opacity="0.415">
    <path id="Tracé_54-3" data-name="Tracé 54" d="M12.619,24V35.993h-2.18a1.431,1.431,0,0,1-1.227-.681l-4.77-9.267a1.591,1.591,0,0,1,0-1.363A1.892,1.892,0,0,1,5.8,24Z" transform="translate(1.623 8.707)" fill="#fff"/>
    <path id="Tracé_55-3" data-name="Tracé 55" d="M14.191,13.2V25.193H7.377a1.416,1.416,0,0,1-1.09-.545L.154,15.38a1.238,1.238,0,0,1,0-1.363,1.431,1.431,0,0,1,1.227-.681l12.81-.136Z" transform="translate(0.05 4.789)" fill="#fff"/>
    <path id="Tracé_56-3" data-name="Tracé 56" d="M61.64,26.044l-4.77,9.267a1.431,1.431,0,0,1-1.227.681H53.6V24h6.95a1.626,1.626,0,0,1,1.227.681A4.636,4.636,0,0,0,61.64,26.044Z" transform="translate(19.514 8.707)" fill="#fff"/>
    <path id="Tracé_57-3" data-name="Tracé 57" d="M67.537,15.28,61.4,24.547a1.239,1.239,0,0,1-1.09.545H53.5V13.1H66.447a1.431,1.431,0,0,1,1.227.681A1.875,1.875,0,0,1,67.537,15.28Z" transform="translate(19.477 4.753)" fill="#fff"/>
    <path id="Tracé_58-3" data-name="Tracé 58" d="M43.4.5V10.721H53.621Z" transform="translate(15.813 0.181)" fill="#fff"/>
    <path id="Tracé_59-3" data-name="Tracé 59" d="M53.284,13.628a1.288,1.288,0,0,1-1.363-1.363V0H13.763A1.288,1.288,0,0,0,12.4,1.363V61.189a1.288,1.288,0,0,0,1.363,1.363H64.186a1.366,1.366,0,0,0,1.363-1.363V13.628ZM19.623,12.265A1.288,1.288,0,0,1,20.986,10.9H43.744a1.288,1.288,0,0,1,1.363,1.363,1.288,1.288,0,0,1-1.363,1.363H20.986A1.466,1.466,0,0,1,19.623,12.265ZM56.146,54.512H21.94a1.363,1.363,0,1,1,0-2.726H56.282a1.288,1.288,0,0,1,1.363,1.363A1.486,1.486,0,0,1,56.146,54.512Zm0-10.221H21.94a1.363,1.363,0,1,1,0-2.726H56.282a1.288,1.288,0,0,1,1.363,1.363A1.587,1.587,0,0,1,56.146,44.291Zm0-10.221H21.94a1.363,1.363,0,1,1,0-2.726H56.282a1.288,1.288,0,0,1,1.363,1.363A1.486,1.486,0,0,1,56.146,34.07Zm0-10.221H21.94a1.363,1.363,0,1,1,0-2.726H56.282a1.288,1.288,0,0,1,1.363,1.363A1.486,1.486,0,0,1,56.146,23.849Z" transform="translate(4.567)" fill="#fff"/>
  </g>
  <g id="Groupe_262" data-name="Groupe 262" transform="translate(167.953 247.387)" opacity="0.394">
    <path id="Tracé_54-4" data-name="Tracé 54" d="M15.275,24V39.815H12.4a1.887,1.887,0,0,1-1.617-.9L4.492,26.7a2.1,2.1,0,0,1,0-1.8,2.5,2.5,0,0,1,1.8-.9Z" transform="translate(3.505 19.132)" fill="#fff"/>
    <path id="Tracé_55-4" data-name="Tracé 55" d="M18.731,13.2V29.015H9.745A1.867,1.867,0,0,1,8.307,28.3L.22,16.075a1.632,1.632,0,0,1,0-1.8,1.887,1.887,0,0,1,1.617-.9l16.893-.18Z" transform="translate(0.05 10.523)" fill="#fff"/>
    <path id="Tracé_56-4" data-name="Tracé 56" d="M64.2,26.7l-6.29,12.221a1.887,1.887,0,0,1-1.617.9H53.6V24h9.166a2.145,2.145,0,0,1,1.617.9A6.114,6.114,0,0,0,64.2,26.7Z" transform="translate(42.819 19.132)" fill="#fff"/>
    <path id="Tracé_57-4" data-name="Tracé 57" d="M72.011,15.975,63.924,28.2a1.635,1.635,0,0,1-1.438.719H53.5V13.1H70.573a1.887,1.887,0,0,1,1.617.9A2.473,2.473,0,0,1,72.011,15.975Z" transform="translate(42.739 10.443)" fill="#fff"/>
    <path id="Tracé_58-4" data-name="Tracé 58" d="M43.4.5V13.979H56.879Z" transform="translate(34.687 0.399)" fill="#fff"/>
    <path id="Tracé_59-4" data-name="Tracé 59" d="M66.315,17.972a1.7,1.7,0,0,1-1.8-1.8V0H14.2a1.7,1.7,0,0,0-1.8,1.8v78.9a1.7,1.7,0,0,0,1.8,1.8h66.5a1.8,1.8,0,0,0,1.8-1.8V17.972Zm-44.39-1.8a1.7,1.7,0,0,1,1.8-1.8H53.735a1.7,1.7,0,0,1,1.8,1.8,1.7,1.7,0,0,1-1.8,1.8H23.722A1.933,1.933,0,0,1,21.925,16.175ZM70.089,71.887H24.98a1.8,1.8,0,1,1,0-3.594H70.269a1.7,1.7,0,0,1,1.8,1.8A1.959,1.959,0,0,1,70.089,71.887Zm0-13.479H24.98a1.8,1.8,0,1,1,0-3.594H70.269a1.7,1.7,0,0,1,1.8,1.8A2.093,2.093,0,0,1,70.089,58.408Zm0-13.479H24.98a1.8,1.8,0,1,1,0-3.594H70.269a1.7,1.7,0,0,1,1.8,1.8A1.959,1.959,0,0,1,70.089,44.929Zm0-13.479H24.98a1.8,1.8,0,1,1,0-3.594H70.269a1.7,1.7,0,0,1,1.8,1.8A1.959,1.959,0,0,1,70.089,31.451Z" transform="translate(9.975)" fill="#fff"/>
  </g>
  <g id="Groupe_263" data-name="Groupe 263" transform="translate(215.841 356.387)" opacity="0.398">
    <path id="Tracé_54-5" data-name="Tracé 54" d="M14.15,24V38.2H11.569a1.694,1.694,0,0,1-1.452-.807L4.471,26.42a1.883,1.883,0,0,1,0-1.613A2.24,2.24,0,0,1,6.084,24Z" transform="translate(2.708 14.717)" fill="#fff"/>
    <path id="Tracé_55-5" data-name="Tracé 55" d="M16.808,13.2V27.4H8.742a1.676,1.676,0,0,1-1.291-.645L.192,15.781a1.465,1.465,0,0,1,0-1.613,1.694,1.694,0,0,1,1.452-.807L16.808,13.2Z" transform="translate(0.05 8.094)" fill="#fff"/>
    <path id="Tracé_56-5" data-name="Tracé 56" d="M63.118,26.42,57.472,37.39a1.694,1.694,0,0,1-1.452.807H53.6V24h8.227a1.925,1.925,0,0,1,1.452.807A5.488,5.488,0,0,0,63.118,26.42Z" transform="translate(32.949 14.717)" fill="#fff"/>
    <path id="Tracé_57-5" data-name="Tracé 57" d="M70.116,15.681l-7.259,10.97a1.467,1.467,0,0,1-1.291.645H53.5V13.1H68.826a1.694,1.694,0,0,1,1.452.807A2.219,2.219,0,0,1,70.116,15.681Z" transform="translate(32.888 8.033)" fill="#fff"/>
    <path id="Tracé_58-5" data-name="Tracé 58" d="M43.4.5V12.6H55.5Z" transform="translate(26.694 0.307)" fill="#fff"/>
    <path id="Tracé_59-5" data-name="Tracé 59" d="M60.8,16.132a1.524,1.524,0,0,1-1.613-1.613V0H14.013A1.524,1.524,0,0,0,12.4,1.613v70.82a1.524,1.524,0,0,0,1.613,1.613H73.7a1.617,1.617,0,0,0,1.613-1.613v-56.3ZM20.95,14.519a1.524,1.524,0,0,1,1.613-1.613H49.5a1.524,1.524,0,0,1,1.613,1.613A1.524,1.524,0,0,1,49.5,16.132H22.563A1.735,1.735,0,0,1,20.95,14.519Zm43.234,50.01H23.693a1.613,1.613,0,1,1,0-3.226H64.346a1.524,1.524,0,0,1,1.613,1.613A1.759,1.759,0,0,1,64.184,64.529Zm0-12.1H23.693a1.613,1.613,0,1,1,0-3.226H64.346a1.524,1.524,0,0,1,1.613,1.613A1.879,1.879,0,0,1,64.184,52.43Zm0-12.1H23.693a1.613,1.613,0,0,1,0-3.226H64.346a1.524,1.524,0,0,1,1.613,1.613A1.759,1.759,0,0,1,64.184,40.33Zm0-12.1H23.693a1.613,1.613,0,1,1,0-3.226H64.346a1.524,1.524,0,0,1,1.613,1.613A1.759,1.759,0,0,1,64.184,28.231Z" transform="translate(7.685)" fill="#fff"/>
  </g>
  <g id="Groupe_264" data-name="Groupe 264" transform="translate(0 397.147)" opacity="0.186">
    <path id="Tracé_54-6" data-name="Tracé 54" d="M25.2,24V54.1H19.729a3.592,3.592,0,0,1-3.078-1.71L4.679,29.13c-.684-1.026-.342-2.394,0-3.42A4.749,4.749,0,0,1,8.1,24Z" transform="translate(10.541 58.087)" fill="#fff"/>
    <path id="Tracé_55-6" data-name="Tracé 55" d="M35.692,13.2V43.3h-17.1a3.554,3.554,0,0,1-2.736-1.368L.463,18.672a3.107,3.107,0,0,1,0-3.42,3.592,3.592,0,0,1,3.078-1.71L35.692,13.2Z" transform="translate(0.05 31.948)" fill="#fff"/>
    <path id="Tracé_56-6" data-name="Tracé 56" d="M73.78,29.13,61.809,52.388A3.592,3.592,0,0,1,58.73,54.1H53.6V24H71.044a4.081,4.081,0,0,1,3.078,1.71A11.636,11.636,0,0,0,73.78,29.13Z" transform="translate(129.899 58.087)" fill="#fff"/>
    <path id="Tracé_57-6" data-name="Tracé 57" d="M88.729,18.572,73.338,41.831A3.111,3.111,0,0,1,70.6,43.2H53.5V13.1H85.993a3.592,3.592,0,0,1,3.078,1.71A4.706,4.706,0,0,1,88.729,18.572Z" transform="translate(129.657 31.706)" fill="#fff"/>
    <path id="Tracé_58-6" data-name="Tracé 58" d="M43.4.5V26.152H69.052Z" transform="translate(105.212 1.21)" fill="#fff"/>
    <path id="Tracé_59-6" data-name="Tracé 59" d="M115.009,34.2a3.231,3.231,0,0,1-3.42-3.42V0H15.82A3.231,3.231,0,0,0,12.4,3.42V153.571a3.231,3.231,0,0,0,3.42,3.42H142.371a3.427,3.427,0,0,0,3.42-3.42V34.2Zm-84.481-3.42a3.231,3.231,0,0,1,3.42-3.42H91.067a3.231,3.231,0,0,1,3.42,3.42,3.231,3.231,0,0,1-3.42,3.42H33.948A3.678,3.678,0,0,1,30.528,30.783Zm91.664,106.029H36.342a3.42,3.42,0,1,1,0-6.841h86.192a3.231,3.231,0,0,1,3.42,3.42C125.954,135.444,123.9,136.812,122.192,136.812Zm0-25.652H36.342a3.42,3.42,0,1,1,0-6.841h86.192a3.231,3.231,0,0,1,3.42,3.42A3.983,3.983,0,0,1,122.192,111.16Zm0-25.652H36.342a3.42,3.42,0,1,1,0-6.841h86.192a3.231,3.231,0,0,1,3.42,3.42C125.954,84.139,123.9,85.507,122.192,85.507Zm0-25.652H36.342a3.42,3.42,0,1,1,0-6.841h86.192a3.231,3.231,0,0,1,3.42,3.42C125.954,58.487,123.9,59.855,122.192,59.855Z" transform="translate(30.183)" fill="#fff"/>
  </g>

</svg>
