<svg id="Groupe_249" data-name="Groupe 249" xmlns="http://www.w3.org/2000/svg" width="474.473" height="416.069" viewBox="0 0 474.473 416.069">
  <path id="Tracé_290" data-name="Tracé 290" d="M172.162,0c95.082,0,172.162,13.617,172.162,30.414s-77.08,30.414-172.162,30.414S0,47.212,0,30.414,77.08,0,172.162,0Z" transform="translate(37.729 355.24)" fill="#e7ebef"/>
  <path id="Tracé_266" data-name="Tracé 266" d="M14.415,237.515a81.979,81.979,0,1,1,38.036,30.54,26.518,26.518,0,1,1-38.036-30.54Z" transform="translate(310.05 -48.786)" fill="#2f78cc"/>
  <rect id="Rectangle_80" data-name="Rectangle 80" width="97.519" height="7.699" transform="translate(343.811 126.574)" fill="#fff"/>
  <rect id="Rectangle_81" data-name="Rectangle 81" width="97.519" height="7.699" transform="translate(343.811 139.406)" fill="#fff"/>
  <rect id="Rectangle_82" data-name="Rectangle 82" width="97.519" height="7.699" transform="translate(343.811 152.237)" fill="#fff"/>
  <path id="Tracé_267" data-name="Tracé 267" d="M706.686,128.241a81.98,81.98,0,1,0-38.036,30.54,26.518,26.518,0,1,0,38.036-30.54Z" transform="translate(-556.679 -0.493)" fill="#2f78cc"/>
  <rect id="Rectangle_83" data-name="Rectangle 83" width="97.519" height="7.699" transform="translate(33.143 65.593)" fill="#fff"/>
  <rect id="Rectangle_84" data-name="Rectangle 84" width="97.519" height="7.699" transform="translate(33.143 78.424)" fill="#fff"/>
  <rect id="Rectangle_85" data-name="Rectangle 85" width="97.519" height="7.699" transform="translate(33.143 91.256)" fill="#fff"/>
  <path id="Tracé_268" data-name="Tracé 268" d="M396.432,575.012a45.767,45.767,0,1,0-21.235,17.05,14.8,14.8,0,1,0,21.235-17.05Z" transform="translate(-104.066 -222.876)" fill="#2f78cc"/>
  <circle id="Ellipse_22" data-name="Ellipse 22" cx="5.296" cy="5.296" r="5.296" transform="translate(267.069 320.247)" fill="#fff"/>
  <circle id="Ellipse_23" data-name="Ellipse 23" cx="5.296" cy="5.296" r="5.296" transform="translate(248.999 320.247)" fill="#fff"/>
  <circle id="Ellipse_24" data-name="Ellipse 24" cx="5.296" cy="5.296" r="5.296" transform="translate(230.928 320.247)" fill="#fff"/>
  <path id="Tracé_269" data-name="Tracé 269" d="M421.1,289.408s-23.632.642-27.535,2.063-5.648,11.574-5.648,11.574l18.348,5.768,13.724-.777,10.329.729-5.768-15.1Z" transform="translate(-172.11 -128.176)" fill="#2f2e41"/>
  <path id="Tracé_270" data-name="Tracé 270" d="M425.621,275.513s-1.555,6,1.9,10.257-14.835,19.4-14.835,19.4l-9.646-1.658s2.126-18.452-.73-23.124S425.621,275.513,425.621,275.513Z" transform="translate(-177.649 -122.035)" fill="#9f616a"/>
  <path id="Tracé_271" data-name="Tracé 271" d="M425.621,275.513s-1.555,6,1.9,10.257-14.835,19.4-14.835,19.4l-9.646-1.658s2.126-18.452-.73-23.124S425.621,275.513,425.621,275.513Z" transform="translate(-177.649 -122.035)" opacity="0.1" style="isolation: isolate"/>
  <path id="Tracé_272" data-name="Tracé 272" d="M496.313,590.132,517.6,618.357l-14.525,8.48L483.081,594.13Z" transform="translate(-312.494 -261.078)" fill="#9f616a"/>
  <path id="Tracé_273" data-name="Tracé 273" d="M522.62,635.724s7.838-9.107,7.489-7.076,5.577,19.253.064,20.919-52.793,6.085-53.443.746,14.1-9.075,14.1-9.075,8.766-8.425,10.709-7.568S522.62,635.724,522.62,635.724Z" transform="translate(-323.872 -277.969)" fill="#2f2e41"/>
  <path id="Tracé_274" data-name="Tracé 274" d="M542.5,636.707l-17,28.962-12.835-7.433,17.143-23.711Z" transform="translate(-353.904 -280.696)" fill="#9f616a"/>
  <path id="Tracé_275" data-name="Tracé 275" d="M529.539,513.374l5.045,7.14s24.052,33.4,21.5,36.1-13.192,12.891-18.6,10.916-24.631-36.118-24.631-36.118l5.014-20.046Z" transform="translate(-367.782 -226.268)" fill="#2f2e41"/>
  <path id="Tracé_276" data-name="Tracé 276" d="M502.912,472.026s-5.386,10.051-19.039,13.454-27.916,10.36-28.423,10.273-1.944-.857-2.293,1.174-4.093,5.569-4.093,5.569-15.081,51.246-20.84,51.3-17.6-4.069-17.841-5.68,17.635-53.943,17.809-54.958l2.094-12.185s-23.648,3.776-25.853,4.442-21.823,11.407-21.823,11.407-20-14.414-1.293-28.971,50.857-25.234,50.857-25.234l11.535-3.245,10.052-.6,1.48-5.676,23.808,1.373L503.9,445.014Z" transform="translate(-237.544 -191.678)" fill="#2f2e41"/>
  <circle id="Ellipse_25" data-name="Ellipse 25" cx="18.545" cy="18.545" r="18.545" transform="translate(215.401 128.34)" fill="#9f616a"/>
  <path id="Tracé_277" data-name="Tracé 277" d="M419.414,290.106l-2.231-.383s-4.029,15.511-16.491,18.073c0,0-6.149-7.366-5.886-8.609s-4.87-7.875-7.6-4.163.666,69.111-1.626,70.285-7.211,2.419-3.253,6.759,19.682,10.178,23.164,8.163,10.6-19.086,13.676-24.83,8-25.282,8-25.282,6.29-21.394,2.419-26.242S419.414,290.106,419.414,290.106Z" transform="translate(-168.69 -128.315)" fill="#d0cde1"/>
  <path id="Tracé_278" data-name="Tracé 278" d="M354.025,368.83a105.837,105.837,0,0,0,2.125,13.543c.91,3.632,1.968,5.824,3.177,5.731,3.084-.23,4.485,4.292,5.208,9.506.772,5.532.772,11.843,1.2,14.073.561,2.947,4.149,5.2,11.319,4.535a50.627,50.627,0,0,0,12.472-3.059c9.681-3.52,9.394-32.064,7.775-53.244-.991-12.983-2.479-23.205-2.479-23.205a115.2,115.2,0,0,0,3.881-14.783,19.641,19.641,0,0,0,.281-3.32c-.143-5.252-9.731-19.443-15.524-28.283s-13.712-2.355-13.712-2.355l2.753,8.311s-4.267,6.585-4.3,12.852-10.216,10.79-13.873,13.823C352.026,324.862,352.082,350.309,354.025,368.83Z" transform="translate(-121.05 -126.527)" fill="#2f2e41"/>
  <path id="Tracé_279" data-name="Tracé 279" d="M472.733,295.108s-.669.79-3.728.4c-3.67-.462-8.716.808-9.888,4.312-2.15,6.426-8.211,32.564-8.211,32.564s-2.523,29.883-3.657,36.483-.571,12.446-1.69,15.913,11.042-6.465,15.525-5.172,7.361-15.461,6.8-21.308-1.039-12.2.516-18.206-1.2-21.9-1.1-25.54S477.182,301.741,472.733,295.108Z" transform="translate(-247.809 -130.695)" fill="#2f2e41"/>
  <path id="Tracé_280" data-name="Tracé 280" d="M484.174,461.534s-19.636,10.712-21.515,25.959,26.264-14.763,26.264-14.763Z" transform="translate(-272.373 -204.245)" fill="#9f616a"/>
  <path id="Tracé_281" data-name="Tracé 281" d="M509.692,440.777s-6.016,30.328-15.39,28.717,5.236-30.462,5.236-30.462Z" transform="translate(-309.1 -194.3)" fill="#9f616a"/>
  <path id="Tracé_282" data-name="Tracé 282" d="M564.8,675.614s4.8,5.529,5.99,4.688,3.927,10.607,1.459,12.8-11.97,5.783-12.074,9.424-25.591,2.919-26.5-.9,3.2-12.518,6.085-14.113,13.564-16.27,13.564-16.27S561.687,672.465,564.8,675.614Z" transform="translate(-396.313 -296.924)" fill="#2f2e41"/>
  <path id="Tracé_283" data-name="Tracé 283" d="M363.352,429c4.554-3.214,17.268-4.011,28.556-4.753,4.953-.318,9.631-.629,13.225-1.134,3.464-.479,6.578-3.644,9.344-8.36,4.193-7.145,7.582-17.86,10.192-28.2-.991-12.983-2.479-23.205-2.479-23.205a115.234,115.234,0,0,0,3.881-14.783,7.911,7.911,0,0,0-2.5-2.255c-11.973-5.139-23.4,45.438-24.856,53.375-.025.131-.044.255-.062.361-.7,4.087-8.31,7.582-15.125,8.965-4.2.853-8.1.909-9.905-.2-4.728-2.9-19.268,8.715-20.371,9.046S356.811,433.624,363.352,429Z" transform="translate(-148.423 -153.159)" opacity="0.1" style="isolation: isolate"/>
  <path id="Tracé_284" data-name="Tracé 284" d="M417.573,340.725s8.7,4.11,4.879,23.315-11.526,51.857-23.306,53.491-35.238,1.261-41.783,5.886-11.209-10.812-10.106-11.146,15.643-11.947,20.371-9.043,23.893-2.166,25.028-8.766S405.4,335.5,417.573,340.725Z" transform="translate(-142.431 -150.693)" fill="#2f2e41"/>
  <path id="Tracé_285" data-name="Tracé 285" d="M496.137,324.511,486.573,346.7s-.963-.48-2.082,2.987-1.642,6.513-3.6,8.789-10.678,34.754-10.94,36.277,12.041,6.774,14.79,2.542S496.137,324.511,496.137,324.511Z" transform="translate(-283.704 -143.689)" fill="#2f2e41"/>
  <path id="Tracé_286" data-name="Tracé 286" d="M423.133,243.716c-.711-.19-.815-1.133-.839-1.868-.127-3.937-2.5-7.977-6.267-9.124a10.535,10.535,0,0,0-4.442-.244,16.826,16.826,0,0,0-6.015,2.007,9.383,9.383,0,0,1-3.058,1.385c-.736.111-3.919,1.037-4.651,1.167-1.61.286-3.106,1.727-4.651,1.19-1.478-.512-1.8-2.426-1.84-3.99-.081-3.563,2.623-8.494,5.006-11.145,1.808-2.011,4.53-2.94,7.191-3.423a47.883,47.883,0,0,1,9.4-.572c4.259.076,8.635.4,12.475,2.247s7.066,5.51,7.25,9.766c.039.886-.053,1.776.022,2.66.181,2.157,1.327,4.105,1.864,6.2A11.347,11.347,0,0,1,433,249.042c-1.425,2.1-3.665,3.995-3.583,6.529l-3.091-3.2a2.537,2.537,0,0,1-.755-3.1L426.663,245a3.851,3.851,0,0,0,.095-2.375C425.585,239.731,424.317,244.032,423.133,243.716Z" transform="translate(-178.635 -97.089)" fill="#2f2e41"/>
  <path id="Tracé_287" data-name="Tracé 287" d="M667.243,532.871c.128-.209,3.148-5.251,4.194-15.722.96-9.606.343-25.8-8.054-48.383-15.908-42.787,3.666-77.31,3.866-77.654l-.965-.56c-.051.087-5.1,8.889-8.086,22.905a99.926,99.926,0,0,0,4.139,55.7c15.881,42.714,4.074,62.934,3.953,63.134Z" transform="translate(-563.186 -172.875)" fill="#3f3d56"/>
  <circle id="Ellipse_26" data-name="Ellipse 26" cx="7.255" cy="7.255" r="7.255" transform="translate(103.023 201.215)" fill="#f09067"/>
  <circle id="Ellipse_27" data-name="Ellipse 27" cx="7.255" cy="7.255" r="7.255" transform="translate(80.142 228.002)" fill="#de5d80"/>
  <circle id="Ellipse_28" data-name="Ellipse 28" cx="7.255" cy="7.255" r="7.255" transform="translate(95.768 245.86)" fill="#35d9c0"/>
  <circle id="Ellipse_29" data-name="Ellipse 29" cx="7.255" cy="7.255" r="7.255" transform="translate(76.794 260.928)" fill="#ffa800"/>
  <circle id="Ellipse_30" data-name="Ellipse 30" cx="7.255" cy="7.255" r="7.255" transform="translate(101.348 284.366)" fill="#7613e0"/>
  <path id="Tracé_288" data-name="Tracé 288" d="M684.43,621.305s7.255-17.858-14.51-31.251Z" transform="translate(-584.755 -261.043)" fill="#3f3d56"/>
  <path id="Tracé_289" data-name="Tracé 289" d="M604.3,630.563s3.3-18.991,28.856-18.828Z" transform="translate(-495.708 -270.624)" fill="#3f3d56"/>
</svg>
