<svg id="Composant_19_3" data-name="Composant 19 – 3" xmlns="http://www.w3.org/2000/svg" width="546.969" height="533.683" viewBox="0 0 546.969 533.683">
  <g id="Composant_18_2" data-name="Composant 18 – 2" transform="translate(314.969)">
  </g>
  <path id="Tracé_439" data-name="Tracé 439" d="M10.433.838,123.848,61.52a10.426,10.426,0,0,1,0,18.386L10.425,140.579a7.085,7.085,0,0,1-10.162-8.16l12.555-44.77L65.405,70.71,12.816,53.574.274,9A7.083,7.083,0,0,1,10.433.838Z" transform="translate(351.506 131.685) rotate(-30)" fill="#fff" fill-rule="evenodd"/>
  <path id="Tracé_440" data-name="Tracé 440" d="M3.339.268l36.3,19.421a3.337,3.337,0,0,1,0,5.884L3.336,44.991A2.267,2.267,0,0,1,.084,42.379L4.1,28.051l16.83-5.421L4.1,17.146.088,2.881A2.267,2.267,0,0,1,3.339.268Z" transform="translate(264.506 161.685) rotate(-30)" fill="#fff" fill-rule="evenodd" opacity="0.118"/>
  <path id="Tracé_441" data-name="Tracé 441" d="M2.044.164,24.268,12.055a2.043,2.043,0,0,1,0,3.6L2.043,27.546a1.388,1.388,0,0,1-1.991-1.6l2.46-8.773,10.3-3.319L2.511,10.5.054,1.764A1.388,1.388,0,0,1,2.044.164Z" transform="translate(336.506 224.685) rotate(-30)" fill="#fff" fill-rule="evenodd" opacity="0.086"/>
  <path id="Tracé_442" data-name="Tracé 442" d="M4.929.4,58.508,29.063a4.925,4.925,0,0,1,0,8.686L4.925,66.412a3.347,3.347,0,0,1-4.8-3.855l5.931-21.15,24.843-8-24.844-8.1L.129,4.253A3.346,3.346,0,0,1,4.929.4Z" transform="translate(324.957 301.826) rotate(-30)" fill="#fff" fill-rule="evenodd" opacity="0.206"/>
  <path id="Tracé_443" data-name="Tracé 443" d="M7.712.619l83.84,44.858a7.707,7.707,0,0,1,0,13.591L7.706,103.92A5.237,5.237,0,0,1,.194,97.888l9.281-33.1L48.35,52.271,9.474,39.6.2,6.655A5.236,5.236,0,0,1,7.712.619Z" transform="translate(195.091 230.149) rotate(-30)" fill="#fff" fill-rule="evenodd" opacity="0.206"/>
  <path id="Tracé_444" data-name="Tracé 444" d="M13.333,1.071,158.269,78.619a13.323,13.323,0,0,1,0,23.5L13.322,179.651A9.054,9.054,0,0,1,.336,169.222L16.38,112.01l67.2-21.647-67.206-21.9L.35,11.5A9.051,9.051,0,0,1,13.333,1.071Z" transform="translate(0 377.173) rotate(-30)" fill="#fff" fill-rule="evenodd" opacity="0.286"/>
  <path id="Tracé_445" data-name="Tracé 445" d="M3.76.3,44.633,22.171a3.757,3.757,0,0,1,0,6.626L3.757,50.663A2.553,2.553,0,0,1,.095,47.722L4.619,31.587l18.952-6.1L4.619,19.307.1,3.244A2.552,2.552,0,0,1,3.76.3Z" transform="translate(154.177 304.785) rotate(-30)" fill="#fff" fill-rule="evenodd" opacity="0.286"/>
  <path id="Tracé_446" data-name="Tracé 446" d="M7.753.623,92.03,45.715a7.747,7.747,0,0,1,0,13.662L7.747,104.463A5.264,5.264,0,0,1,.2,98.4L9.525,65.131,48.6,52.544,9.523,39.81.2,6.689A5.263,5.263,0,0,1,7.753.623Z" transform="translate(206.68 354.291) rotate(-30)" fill="#fff" fill-rule="evenodd" opacity="0.216"/>
</svg>
