<svg id="Composant_17_2" data-name="Composant 17 – 2" xmlns="http://www.w3.org/2000/svg" width="564.951" height="526.111" viewBox="0 0 564.951 526.111">
  <g id="Groupe_266" data-name="Groupe 266" transform="translate(294.412 -25.7)">
    <path id="Tracé_412" data-name="Tracé 412" d="M94.689,31.214c-4.835.6-7.856,2.417-10.274,6.648-3.626,7.252-7.856,14.5-11.482,21.756-2.417,4.835-4.835,9.669-7.856,14.5-.6-1.209-.6-1.813-1.209-2.417-6.043-12.087-12.691-24.173-18.734-36.26-1.813-3.626-8.461-6.043-12.087-4.23C28.213,33.632,26.4,37.258,26.4,42.092V107.36h6.648c6.043,0,8.461-2.417,8.461-8.461V57.8a8.342,8.342,0,0,1,1.813,2.417c4.835,9.669,10.274,19.338,15.108,29.008,1.813,4.23,4.23,6.043,8.461,5.439,1.813,0,2.417-.6,3.626-2.417C75.955,81.374,82,70.5,87.437,59.618c0-.6.6-1.209,1.209-1.813a3.634,3.634,0,0,1,.6,2.417V98.9c0,4.23,2.417,7.856,6.043,8.461,3.022.6,6.043,0,9.065,0v-70.1C103.754,33.632,99.524,30.61,94.689,31.214Z" transform="translate(64.049 24.702)" fill="#fff"/>
    <path id="Tracé_413" data-name="Tracé 413" d="M42.708,30.7H25.182C17.93,30.7,13.7,34.93,13.7,42.787v65.267H43.916c10.274-.6,19.943-4.23,26.59-12.087s8.461-16.921,8.461-26.59c0-8.461-1.813-16.317-6.648-23.569C65.068,34.93,54.794,31.3,42.708,30.7ZM63.859,74.212c-1.813,7.856-4.835,14.5-13.3,18.13A21.328,21.328,0,0,1,42.1,94.154h-13.3V47.621c0-3.626.6-4.23,4.23-4.23H44.521C55.4,44.6,62.65,51.247,63.859,62.125,63.859,66.355,64.463,70.586,63.859,74.212Z" transform="translate(0 25.216)" fill="#fff"/>
    <path id="Tracé_414" data-name="Tracé 414" d="M83.094,58.5c-.6,6.648-4.23,10.274-10.878,10.274H57.108V45.808C57.108,44,58.317,44,59.525,44H75.238V30.7H55.9C48.043,31.3,42,35.535,42,44v63.454h7.252c4.835.6,7.856-2.417,7.856-7.856V81.463H73.425C86.116,82.068,96.389,73,98.2,60.312c.6-1.813,0-3.626.6-6.043H83.7A8.96,8.96,0,0,1,83.094,58.5Z" transform="translate(142.724 25.216)" fill="#fff"/>
    <path id="Tracé_415" data-name="Tracé 415" d="M58.055,53.586a116.015,116.015,0,0,0,8.461-9.065l9.065-9.065c1.209-1.209,1.813-3.022.6-5.439C75.58,28.2,73.767,27.6,71.35,27.6c-.6.6-1.813.6-3.022,1.813C62.889,35.456,56.846,41.5,51.407,46.938a5.5,5.5,0,0,0-.6,6.648A5.514,5.514,0,0,0,58.055,53.586Z" transform="translate(182.872 9.582)" fill="#fff"/>
    <path id="Tracé_416" data-name="Tracé 416" d="M52.935,60.147c2.417,0,4.23-2.417,4.23-4.835V30.535c0-3.022-1.813-4.835-4.23-4.835A4.767,4.767,0,0,0,48.1,30.535V55.312A4.448,4.448,0,0,0,52.935,60.147Z" transform="translate(173.488 0)" fill="#fff"/>
    <path id="Tracé_417" data-name="Tracé 417" d="M84.947,38.543V35.522a4.544,4.544,0,0,0-4.23-3.022H54.73a4.23,4.23,0,0,0,0,8.461H80.716c1.813,0,3.022-.6,3.626-2.417h0C84.342,39.148,84.342,38.543,84.947,38.543Z" transform="translate(185.592 34.294)" fill="#fff"/>
  </g>
  <path id="Tracé_421" data-name="Tracé 421" d="M56.707,49.26A96.7,96.7,0,0,0,63.76,41.7l7.556-7.556a3.635,3.635,0,0,0,.5-4.534c-.5-1.511-2.015-2.015-4.03-2.015-.5.5-1.511.5-2.519,1.511-4.534,5.037-9.571,10.075-14.1,14.608a4.581,4.581,0,0,0-.5,5.541A4.6,4.6,0,0,0,56.707,49.26Z" transform="translate(195.412 194.053)" fill="#fff" opacity="0.178"/>
  <path id="Tracé_424" data-name="Tracé 424" d="M61.271,63.913A162.119,162.119,0,0,0,73.094,51.245L85.761,38.578c1.689-1.689,2.533-4.222.844-7.6-.844-2.533-3.378-3.378-6.756-3.378-.844.844-2.533.844-4.222,2.533-7.6,8.445-16.045,16.89-23.645,24.49a7.68,7.68,0,0,0-.844,9.289Q56.2,67.713,61.271,63.913Z" transform="translate(271.752 323.15)" fill="#fff" opacity="0.178"/>
  <path id="Tracé_427" data-name="Tracé 427" d="M64.615,74.646A210.041,210.041,0,0,0,79.932,58.235L96.343,41.823c2.188-2.188,3.282-5.47,1.094-9.847-1.094-3.282-4.376-4.376-8.753-4.376-1.094,1.094-3.282,1.094-5.47,3.282C73.367,41.823,62.426,52.764,52.58,62.611a9.95,9.95,0,0,0-1.094,12.035Q58.05,79.57,64.615,74.646Z" transform="translate(161.396 271.837)" fill="#fff" opacity="0.43"/>
  <path id="Tracé_430" data-name="Tracé 430" d="M62.987,69.422A186.716,186.716,0,0,0,76.6,54.833L91.192,40.244c1.945-1.945,2.918-4.863.973-8.753-.973-2.918-3.89-3.89-7.781-3.89-.973.973-2.918.973-4.863,2.918C70.768,40.244,61.042,49.97,52.289,58.723a8.845,8.845,0,0,0-.973,10.7Q57.152,73.8,62.987,69.422Z" transform="translate(159.135 395.29)" fill="#fff" opacity="0.43"/>
  <path id="Tracé_433" data-name="Tracé 433" d="M56.747,49.387a97.273,97.273,0,0,0,7.093-7.6l7.6-7.6a3.657,3.657,0,0,0,.507-4.56c-.507-1.52-2.027-2.027-4.053-2.027-.507.507-1.52.507-2.533,1.52-4.56,5.067-9.627,10.134-14.187,14.694a4.608,4.608,0,0,0-.507,5.574A4.623,4.623,0,0,0,56.747,49.387Z" transform="translate(96.467 334.872)" fill="#fff" opacity="0.43"/>
  <path id="Tracé_436" data-name="Tracé 436" d="M77.9,117.3c10.43-10.43,20.86-20.861,29.2-31.291l31.29-31.291c4.172-4.172,6.258-10.43,2.086-18.774-2.086-6.258-8.344-8.344-16.688-8.344-2.086,2.086-6.258,2.086-10.43,6.258-18.774,20.86-39.634,41.721-58.408,60.5C48.7,100.612,48.7,111.042,52.868,117.3Q65.384,126.687,77.9,117.3Z" transform="translate(-11.148 370.541)" fill="#fff" opacity="0.43"/>
  <path id="Tracé_422" data-name="Tracé 422" d="M52.13,54.413c2.015,0,3.526-2.015,3.526-4.03V29.73c0-2.519-1.511-4.03-3.526-4.03a3.973,3.973,0,0,0-4.03,4.03V50.383A3.707,3.707,0,0,0,52.13,54.413Z" transform="translate(187.9 185.549)" fill="#fff" opacity="0.178"/>
  <path id="Tracé_425" data-name="Tracé 425" d="M54.856,73.835c3.378,0,5.911-3.378,5.911-6.756V32.456c0-4.222-2.533-6.756-5.911-6.756A6.661,6.661,0,0,0,48.1,32.456V67.079C48.1,71.3,50.633,73.835,54.856,73.835Z" transform="translate(257.9 307.608)" fill="#fff" opacity="0.178"/>
  <path id="Tracé_428" data-name="Tracé 428" d="M56.853,88.064c4.376,0,7.659-4.376,7.659-8.753V34.453c0-5.471-3.282-8.753-7.659-8.753A8.63,8.63,0,0,0,48.1,34.453V79.311C48.1,84.782,51.382,88.064,56.853,88.064Z" transform="translate(142.9 251.139)" fill="#fff" opacity="0.43"/>
  <path id="Tracé_431" data-name="Tracé 431" d="M55.881,81.138c3.89,0,6.808-3.89,6.808-7.781V33.481c0-4.863-2.918-7.781-6.808-7.781A7.671,7.671,0,0,0,48.1,33.481V73.358C48.1,78.221,51.018,81.138,55.881,81.138Z" transform="translate(142.9 377.102)" fill="#fff" opacity="0.43"/>
  <path id="Tracé_434" data-name="Tracé 434" d="M52.153,54.581c2.027,0,3.547-2.027,3.547-4.053V29.753c0-2.533-1.52-4.053-3.547-4.053A4,4,0,0,0,48.1,29.753V50.528A3.729,3.729,0,0,0,52.153,54.581Z" transform="translate(88.9 326.307)" fill="#fff" opacity="0.43"/>
  <path id="Tracé_437" data-name="Tracé 437" d="M64.788,144.6c8.344,0,14.6-8.344,14.6-16.688V42.388c0-10.43-6.258-16.688-14.6-16.688A16.453,16.453,0,0,0,48.1,42.388v85.528C48.1,138.347,54.358,144.6,64.788,144.6Z" transform="translate(-48.1 329.355)" fill="#fff" opacity="0.43"/>
  <g id="Groupe_267" data-name="Groupe 267" transform="translate(-8)">
    <path id="Tracé_418" data-name="Tracé 418" d="M77.892,117.272c10.427-10.427,20.854-20.854,29.2-31.281L138.368,54.71c4.171-4.171,6.256-10.427,2.085-18.768-2.085-6.256-8.341-8.342-16.683-8.342-2.085,2.085-6.256,2.085-10.427,6.256C94.575,54.71,73.721,75.564,54.953,94.332c-6.256,6.256-6.256,16.683-2.085,22.939Q65.38,126.656,77.892,117.272Z" transform="translate(324.84 164.026)" fill="#fff"/>
    <path id="Tracé_419" data-name="Tracé 419" d="M64.783,144.567c8.341,0,14.6-8.342,14.6-16.683v-85.5c0-10.427-6.256-16.683-14.6-16.683A16.448,16.448,0,0,0,48.1,42.383v85.5C48.1,138.311,54.356,144.567,64.783,144.567Z" transform="translate(287.9 122.853)" fill="#fff"/>
    <path id="Tracé_420" data-name="Tracé 420" d="M169.366,53.354V42.927a15.682,15.682,0,0,0-14.6-10.427H65.1A14.254,14.254,0,0,0,50.5,47.1,14.254,14.254,0,0,0,65.1,61.7h89.671c6.256,0,10.427-2.085,12.512-8.342h0C167.281,55.439,167.281,53.354,169.366,53.354Z" transform="translate(335.549 257.86)" fill="#fff"/>
  </g>
  <path id="Tracé_423" data-name="Tracé 423" d="M79.212,37.537V35.019A3.788,3.788,0,0,0,75.686,32.5H54.026a3.526,3.526,0,0,0,0,7.052h21.66a2.762,2.762,0,0,0,3.022-2.015h0C78.709,38.041,78.709,37.537,79.212,37.537Z" transform="translate(197.59 213.003)" fill="#fff" opacity="0.178"/>
  <path id="Tracé_426" data-name="Tracé 426" d="M98.635,40.945V36.722A6.35,6.35,0,0,0,92.723,32.5H56.411a5.911,5.911,0,0,0,0,11.823H92.723c2.533,0,4.222-.844,5.067-3.378h0C97.79,41.789,97.79,40.945,98.635,40.945Z" transform="translate(275.767 358.232)" fill="#fff" opacity="0.178"/>
  <path id="Tracé_429" data-name="Tracé 429" d="M112.863,43.441V37.97A8.228,8.228,0,0,0,105.2,32.5H58.159a7.659,7.659,0,0,0,0,15.317H105.2c3.282,0,5.47-1.094,6.565-4.376h0C111.769,44.535,111.769,43.441,112.863,43.441Z" transform="translate(166.758 318.738)" fill="#fff" opacity="0.43"/>
  <path id="Tracé_432" data-name="Tracé 432" d="M105.938,42.226V37.363A7.314,7.314,0,0,0,99.129,32.5H57.308a6.808,6.808,0,0,0,0,13.616H99.129c2.918,0,4.863-.973,5.836-3.89h0C104.965,43.2,104.965,42.226,105.938,42.226Z" transform="translate(163.842 436.438)" fill="#fff" opacity="0.43"/>
  <path id="Tracé_435" data-name="Tracé 435" d="M79.381,37.567V35.033A3.81,3.81,0,0,0,75.834,32.5H54.047a3.547,3.547,0,0,0,0,7.094H75.834a2.778,2.778,0,0,0,3.04-2.027h0C78.874,38.074,78.874,37.567,79.381,37.567Z" transform="translate(98.66 353.961)" fill="#fff" opacity="0.43"/>
  <path id="Tracé_438" data-name="Tracé 438" d="M169.4,53.36V42.93A15.687,15.687,0,0,0,154.8,32.5H65.1A14.259,14.259,0,0,0,50.5,47.1,14.259,14.259,0,0,0,65.1,61.7h89.7c6.258,0,10.43-2.086,12.516-8.344h0C167.316,55.447,167.316,53.36,169.4,53.36Z" transform="translate(-0.436 464.407)" fill="#fff" opacity="0.43"/>
</svg>
