<svg id="Composant_18_1" data-name="Composant 18 – 1" xmlns="http://www.w3.org/2000/svg" width="507.153" height="553.002" viewBox="0 0 507.153 553.002">
  <path id="Tracé_96" data-name="Tracé 96" d="M144.742,157.843H32.831C16.416,157.843,0,151.214,0,131.484V19.73C0,0,0,0,19.73,0h98.652V131.484H13.1c0,9.786,6.629,13.1,13.1,13.1H131.484V13.1l13.1,13.1V157.843ZM94.233,52.4H72.292V30.622H52.72V52.4H30.779v19.73H52.562V93.917h19.73V72.134H94.075V52.4Z" transform="translate(321.443 151.494)" fill="#fff"/>
  <path id="Tracé_403" data-name="Tracé 403" d="M38.92,42.443H8.828C4.414,42.443,0,40.661,0,35.355V5.305C0,0,0,0,5.305,0H31.832V35.355H3.523a3.241,3.241,0,0,0,3.523,3.523h28.31V3.523l3.523,3.523v35.4ZM25.339,14.091h-5.9V8.234H14.176v5.857h-5.9V19.4h5.857v5.857h5.305V19.4H25.3V14.091Z" transform="translate(234.443 198.895)" fill="#fff" opacity="0.07"/>
  <path id="Tracé_404" data-name="Tracé 404" d="M57.782,63.012H13.107C6.553,63.012,0,60.366,0,52.489V7.877C0,0,0,0,7.877,0H47.259V52.489H5.23c0,3.907,2.647,5.23,5.23,5.23H52.489V5.23l5.23,5.23V63.012ZM37.618,20.92H28.86v-8.7H21.046v8.7H12.287V28.8h8.7v8.7H28.86V28.8h8.7V20.92Z" transform="translate(300.443 339.325)" fill="#fff" opacity="0.17"/>
  <path id="Tracé_405" data-name="Tracé 405" d="M22.071,24.069H5.006C2.5,24.069,0,23.058,0,20.049V3.009C0,0,0,0,3.009,0H18.052V20.049H2a1.838,1.838,0,0,0,2,2H20.049V2l2,2V24.069Zm-7.7-16.078H11.024V4.669H8.039V7.991H4.693V11H8.015v3.322h3.009V11h3.322V7.991Z" transform="translate(289.443 286.269)" fill="#fff" opacity="0.09"/>
  <path id="Tracé_406" data-name="Tracé 406" d="M79.706,86.92H18.079C9.04,86.92,0,83.27,0,72.4V10.865C0,0,0,0,10.865,0H65.19V72.4H7.214c0,5.389,3.651,7.214,7.214,7.214H72.4V7.214l7.214,7.214V86.92ZM51.892,28.858H39.81v-12H29.031v12H16.949V39.723h12v12H39.81v-12h12V28.858Z" transform="translate(190.443 265.417)" fill="#fff" opacity="0.264"/>
  <path id="Tracé_407" data-name="Tracé 407" d="M86.86,94.722H19.7C9.851,94.722,0,90.743,0,78.9V11.84C0,0,0,0,11.84,0h59.2V78.9H7.862c0,5.873,3.978,7.862,7.862,7.862H78.9V7.862l7.862,7.862v79ZM56.549,31.448H43.383V18.376H31.637V31.448H18.471v11.84H31.542V56.359h11.84V43.288H56.454V31.448Z" transform="translate(182.866 381.417)" fill="#fff" opacity="0.264"/>
  <path id="Tracé_408" data-name="Tracé 408" d="M154.592,168.585H35.066C17.533,168.585,0,161.5,0,140.431V21.073C0,0,0,0,21.073,0H126.439V140.431H13.993c0,10.452,7.081,13.993,13.993,13.993H140.431V13.993l13.993,13.993v140.6ZM100.645,55.97H77.212V32.706h-20.9V55.97H32.874V77.043H56.139v23.265H77.212V77.043h23.265V55.97Z" transform="translate(0 384.417)" fill="#fff" opacity="0.13"/>
  <path id="Tracé_409" data-name="Tracé 409" d="M42.8,46.677H9.709c-4.854,0-9.709-1.96-9.709-7.8V5.835C0,0,0,0,5.835,0H35.008V38.882H3.874a3.564,3.564,0,0,0,3.874,3.874H38.882V3.874l3.874,3.874V46.677ZM27.866,15.5H21.378V9.055H15.59V15.5H9.1v5.835h6.441v6.441h5.835V21.331h6.441V15.5Z" transform="translate(133.135 339.325)" fill="#fff" opacity="0.171"/>

</svg>
