<?xml version="1.0" encoding="utf-8"?>
<!-- Generator: Adobe Illustrator 25.1.0, SVG Export Plug-In . SVG Version: 6.00 Build 0)  -->
<svg version="1.1" id="Composant_17_1" xmlns="http://www.w3.org/2000/svg" xmlns:xlink="http://www.w3.org/1999/xlink" x="0px"
	 y="0px" viewBox="0 0 494.1 559" style="enable-background:new 0 0 494.1 559;" xml:space="preserve">
<style type="text/css">
	.st0{opacity:0.95;}
	.st1{fill:#FFFFFF;}
	.st2{opacity:0.5;fill:#FFFFFF;enable-background:new    ;}
	.st3{opacity:0.8;fill:#FFFFFF;enable-background:new    ;}
	.st4{opacity:0.5;}
	.st5{opacity:0.71;}
	.st6{opacity:0.9;}
	.st7{opacity:0.55;}
</style>
<g id="Groupe_275" transform="translate(-389.421 -284.835)" class="st0">
	<g id="Groupe_273" transform="translate(406.83 302.214)">
		<path id="Tracé_478" class="st1" d="M65.2,435.8c-11.6,0.5-20.6,10.2-20.2,21.8v62.2c-0.4,11.6,8.6,21.3,20.2,21.8h99.5
			c11.6-0.5,20.6-10.2,20.2-21.8v-62.2c0.4-11.6-8.6-21.3-20.2-21.8H65.2z M65.2,445.2H94c-3.6,5-5.6,11-5.5,17.1v3.2
			c-0.5-0.1-1-0.1-1.6-0.1H54.3v-7.8c-0.5-6.4,4.4-12,10.8-12.5C65.1,445.2,65.1,445.2,65.2,445.2z M111.8,445.2h6.2
			c7.5,0,14,6.8,14,17.1v8.1c-0.1,0.2-0.3,0.3-0.4,0.5c-2.9,3.8-4.4,8.4-4.2,13.2v7.8c-0.1,4.7,1.3,9.4,4.2,13.2
			c0.1,0.2,0.3,0.3,0.4,0.5v9.7c0,10.3-6.5,17.1-14,17.1h-6.2c-7.5,0-14-6.8-14-17.1v-9.7c0.1-0.2,0.3-0.3,0.4-0.5
			c2.9-3.8,4.4-8.4,4.2-13.2V484c0.1-4.7-1.3-9.4-4.2-13.2c-0.1-0.2-0.3-0.3-0.4-0.5v-8.1C97.8,452,104.3,445.2,111.8,445.2
			L111.8,445.2z M135.8,445.2h28.9c6.4,0.4,11.3,5.9,10.9,12.3c0,0,0,0.1,0,0.1v7.8h-32.7c-0.5,0-1,0-1.6,0.1v-3.2
			C141.4,456.1,139.5,450.1,135.8,445.2L135.8,445.2z M54.3,474.7h32.7c1.6,0,3.1,0.7,4.1,2c1.5,2.1,2.3,4.7,2.1,7.3v7.8
			c0.1,2.6-0.6,5.2-2.1,7.3c-0.9,1.3-2.5,2.1-4.1,2H54.3V474.7z M142.9,474.7h32.7v26.4h-32.7c-1.6,0-3.1-0.7-4.1-2
			c-1.5-2.1-2.3-4.7-2.1-7.3V484c-0.1-2.6,0.6-5.2,2.1-7.3C139.8,475.4,141.3,474.7,142.9,474.7z M88.5,510.4v4.8
			c0,6.1,1.9,12.1,5.5,17.1H65.2c-6.4-0.4-11.3-5.9-10.9-12.3c0,0,0-0.1,0-0.1v-9.3h32.7C87.5,510.5,88,510.5,88.5,510.4L88.5,510.4
			z M141.4,510.4c0.5,0.1,1,0.1,1.6,0.1h32.7v9.3c0.5,6.4-4.4,12-10.8,12.4c0,0-0.1,0-0.1,0h-28.8c3.6-5,5.5-11,5.5-17.1V510.4z"/>
	</g>
	<g id="Groupe_274" transform="translate(389.421 284.835)">
		<path id="Tracé_479" class="st1" d="M71.2,442.8h7.9c-4.7-8.8-15-13-24.5-9.8c-6,2-10.7,6.7-12.6,12.6
			c-3.4,10.1,1.5,21.1,11.4,25.2v-7.4c-5.4-3.8-7.4-10.9-4.7-16.9c1.6-3.6,4.7-6.4,8.5-7.5C62.2,437.5,67.6,439,71.2,442.8z"/>
		<path id="Tracé_480" class="st2" d="M115.1,442.8h6.6c-5.2-33.4-36.5-56.3-69.9-51.1c-33.4,5.2-56.3,36.5-51.1,69.9
			c4.2,26.9,25.6,47.8,52.6,51.3v-6.6c-29.9-4.3-50.6-32.1-46.3-62c4.3-29.9,32.1-50.6,62-46.3C92.4,401.5,111,419.5,115.1,442.8z"
			/>
		<path id="Tracé_481" class="st3" d="M94.3,442.8h6.7C96.7,424.1,80,411,60.8,411.3c-22.6,0.2-40.8,18.7-40.5,41.3
			c0.2,19.4,14,36.1,33.1,39.8v-6.7c-18.5-4.3-30-22.8-25.7-41.4c4.3-18.5,22.8-30,41.4-25.7C81.2,421.5,90.9,430.7,94.3,442.8
			L94.3,442.8z"/>
	</g>
</g>
<g id="Groupe_275_1_" transform="translate(-389.421 -284.835)" class="st4">
	<g id="Groupe_273_1_" transform="translate(406.83 302.214)">
		<path id="Tracé_478_1_" class="st1" d="M164.6,333.8c-6.9,0.3-12.2,6-12,12.9v36.9c-0.2,6.9,5.1,12.6,12,12.9h59
			c6.9-0.3,12.2-6,12-12.9v-36.9c0.2-6.9-5.1-12.6-12-12.9H164.6z M164.6,339.4h17.1c-2.2,2.9-3.3,6.5-3.3,10.1v1.9
			c-0.3,0-0.6-0.1-0.9-0.1h-19.4v-4.6C157.8,343,160.7,339.7,164.6,339.4C164.5,339.4,164.5,339.4,164.6,339.4z M192.2,339.4h3.7
			c4.5,0,8.3,4,8.3,10.1v4.8c-0.1,0.1-0.2,0.2-0.3,0.3c-1.7,2.2-2.6,5-2.5,7.8v4.6c-0.1,2.8,0.8,5.6,2.5,7.8
			c0.1,0.1,0.2,0.2,0.3,0.3v5.7c0,6.1-3.8,10.1-8.3,10.1h-3.7c-4.5,0-8.3-4-8.3-10.1v-5.7c0.1-0.1,0.2-0.2,0.3-0.3
			c1.7-2.2,2.6-5,2.5-7.8v-4.6c0.1-2.8-0.8-5.6-2.5-7.8c-0.1-0.1-0.2-0.2-0.3-0.3v-4.8C183.9,343.4,187.8,339.4,192.2,339.4
			L192.2,339.4z M206.5,339.4h17.1c3.8,0.2,6.7,3.5,6.5,7.3c0,0,0,0,0,0.1v4.6h-19.4c-0.3,0-0.6,0-0.9,0.1v-1.9
			C209.8,345.9,208.6,342.3,206.5,339.4L206.5,339.4z M158.1,356.9h19.4c1,0,1.9,0.4,2.4,1.2c0.9,1.3,1.4,2.8,1.3,4.3v4.6
			c0.1,1.5-0.4,3.1-1.3,4.3c-0.6,0.8-1.5,1.2-2.4,1.2h-19.4V356.9z M210.7,356.9H230v15.7h-19.4c-1,0-1.9-0.4-2.4-1.2
			c-0.9-1.3-1.4-2.8-1.3-4.3v-4.6c-0.1-1.5,0.4-3.1,1.3-4.3C208.8,357.3,209.7,356.9,210.7,356.9z M178.4,378v2.8
			c0,3.6,1.1,7.2,3.3,10.1h-17.1c-3.8-0.2-6.7-3.5-6.5-7.3c0,0,0,0,0-0.1v-5.5h19.4C177.8,378.1,178.1,378.1,178.4,378L178.4,378z
			 M209.7,378c0.3,0,0.6,0.1,0.9,0.1H230v5.5c0.3,3.8-2.6,7.1-6.4,7.4c0,0,0,0-0.1,0h-17.1c2.1-2.9,3.3-6.5,3.3-10.1V378z"/>
	</g>
	<g id="Groupe_274_1_" transform="translate(389.421 284.835)">
		<path id="Tracé_479_1_" class="st1" d="M175.2,345h4.7c-2.8-5.2-8.9-7.7-14.5-5.8c-3.5,1.2-6.3,3.9-7.5,7.5
			c-2,6,0.9,12.5,6.7,14.9v-4.4c-3.2-2.2-4.4-6.4-2.8-10c0.9-2.1,2.8-3.8,5-4.5C169.9,341.9,173.1,342.8,175.2,345z"/>
		<path id="Tracé_480_1_" class="st2" d="M201.2,345h3.9c-3.1-19.8-21.6-33.3-41.4-30.3c-19.8,3.1-33.3,21.6-30.3,41.4
			c2.5,15.9,15.2,28.3,31.2,30.4v-3.9c-17.7-2.6-30-19-27.4-36.7c2.6-17.7,19-30,36.7-27.4C187.8,320.6,198.8,331.3,201.2,345z"/>
		<path id="Tracé_481_1_" class="st3" d="M188.9,345h4c-2.6-11-12.5-18.8-23.8-18.7c-13.4,0.1-24.2,11.1-24,24.5
			c0.1,11.5,8.3,21.4,19.6,23.6v-4c-11-2.6-17.8-13.5-15.2-24.5c2.6-11,13.5-17.8,24.5-15.2C181.2,332.5,186.9,337.9,188.9,345
			L188.9,345z"/>
	</g>
</g>
<g id="Groupe_275_2_" transform="translate(-389.421 -284.835)" class="st5">
	<g id="Groupe_273_2_" transform="translate(406.83 302.214)">
		<path id="Tracé_478_2_" class="st1" d="M274.7,447.5c-5.2,0.2-9.3,4.6-9.1,9.8v27.9c-0.2,5.2,3.9,9.6,9.1,9.8h44.7
			c5.2-0.2,9.3-4.6,9.1-9.8v-27.9c0.2-5.2-3.9-9.6-9.1-9.8H274.7z M274.7,451.6h13c-1.6,2.2-2.5,4.9-2.5,7.7v1.4c-0.2,0-0.5,0-0.7,0
			h-14.7v-3.5C269.6,454.4,271.8,451.9,274.7,451.6C274.7,451.6,274.7,451.6,274.7,451.6z M295.7,451.6h2.8c3.4,0,6.3,3.1,6.3,7.7
			v3.6c-0.1,0.1-0.1,0.1-0.2,0.2c-1.3,1.7-2,3.8-1.9,5.9v3.5c-0.1,2.1,0.6,4.2,1.9,5.9c0.1,0.1,0.1,0.1,0.2,0.2v4.3
			c0,4.6-2.9,7.7-6.3,7.7h-2.8c-3.4,0-6.3-3.1-6.3-7.7v-4.3c0.1-0.1,0.1-0.1,0.2-0.2c1.3-1.7,2-3.8,1.9-5.9v-3.5
			c0.1-2.1-0.6-4.2-1.9-5.9c-0.1-0.1-0.1-0.1-0.2-0.2v-3.6C289.4,454.7,292.3,451.6,295.7,451.6L295.7,451.6z M306.5,451.6h13
			c2.9,0.2,5.1,2.7,4.9,5.5c0,0,0,0,0,0.1v3.5h-14.7c-0.2,0-0.5,0-0.7,0v-1.4C309,456.6,308.1,453.9,306.5,451.6L306.5,451.6z
			 M269.8,464.9h14.7c0.7,0,1.4,0.3,1.8,0.9c0.7,0.9,1,2.1,1,3.3v3.5c0.1,1.2-0.3,2.3-1,3.3c-0.4,0.6-1.1,0.9-1.8,0.9h-14.7V464.9z
			 M309.6,464.9h14.7v11.9h-14.7c-0.7,0-1.4-0.3-1.8-0.9c-0.7-0.9-1-2.1-1-3.3v-3.5c-0.1-1.2,0.3-2.3,1-3.3
			C308.2,465.2,308.9,464.9,309.6,464.9z M285.2,480.9v2.1c0,2.8,0.8,5.5,2.5,7.7h-12.9c-2.9-0.2-5.1-2.7-4.9-5.5c0,0,0,0,0,0V481
			h14.7C284.7,481,285,481,285.2,480.9L285.2,480.9z M308.9,480.9c0.2,0,0.5,0,0.7,0h14.7v4.2c0.2,2.9-2,5.4-4.8,5.6c0,0,0,0-0.1,0
			h-12.9c1.6-2.2,2.5-4.9,2.5-7.7V480.9z"/>
	</g>
	<g id="Groupe_274_2_" transform="translate(389.421 284.835)">
		<path id="Tracé_479_2_" class="st1" d="M287,460.1h3.6c-2.1-4-6.7-5.8-11-4.4c-2.7,0.9-4.8,3-5.7,5.7c-1.5,4.5,0.7,9.5,5.1,11.3
			v-3.3c-2.4-1.7-3.3-4.9-2.1-7.6c0.7-1.6,2.1-2.9,3.8-3.4C283,457.8,285.4,458.4,287,460.1z"/>
		<path id="Tracé_480_2_" class="st2" d="M306.7,460.1h3c-2.3-15-16.4-25.3-31.4-22.9c-15,2.3-25.3,16.4-22.9,31.4
			c1.9,12.1,11.5,21.5,23.6,23v-3c-13.4-1.9-22.7-14.4-20.8-27.8c1.9-13.4,14.4-22.7,27.8-20.8C296.6,441.6,304.9,449.7,306.7,460.1
			z"/>
		<path id="Tracé_481_2_" class="st3" d="M297.4,460.1h3c-2-8.4-9.5-14.2-18.1-14.1c-10.1,0.1-18.3,8.4-18.2,18.6
			c0.1,8.7,6.3,16.2,14.9,17.9v-3c-8.3-1.9-13.5-10.3-11.5-18.6c1.9-8.3,10.3-13.5,18.6-11.5C291.5,450.6,295.9,454.7,297.4,460.1
			L297.4,460.1z"/>
	</g>
</g>
<g id="Groupe_275_3_" transform="translate(-389.421 -284.835)" class="st6">
	<g id="Groupe_273_3_" transform="translate(406.83 302.214)">
		<path id="Tracé_478_3_" class="st1" d="M338.3,335.3c-7.8,0.3-13.9,6.9-13.6,14.7v41.9c-0.3,7.8,5.8,14.4,13.6,14.7h67.1
			c7.8-0.3,13.9-6.9,13.6-14.7V350c0.3-7.8-5.8-14.4-13.6-14.7H338.3z M338.3,341.6h19.5c-2.5,3.3-3.8,7.4-3.7,11.5v2.2
			c-0.3,0-0.7-0.1-1-0.1h-22V350C330.6,345.7,333.9,341.9,338.3,341.6C338.2,341.6,338.2,341.6,338.3,341.6z M369.7,341.6h4.2
			c5.1,0,9.4,4.6,9.4,11.5v5.5c-0.1,0.1-0.2,0.2-0.3,0.3c-1.9,2.5-2.9,5.7-2.9,8.9v5.2c-0.1,3.2,0.9,6.3,2.9,8.9
			c0.1,0.1,0.2,0.2,0.3,0.3v6.5c0,7-4.4,11.5-9.4,11.5h-4.2c-5.1,0-9.4-4.6-9.4-11.5v-6.5c0.1-0.1,0.2-0.2,0.3-0.3
			c1.9-2.5,3-5.7,2.9-8.9v-5.2c0.1-3.2-0.9-6.3-2.9-8.9c-0.1-0.1-0.2-0.2-0.3-0.3v-5.5C360.3,346.2,364.7,341.6,369.7,341.6
			L369.7,341.6z M385.9,341.6h19.4c4.3,0.3,7.6,4,7.3,8.3c0,0,0,0.1,0,0.1v5.2h-22c-0.3,0-0.7,0-1,0.1v-2.2
			C389.7,349,388.4,344.9,385.9,341.6L385.9,341.6z M330.9,361.5h22c1.1,0,2.1,0.5,2.8,1.4c1,1.4,1.5,3.2,1.4,4.9v5.2
			c0.1,1.8-0.4,3.5-1.4,4.9c-0.6,0.9-1.7,1.4-2.8,1.4h-22V361.5z M390.7,361.5h22v17.8h-22c-1.1,0-2.1-0.5-2.8-1.4
			c-1-1.4-1.5-3.2-1.4-4.9v-5.3c-0.1-1.8,0.4-3.5,1.4-4.9C388.6,362,389.6,361.5,390.7,361.5z M354,385.6v3.2
			c0,4.1,1.3,8.2,3.7,11.5h-19.4c-4.3-0.3-7.6-4-7.3-8.3c0,0,0,0,0-0.1v-6.3h22C353.3,385.6,353.7,385.6,354,385.6L354,385.6z
			 M389.6,385.6c0.3,0,0.7,0.1,1,0.1h22v6.3c0.3,4.3-2.9,8.1-7.3,8.4c0,0-0.1,0-0.1,0h-19.4c2.4-3.3,3.7-7.4,3.7-11.5V385.6z"/>
	</g>
	<g id="Groupe_274_3_" transform="translate(389.421 284.835)">
		<path id="Tracé_479_3_" class="st1" d="M348,345.6h5.4c-3.1-5.9-10.1-8.7-16.5-6.6c-4,1.3-7.2,4.5-8.5,8.5
			c-2.3,6.8,1,14.2,7.7,17v-5c-3.6-2.5-5-7.3-3.2-11.4c1.1-2.4,3.2-4.3,5.7-5.1C341.9,342.1,345.6,343.1,348,345.6z"/>
		<path id="Tracé_480_3_" class="st2" d="M377.6,345.6h4.5c-3.5-22.5-24.6-37.9-47.1-34.4c-22.5,3.5-37.9,24.6-34.4,47.1
			c2.8,18.1,17.3,32.2,35.5,34.6v-4.4c-20.1-2.9-34.1-21.6-31.2-41.8s21.6-34.1,41.8-31.2C362.3,317.8,374.8,330,377.6,345.6z"/>
		<path id="Tracé_481_3_" class="st3" d="M363.6,345.6h4.5c-2.9-12.6-14.2-21.4-27.1-21.2c-15.2,0.1-27.5,12.6-27.3,27.9
			c0.1,13.1,9.4,24.3,22.3,26.8v-4.5c-12.5-2.9-20.2-15.4-17.3-27.9c2.9-12.5,15.4-20.2,27.9-17.3
			C354.8,331.3,361.3,337.5,363.6,345.6L363.6,345.6z"/>
	</g>
</g>
<g id="Groupe_275_5_" transform="translate(-389.421 -284.835)" class="st7">
	<g id="Groupe_273_5_" transform="translate(406.83 302.214)">
		<path id="Tracé_478_5_" class="st1" d="M242.1,246.3c-4.5,0.2-8,3.9-7.8,8.4v24.1c-0.2,4.5,3.3,8.2,7.8,8.4h38.5
			c4.5-0.2,8-3.9,7.8-8.4v-24.1c0.2-4.5-3.3-8.2-7.8-8.4H242.1z M242.1,249.9h11.2c-1.4,1.9-2.2,4.2-2.1,6.6v1.2c-0.2,0-0.4,0-0.6,0
			h-12.6v-3C237.7,252.2,239.5,250.1,242.1,249.9C242,249.9,242,249.9,242.1,249.9z M260.1,249.9h2.4c2.9,0,5.4,2.6,5.4,6.6v3.1
			c-0.1,0.1-0.1,0.1-0.2,0.2c-1.1,1.5-1.7,3.3-1.6,5.1v3c-0.1,1.8,0.5,3.6,1.6,5.1c0.1,0.1,0.1,0.1,0.2,0.2v3.7c0,4-2.5,6.6-5.4,6.6
			h-2.4c-2.9,0-5.4-2.6-5.4-6.6v-3.7c0.1-0.1,0.1-0.1,0.2-0.2c1.1-1.5,1.7-3.3,1.6-5.1v-3c0.1-1.8-0.5-3.6-1.6-5.1
			c-0.1-0.1-0.1-0.1-0.2-0.2v-3.1C254.7,252.5,257.2,249.9,260.1,249.9L260.1,249.9z M269.4,249.9h11.2c2.5,0.2,4.4,2.3,4.2,4.8
			c0,0,0,0,0,0v3h-12.6c-0.2,0-0.4,0-0.6,0v-1.2C271.6,254.1,270.8,251.8,269.4,249.9L269.4,249.9z M237.8,261.3h12.6
			c0.6,0,1.2,0.3,1.6,0.8c0.6,0.8,0.9,1.8,0.8,2.8v3c0.1,1-0.2,2-0.8,2.8c-0.4,0.5-1,0.8-1.6,0.8h-12.6V261.3z M272.1,261.3h12.6
			v10.2h-12.6c-0.6,0-1.2-0.3-1.6-0.8c-0.6-0.8-0.9-1.8-0.8-2.8v-3c-0.1-1,0.2-2,0.8-2.8C270.9,261.6,271.5,261.3,272.1,261.3z
			 M251.1,275.2v1.8c0,2.4,0.7,4.7,2.1,6.6h-11.2c-2.5-0.2-4.4-2.3-4.2-4.8c0,0,0,0,0,0v-3.6h12.6
			C250.7,275.2,250.9,275.2,251.1,275.2L251.1,275.2z M271.5,275.2c0.2,0,0.4,0,0.6,0h12.6v3.6c0.2,2.5-1.7,4.6-4.2,4.8c0,0,0,0,0,0
			h-11.2c1.4-1.9,2.1-4.2,2.1-6.6V275.2z"/>
	</g>
	<g id="Groupe_274_5_" transform="translate(389.421 284.835)">
		<path id="Tracé_479_5_" class="st1" d="M255.1,259.6h3.1c-1.8-3.4-5.8-5-9.5-3.8c-2.3,0.8-4.1,2.6-4.9,4.9
			c-1.3,3.9,0.6,8.2,4.4,9.8v-2.9c-2.1-1.5-2.9-4.2-1.8-6.5c0.6-1.4,1.8-2.5,3.3-2.9C251.6,257.6,253.7,258.2,255.1,259.6z"/>
		<path id="Tracé_480_5_" class="st2" d="M272,259.6h2.6c-2-12.9-14.1-21.8-27-19.8c-12.9,2-21.8,14.1-19.8,27
			c1.6,10.4,9.9,18.5,20.4,19.8v-2.5c-11.6-1.7-19.6-12.4-17.9-24c1.7-11.6,12.4-19.6,24-17.9C263.3,243.7,270.5,250.6,272,259.6z"
			/>
		<path id="Tracé_481_5_" class="st3" d="M264,259.6h2.6c-1.7-7.2-8.2-12.3-15.6-12.2c-8.7,0.1-15.8,7.2-15.7,16
			c0.1,7.5,5.4,14,12.8,15.4v-2.6c-7.2-1.7-11.6-8.8-9.9-16c1.7-7.2,8.8-11.6,16-9.9C258.9,251.4,262.7,255,264,259.6L264,259.6z"/>
	</g>
</g>
<g id="Groupe_275_4_" transform="translate(-389.421 -284.835)">
	<g id="Groupe_273_4_" transform="translate(406.83 302.214)">
		<path id="Tracé_478_4_" class="st1" d="M372.3,161.4c-10.1,0.4-17.9,8.9-17.6,18.9v54.1c-0.3,10.1,7.5,18.5,17.6,18.9h86.5
			c10.1-0.4,17.9-8.9,17.6-18.9v-54.1c0.3-10.1-7.5-18.5-17.6-18.9H372.3z M372.3,169.5h25.1c-3.2,4.3-4.9,9.5-4.8,14.9v2.8
			c-0.4-0.1-0.9-0.1-1.4-0.1h-28.4v-6.8c-0.4-5.6,3.8-10.4,9.4-10.8C372.2,169.5,372.3,169.5,372.3,169.5z M412.9,169.5h5.4
			c6.5,0,12.2,5.9,12.2,14.9v7.1c-0.1,0.1-0.3,0.3-0.4,0.4c-2.5,3.3-3.8,7.3-3.7,11.5v6.8c-0.1,4.1,1.2,8.2,3.7,11.5
			c0.1,0.1,0.3,0.3,0.4,0.4v8.4c0,9-5.6,14.9-12.2,14.9h-5.4c-6.5,0-12.2-5.9-12.2-14.9V222c0.1-0.1,0.3-0.3,0.4-0.4
			c2.5-3.3,3.8-7.3,3.7-11.5v-6.8c0.1-4.1-1.2-8.2-3.7-11.5c-0.1-0.1-0.3-0.3-0.4-0.4v-7.1C400.7,175.4,406.3,169.5,412.9,169.5
			L412.9,169.5z M433.8,169.5h25.1c5.6,0.3,9.8,5.1,9.5,10.7c0,0,0,0.1,0,0.1v6.8h-28.4c-0.5,0-0.9,0-1.4,0.1v-2.8
			C438.6,179.1,436.9,173.8,433.8,169.5L433.8,169.5z M362.8,195.2h28.4c1.4,0,2.7,0.6,3.6,1.8c1.3,1.8,2,4.1,1.9,6.3v6.8
			c0.1,2.3-0.5,4.5-1.9,6.3c-0.8,1.1-2.1,1.8-3.6,1.8h-28.4V195.2z M439.9,195.2h28.4v23h-28.4c-1.4,0-2.7-0.6-3.6-1.8
			c-1.3-1.8-2-4.1-1.9-6.3v-6.8c-0.1-2.3,0.5-4.5,1.9-6.3C437.2,195.9,438.5,195.2,439.9,195.2z M392.6,226.3v4.1
			c0,5.3,1.6,10.6,4.8,14.9h-25.1c-5.6-0.3-9.8-5.2-9.5-10.7c0,0,0-0.1,0-0.1v-8.1h28.4C391.7,226.3,392.1,226.3,392.6,226.3
			L392.6,226.3z M438.6,226.3c0.4,0.1,0.9,0.1,1.4,0.1h28.4v8.1c0.4,5.6-3.8,10.4-9.4,10.8c0,0-0.1,0-0.1,0h-25.1
			c3.1-4.3,4.8-9.5,4.8-14.9V226.3z"/>
	</g>
	<g id="Groupe_274_4_" transform="translate(389.421 284.835)">
		<path id="Tracé_479_4_" class="st1" d="M379.8,169.7h6.9c-4-7.7-13.1-11.3-21.3-8.5c-5.2,1.7-9.3,5.8-11,11
			c-3,8.8,1.3,18.3,9.9,21.9v-6.4c-4.7-3.3-6.4-9.4-4.1-14.7c1.4-3.2,4.1-5.5,7.4-6.5C372,165.2,376.7,166.4,379.8,169.7z"/>
		<path id="Tracé_480_4_" class="st2" d="M418,169.7h5.7c-4.5-29-31.7-48.9-60.8-44.4c-29,4.5-48.9,31.7-44.4,60.8
			c3.6,23.4,22.3,41.6,45.8,44.6V225c-26-3.8-44-27.9-40.2-53.9s27.9-44,53.9-40.2C398.3,133.8,414.4,149.5,418,169.7z"/>
		<path id="Tracé_481_4_" class="st3" d="M399.9,169.7h5.9c-3.8-16.2-18.3-27.6-35-27.4c-19.7,0.2-35.4,16.3-35.2,35.9
			c0.2,16.9,12.2,31.4,28.8,34.6V207c-16.1-3.8-26.1-19.9-22.3-36c3.8-16.1,19.9-26.1,36-22.3C388.5,151.3,397,159.3,399.9,169.7
			L399.9,169.7z"/>
	</g>
</g>
</svg>
