<?xml version="1.0" encoding="utf-8"?>
<!-- Generator: Adobe Illustrator 25.1.0, SVG Export Plug-In . SVG Version: 6.00 Build 0)  -->
<svg version="1.1" id="Composant_19_2" xmlns="http://www.w3.org/2000/svg" xmlns:xlink="http://www.w3.org/1999/xlink" x="0px"
	 y="0px" viewBox="0 0 554.4 522" style="enable-background:new 0 0 554.4 522;" xml:space="preserve">
<style type="text/css">
	.st0{fill:#FFFFFF;}
	.st1{opacity:0.33;}
	.st2{opacity:0.5;}
	.st3{opacity:0.32;}
	.st4{opacity:0.58;}
	.st5{opacity:0.35;}
	.st6{opacity:0.55;}
</style>
<g id="LTCZ4Q.tif" transform="translate(23.941 17.279)">
	<g id="Groupe_272" transform="translate(75.543 109.569)">
		<path id="Tracé_474" class="st0" d="M269.8,46.9c2-0.8,4-1.4,6.1-1.7c3-0.5,5.9-0.7,8.9-0.6c1.7,0,3.4,0.4,5,0.9
			c2.6,1,4.7,3,5.8,5.6l0.3,0.6c1.2-1.2,2.5-2.3,3.9-3.2c3.2-2,6.8-3.3,10.6-3.7c3-0.5,6.1-0.3,9,0.5c5.8,1.8,9.3,5.6,10.3,11.7
			c0.4,3,0.2,6-0.6,8.9c-1.1,4.9-2.7,9.8-4,14.7c-0.2,0.6-0.2,1.2-0.2,1.8c0,0.7,0.6,1.2,1.2,1.2c0,0,0.1,0,0.1,0
			c0.7,0,1.4-0.2,2-0.5c0.8-0.4,1.6-0.7,2.5-1.1c-0.4,1.6-0.8,3.2-1.2,4.7c-1.1,4.4-2.2,8.8-3.3,13.2c0,0.3-0.3,0.6-0.6,0.7
			c-4.7,1.9-9.7,2.7-14.7,2.5c-3.6,0-7-1.3-9.8-3.5c-2.4-2-3.8-5-4.1-8.1c-0.2-3,0.3-6.1,1.3-9c1.1-3.6,2.1-7.3,3.1-10.9
			c0.4-1,0.4-2.1,0-3.1c-0.2-0.6-0.7-1-1.4-0.9c-1.1,0-2.1,0.5-2.8,1.3c-1.1,1.3-1.8,2.9-2.2,4.5c-1.1,3.3-1.8,6.7-2.7,10.1
			c-1.5,5.9-3,11.9-4.5,17.8c-0.1,0.3-0.2,0.5-0.6,0.4c-8.4,0-16.8,0-25.1,0c-0.4,0-0.5-0.1-0.4-0.5c2.8-11.1,5.7-22.1,8.5-33.2
			c0.7-2.8,1.5-5.6,2.1-8.4c0.9-3.4,0.5-7.1-1-10.3C271,48.4,270.4,47.6,269.8,46.9z"/>
		<path id="Tracé_475" class="st0" d="M354.8,104.2c-5.3,0-10.7-0.5-15.9-1.5c-2.6-0.5-5.1-1.3-7.5-2.2c-0.3-0.1-0.3-0.2-0.3-0.6
			c1.4-5.4,2.7-10.8,4-16.2c0.1-0.5,0.3-0.4,0.6-0.2c3.5,1.5,7.1,2.5,10.9,3.2c2.1,0.4,4.2,0.4,6.3,0.1c0.7,0,1.4-0.6,1.5-1.3
			c0.2-0.8-0.1-1.7-0.8-2.2c-0.8-0.5-1.6-0.9-2.5-1.2c-2.5-0.9-5.1-1.6-7.5-2.7c-2.5-1-4.7-2.4-6.7-4.2c-2.6-2.3-4.1-5.7-4.1-9.1
			c-0.2-3.2,0.4-6.4,1.8-9.3c1.8-3.4,4.6-6.1,8.1-7.7c3.2-1.5,6.5-2.5,10-2.9c3.6-0.5,7.3-0.7,10.9-0.7c6.7,0.1,13.4,1.6,19.6,4.3
			c0.9,0.4,1.8,0.8,2.7,1.2c0.3,0.1,0.4,0.3,0.3,0.7c-2.1,5-4.1,9.9-6.2,14.9c-0.2,0.4-0.3,0.4-0.7,0.2c-2.9-1.7-6-3-9.3-3.8
			c-2.3-0.6-4.7-0.8-7.1-0.5c-0.3,0-0.6,0.1-0.8,0.1c-0.7,0.1-1.3,0.7-1.4,1.4c-0.1,0.8,0.3,1.5,1,1.9c0.7,0.4,1.5,0.7,2.3,1
			c2.7,1,5.5,1.8,8.2,2.9c2.2,0.8,4.2,2.1,5.9,3.7c2.7,2.7,4.3,6.3,4.4,10.1c0.1,2.9-0.3,5.8-1.4,8.4c-1.8,4.2-5.1,7.5-9.3,9.3
			c-3,1.3-6.2,2.2-9.5,2.6C359.8,104.1,357.3,104.2,354.8,104.2z"/>
		<path id="Tracé_476" class="st0" d="M234.9,89c0.1-2.7,0.5-5.3,1.3-7.8c1.4-5,2.7-10.1,4-15.1c0.1-0.5,0.1-1,0.1-1.5
			c-0.1-0.9-0.8-1.5-1.7-1.5c-1.4,0.1-2.8,0.4-4,1.1c-0.5,0.2-0.6,0.2-0.8-0.3c-1.2-4.4-2.4-8.9-3.7-13.3c-0.1-0.3-0.1-0.5,0.2-0.7
			c3.8-2.1,7.7-3.8,11.8-5.1c2.7-0.8,5.6-1.2,8.4-1.3c2.5-0.2,5.1,0,7.6,0.6c5.3,1.2,9.1,5.8,9.2,11.2c0.1,2.8-0.3,5.5-1.1,8.2
			c-2.4,9.2-4.8,18.5-7.1,27.7c-0.8,3.2-1.7,6.5-2.5,9.7c0,0.3-0.3,0.6-0.7,0.6c-1.6,0.2-3.2,0.4-4.8,0.5c-1.5,0-2.9-0.1-4.4-0.3
			c-1.8-0.2-3.7-0.7-5.4-1.4c-3.5-1.5-5.9-4.7-6.4-8.5C234.9,90.8,234.9,89.9,234.9,89z"/>
		<path id="Tracé_477" class="st0" d="M259.2,37.6c-2.8,0.1-5.6-0.5-8.1-1.7c-4.3-2.1-6.7-6.7-6.1-11.4c0.5-4.9,4.2-8.9,9.1-9.7
			c3.9-0.9,7.9-0.6,11.7,0.6c3.9,1.4,6.6,4.2,7.3,8.4c1.3,6-2.5,11.8-8.5,13.1c0,0,0,0-0.1,0C262.8,37.5,261,37.7,259.2,37.6z"/>
	</g>
</g>
<g id="LTCZ4Q.tif_1_" transform="translate(23.941 17.279)" class="st1">
	<g id="Groupe_272_1_" transform="translate(75.543 109.569)">
		<path id="Tracé_474_1_" class="st0" d="M150.7,91.3c0.8-0.3,1.6-0.6,2.4-0.7c1.2-0.2,2.4-0.3,3.6-0.2c0.7,0,1.4,0.1,2,0.4
			c1,0.4,1.9,1.2,2.3,2.2l0.1,0.2c0.5-0.5,1-0.9,1.6-1.3c1.3-0.8,2.7-1.3,4.2-1.5c1.2-0.2,2.4-0.1,3.6,0.2c2.3,0.7,3.7,2.2,4.1,4.6
			c0.2,1.2,0.1,2.4-0.2,3.6c-0.5,2-1.1,3.9-1.6,5.9c-0.1,0.2-0.1,0.5-0.1,0.7c0,0.3,0.2,0.5,0.5,0.5c0,0,0,0,0,0
			c0.3,0,0.5-0.1,0.8-0.2c0.3-0.1,0.6-0.3,1-0.4c-0.2,0.6-0.3,1.3-0.5,1.9c-0.4,1.8-0.9,3.5-1.3,5.3c0,0.1-0.1,0.2-0.2,0.3
			c-1.9,0.7-3.9,1.1-5.9,1c-1.4,0-2.8-0.5-3.9-1.4c-0.9-0.8-1.5-2-1.6-3.2c-0.1-1.2,0.1-2.4,0.5-3.6c0.4-1.4,0.8-2.9,1.2-4.3
			c0.1-0.4,0.1-0.8,0-1.2c-0.1-0.2-0.3-0.4-0.5-0.4c-0.4,0-0.9,0.2-1.1,0.5c-0.4,0.5-0.7,1.1-0.9,1.8c-0.4,1.3-0.7,2.7-1.1,4
			c-0.6,2.4-1.2,4.7-1.8,7.1c0,0.1-0.1,0.2-0.2,0.2c-3.3,0-6.7,0-10,0c-0.2,0-0.2,0-0.1-0.2c1.1-4.4,2.3-8.8,3.4-13.3
			c0.3-1.1,0.6-2.2,0.8-3.4c0.3-1.4,0.2-2.8-0.4-4.1C151.2,91.9,150.9,91.6,150.7,91.3z"/>
		<path id="Tracé_475_1_" class="st0" d="M184.6,114.2c-2.1,0-4.3-0.2-6.3-0.6c-1-0.2-2-0.5-3-0.9c-0.1-0.1-0.1-0.1-0.1-0.2
			c0.5-2.2,1.1-4.3,1.6-6.5c0-0.2,0.1-0.1,0.2-0.1c1.4,0.6,2.8,1,4.3,1.3c0.8,0.2,1.7,0.2,2.5,0c0.3,0,0.5-0.2,0.6-0.5
			c0.1-0.3,0-0.7-0.3-0.9c-0.3-0.2-0.6-0.4-1-0.5c-1-0.4-2-0.6-3-1.1c-1-0.4-1.9-1-2.7-1.7c-1-0.9-1.6-2.3-1.6-3.6
			c-0.1-1.3,0.2-2.6,0.7-3.7c0.7-1.3,1.9-2.4,3.2-3.1c1.3-0.6,2.6-1,4-1.2c1.4-0.2,2.9-0.3,4.4-0.3c2.7,0,5.3,0.6,7.8,1.7
			c0.4,0.2,0.7,0.3,1.1,0.5c0.1,0.1,0.2,0.1,0.1,0.3c-0.8,2-1.6,4-2.5,5.9c-0.1,0.2-0.1,0.2-0.3,0.1c-1.2-0.7-2.4-1.2-3.7-1.5
			c-0.9-0.2-1.9-0.3-2.8-0.2c-0.1,0-0.2,0-0.3,0.1c-0.3,0-0.5,0.3-0.6,0.6c0,0.3,0.1,0.6,0.4,0.7c0.3,0.2,0.6,0.3,0.9,0.4
			c1.1,0.4,2.2,0.7,3.3,1.2c0.9,0.3,1.7,0.8,2.4,1.5c1.1,1.1,1.7,2.5,1.7,4c0.1,1.1-0.1,2.3-0.6,3.4c-0.7,1.7-2,3-3.7,3.7
			c-1.2,0.5-2.5,0.9-3.8,1C186.6,114.1,185.6,114.2,184.6,114.2z"/>
		<path id="Tracé_476_1_" class="st0" d="M136.8,108.1c0-1.1,0.2-2.1,0.5-3.1c0.5-2,1.1-4,1.6-6c0-0.2,0.1-0.4,0-0.6
			c0-0.3-0.3-0.6-0.7-0.6c-0.6,0-1.1,0.2-1.6,0.4c-0.2,0.1-0.3,0.1-0.3-0.1c-0.5-1.8-1-3.5-1.5-5.3c0-0.1,0-0.2,0.1-0.3
			c1.5-0.8,3.1-1.5,4.7-2c1.1-0.3,2.2-0.5,3.3-0.5c1-0.1,2,0,3,0.2c2.1,0.5,3.6,2.3,3.7,4.5c0,1.1-0.1,2.2-0.4,3.3
			c-1,3.7-1.9,7.4-2.8,11.1c-0.3,1.3-0.7,2.6-1,3.9c0,0.1-0.1,0.2-0.3,0.2c-0.6,0.1-1.3,0.2-1.9,0.2c-0.6,0-1.2,0-1.7-0.1
			c-0.7-0.1-1.5-0.3-2.1-0.6c-1.4-0.6-2.4-1.9-2.5-3.4C136.8,108.8,136.8,108.5,136.8,108.1z"/>
		<path id="Tracé_477_1_" class="st0" d="M146.5,87.6c-1.1,0-2.2-0.2-3.2-0.7c-1.7-0.8-2.7-2.7-2.4-4.5c0.2-2,1.7-3.5,3.6-3.9
			c1.5-0.3,3.2-0.3,4.7,0.3c1.6,0.6,2.6,1.7,2.9,3.3c0.5,2.4-1,4.7-3.4,5.2c0,0,0,0,0,0C147.9,87.5,147.2,87.6,146.5,87.6z"/>
	</g>
</g>
<g id="LTCZ4Q.tif_2_" transform="translate(23.941 17.279)" class="st2">
	<g id="Groupe_272_2_" transform="translate(75.543 109.569)">
		<path id="Tracé_474_2_" class="st0" d="M195.4,167c0.5-0.2,1-0.4,1.6-0.4c0.8-0.1,1.5-0.2,2.3-0.1c0.4,0,0.9,0.1,1.3,0.2
			c0.7,0.3,1.2,0.8,1.5,1.4l0.1,0.2c0.3-0.3,0.7-0.6,1-0.8c0.8-0.5,1.8-0.9,2.7-1c0.8-0.1,1.6-0.1,2.3,0.1c1.5,0.5,2.4,1.4,2.7,3
			c0.1,0.8,0,1.6-0.2,2.3c-0.3,1.3-0.7,2.5-1,3.8c0,0.1-0.1,0.3-0.1,0.5c0,0.2,0.1,0.3,0.3,0.3c0,0,0,0,0,0c0.2,0,0.4-0.1,0.5-0.1
			c0.2-0.1,0.4-0.2,0.6-0.3c-0.1,0.4-0.2,0.8-0.3,1.2c-0.3,1.1-0.6,2.3-0.9,3.4c0,0.1-0.1,0.2-0.2,0.2c-1.2,0.5-2.5,0.7-3.8,0.6
			c-0.9,0-1.8-0.3-2.5-0.9c-0.6-0.5-1-1.3-1.1-2.1c0-0.8,0.1-1.6,0.3-2.3c0.3-0.9,0.5-1.9,0.8-2.8c0.1-0.3,0.1-0.5,0-0.8
			c0-0.2-0.2-0.3-0.4-0.2c-0.3,0-0.5,0.1-0.7,0.3c-0.3,0.3-0.5,0.7-0.6,1.2c-0.3,0.9-0.5,1.7-0.7,2.6c-0.4,1.5-0.8,3.1-1.2,4.6
			c0,0.1-0.1,0.1-0.2,0.1c-2.2,0-4.3,0-6.5,0c-0.1,0-0.1,0-0.1-0.1c0.7-2.9,1.5-5.7,2.2-8.6c0.2-0.7,0.4-1.4,0.5-2.2
			c0.2-0.9,0.1-1.8-0.3-2.6C195.7,167.4,195.5,167.2,195.4,167z"/>
		<path id="Tracé_475_2_" class="st0" d="M217.3,181.8c-1.4,0-2.8-0.1-4.1-0.4c-0.7-0.1-1.3-0.3-1.9-0.6c-0.1,0-0.1-0.1-0.1-0.1
			c0.4-1.4,0.7-2.8,1-4.2c0-0.1,0.1-0.1,0.2-0.1c0.9,0.4,1.8,0.7,2.8,0.8c0.5,0.1,1.1,0.1,1.6,0c0.2,0,0.4-0.2,0.4-0.3
			c0.1-0.2,0-0.4-0.2-0.6c-0.2-0.1-0.4-0.2-0.6-0.3c-0.6-0.2-1.3-0.4-1.9-0.7c-0.6-0.3-1.2-0.6-1.7-1.1c-0.7-0.6-1-1.5-1.1-2.4
			c-0.1-0.8,0.1-1.7,0.5-2.4c0.5-0.9,1.2-1.6,2.1-2c0.8-0.4,1.7-0.6,2.6-0.8c0.9-0.1,1.9-0.2,2.8-0.2c1.7,0,3.5,0.4,5.1,1.1
			c0.2,0.1,0.5,0.2,0.7,0.3c0.1,0,0.1,0.1,0.1,0.2c-0.5,1.3-1.1,2.6-1.6,3.8c0,0.1-0.1,0.1-0.2,0.1c-0.8-0.4-1.6-0.8-2.4-1
			c-0.6-0.2-1.2-0.2-1.8-0.1c-0.1,0-0.1,0-0.2,0c-0.2,0-0.3,0.2-0.4,0.4c0,0.2,0.1,0.4,0.2,0.5c0.2,0.1,0.4,0.2,0.6,0.3
			c0.7,0.3,1.4,0.5,2.1,0.7c0.6,0.2,1.1,0.5,1.5,1c0.7,0.7,1.1,1.6,1.1,2.6c0,0.7-0.1,1.5-0.4,2.2c-0.5,1.1-1.3,1.9-2.4,2.4
			c-0.8,0.3-1.6,0.6-2.5,0.7C218.6,181.8,217.9,181.9,217.3,181.8z"/>
		<path id="Tracé_476_2_" class="st0" d="M186.4,177.9c0-0.7,0.1-1.4,0.3-2c0.4-1.3,0.7-2.6,1-3.9c0-0.1,0-0.3,0-0.4
			c0-0.2-0.2-0.4-0.4-0.4c-0.4,0-0.7,0.1-1,0.3c-0.1,0-0.2,0-0.2-0.1c-0.3-1.1-0.6-2.3-0.9-3.4c0-0.1,0-0.1,0.1-0.2c1-0.5,2-1,3-1.3
			c0.7-0.2,1.4-0.3,2.2-0.3c0.7,0,1.3,0,2,0.1c1.4,0.3,2.3,1.5,2.4,2.9c0,0.7-0.1,1.4-0.3,2.1c-0.6,2.4-1.2,4.8-1.8,7.2
			c-0.2,0.8-0.4,1.7-0.6,2.5c0,0.1-0.1,0.2-0.2,0.1c-0.4,0.1-0.8,0.1-1.2,0.1c-0.4,0-0.8,0-1.1-0.1c-0.5-0.1-0.9-0.2-1.4-0.4
			c-0.9-0.4-1.5-1.2-1.6-2.2C186.4,178.4,186.4,178.2,186.4,177.9z"/>
		<path id="Tracé_477_2_" class="st0" d="M192.6,164.7c-0.7,0-1.4-0.1-2.1-0.4c-1.1-0.5-1.7-1.7-1.6-2.9c0.1-1.3,1.1-2.3,2.3-2.5
			c1-0.2,2-0.2,3,0.2c1,0.4,1.7,1.1,1.9,2.2c0.3,1.5-0.7,3.1-2.2,3.4c0,0,0,0,0,0C193.6,164.6,193.1,164.7,192.6,164.7z"/>
	</g>
</g>
<g id="LTCZ4Q.tif_3_" transform="translate(23.941 17.279)" class="st3">
	<g id="Groupe_272_3_" transform="translate(75.543 109.569)">
		<path id="Tracé_474_3_" class="st0" d="M245.4,219.3c1-0.4,2.1-0.7,3.2-0.9c1.5-0.3,3.1-0.4,4.7-0.3c0.9,0,1.8,0.2,2.6,0.5
			c1.4,0.5,2.5,1.6,3,2.9l0.1,0.3c0.6-0.6,1.3-1.2,2.1-1.7c1.7-1.1,3.6-1.7,5.5-1.9c1.6-0.3,3.2-0.2,4.7,0.2c3,0.9,4.9,2.9,5.4,6.1
			c0.2,1.6,0.1,3.1-0.3,4.7c-0.6,2.6-1.4,5.1-2.1,7.7c-0.1,0.3-0.1,0.6-0.1,0.9c0,0.3,0.3,0.6,0.6,0.6c0,0,0,0,0.1,0
			c0.4,0,0.7-0.1,1-0.3c0.4-0.2,0.8-0.4,1.3-0.6c-0.2,0.8-0.4,1.6-0.6,2.5c-0.6,2.3-1.2,4.6-1.7,6.9c0,0.2-0.1,0.3-0.3,0.4
			c-2.4,1-5,1.4-7.7,1.3c-1.9,0-3.7-0.7-5.1-1.8c-1.2-1.1-2-2.6-2.1-4.2c-0.1-1.6,0.1-3.2,0.7-4.7c0.6-1.9,1.1-3.8,1.6-5.7
			c0.2-0.5,0.2-1.1,0-1.6c-0.1-0.3-0.4-0.5-0.7-0.5c-0.6,0-1.1,0.3-1.5,0.7c-0.5,0.7-0.9,1.5-1.2,2.3c-0.6,1.7-0.9,3.5-1.4,5.3
			c-0.8,3.1-1.6,6.2-2.3,9.3c0,0.2-0.1,0.2-0.3,0.2c-4.4,0-8.7,0-13.1,0c-0.2,0-0.2,0-0.2-0.3c1.5-5.8,2.9-11.5,4.4-17.3
			c0.4-1.5,0.8-2.9,1.1-4.4c0.5-1.8,0.3-3.7-0.5-5.3C246,220.1,245.7,219.7,245.4,219.3z"/>
		<path id="Tracé_475_3_" class="st0" d="M289.7,249.2c-2.8,0-5.6-0.3-8.3-0.8c-1.3-0.3-2.6-0.7-3.9-1.2c-0.2-0.1-0.2-0.1-0.1-0.3
			c0.7-2.8,1.4-5.6,2.1-8.5c0.1-0.3,0.2-0.2,0.3-0.1c1.8,0.8,3.7,1.3,5.7,1.6c1.1,0.2,2.2,0.2,3.3,0c0.4,0,0.7-0.3,0.8-0.7
			c0.1-0.4,0-0.9-0.4-1.1c-0.4-0.3-0.8-0.5-1.3-0.6c-1.3-0.5-2.6-0.8-3.9-1.4c-1.3-0.5-2.5-1.3-3.5-2.2c-1.3-1.2-2.1-2.9-2.1-4.8
			c-0.1-1.7,0.2-3.4,0.9-4.9c0.9-1.8,2.4-3.2,4.2-4c1.6-0.8,3.4-1.3,5.2-1.5c1.9-0.3,3.8-0.4,5.7-0.3c3.5,0.1,7,0.8,10.2,2.2
			c0.5,0.2,0.9,0.4,1.4,0.6c0.2,0.1,0.2,0.1,0.1,0.3c-1.1,2.6-2.1,5.2-3.2,7.8c-0.1,0.2-0.2,0.2-0.4,0.1c-1.5-0.9-3.1-1.5-4.8-2
			c-1.2-0.3-2.5-0.4-3.7-0.3c-0.1,0-0.3,0-0.4,0.1c-0.4,0.1-0.7,0.4-0.7,0.7c-0.1,0.4,0.1,0.8,0.5,1c0.4,0.2,0.8,0.4,1.2,0.5
			c1.4,0.5,2.9,0.9,4.3,1.5c1.1,0.4,2.2,1.1,3.1,1.9c1.4,1.4,2.2,3.3,2.3,5.3c0.1,1.5-0.2,3-0.7,4.4c-0.9,2.2-2.7,3.9-4.9,4.8
			c-1.6,0.7-3.3,1.1-5,1.3C292.3,249.2,291,249.2,289.7,249.2z"/>
		<path id="Tracé_476_3_" class="st0" d="M227.2,241.3c0-1.4,0.3-2.8,0.7-4.1c0.7-2.6,1.4-5.2,2.1-7.9c0.1-0.3,0.1-0.5,0-0.8
			c0-0.4-0.4-0.8-0.9-0.8c-0.7,0-1.4,0.2-2.1,0.6c-0.2,0.1-0.3,0.1-0.4-0.2c-0.6-2.3-1.3-4.6-1.9-6.9c0-0.2,0-0.3,0.1-0.4
			c2-1.1,4-2,6.1-2.7c1.4-0.4,2.9-0.6,4.4-0.7c1.3-0.1,2.7,0,3.9,0.3c2.7,0.6,4.7,3,4.8,5.8c0,1.4-0.1,2.9-0.5,4.3
			c-1.2,4.8-2.5,9.6-3.7,14.5c-0.4,1.7-0.9,3.4-1.3,5.1c0,0.2-0.2,0.3-0.3,0.3c-0.8,0.1-1.7,0.2-2.5,0.3c-0.8,0-1.5,0-2.3-0.2
			c-1-0.1-1.9-0.4-2.8-0.7c-1.8-0.8-3.1-2.5-3.3-4.4C227.3,242.3,227.2,241.8,227.2,241.3z"/>
		<path id="Tracé_477_3_" class="st0" d="M239.9,214.5c-1.5,0-2.9-0.3-4.2-0.9c-2.2-1.1-3.5-3.5-3.2-5.9c0.2-2.6,2.2-4.6,4.7-5
			c2-0.4,4.1-0.3,6.1,0.3c2.1,0.7,3.4,2.2,3.8,4.4c0.7,3.1-1.3,6.2-4.4,6.8c0,0,0,0,0,0C241.8,214.4,240.9,214.5,239.9,214.5z"/>
	</g>
</g>
<g id="LTCZ4Q.tif_4_" transform="translate(23.941 17.279)" class="st4">
	<g id="Groupe_272_4_" transform="translate(75.543 109.569)">
		<path id="Tracé_474_4_" class="st0" d="M132,266c1.2-0.5,2.6-0.9,3.9-1.1c1.9-0.3,3.8-0.4,5.7-0.4c1.1,0,2.2,0.2,3.2,0.6
			c1.7,0.6,3,1.9,3.7,3.6l0.2,0.4c0.8-0.8,1.6-1.4,2.5-2c2-1.3,4.4-2.1,6.8-2.4c1.9-0.3,3.9-0.2,5.8,0.3c3.7,1.1,5.9,3.6,6.6,7.4
			c0.2,1.9,0.1,3.9-0.4,5.7c-0.7,3.2-1.7,6.3-2.6,9.4c-0.1,0.4-0.2,0.7-0.1,1.1c0,0.4,0.4,0.8,0.8,0.8c0,0,0,0,0.1,0
			c0.4,0,0.9-0.1,1.3-0.3c0.5-0.2,1-0.4,1.6-0.7c-0.3,1-0.5,2-0.7,3c-0.7,2.8-1.4,5.6-2.1,8.4c0,0.2-0.2,0.4-0.4,0.4
			c-3,1.2-6.2,1.7-9.4,1.6c-2.3,0-4.5-0.8-6.2-2.2c-1.5-1.3-2.5-3.2-2.6-5.2c-0.1-1.9,0.2-3.9,0.8-5.7c0.7-2.3,1.3-4.6,2-7
			c0.2-0.6,0.2-1.3,0-2c-0.1-0.4-0.5-0.6-0.9-0.6c-0.7,0-1.4,0.3-1.8,0.9c-0.7,0.8-1.2,1.8-1.4,2.9c-0.7,2.1-1.1,4.3-1.7,6.5
			c-1,3.8-1.9,7.6-2.9,11.4c-0.1,0.2-0.1,0.3-0.4,0.3c-5.4,0-10.7,0-16.1,0c-0.3,0-0.3-0.1-0.2-0.3c1.8-7.1,3.6-14.2,5.4-21.2
			c0.5-1.8,1-3.6,1.3-5.4c0.6-2.2,0.3-4.5-0.6-6.6C132.7,267,132.4,266.4,132,266z"/>
		<path id="Tracé_475_4_" class="st0" d="M186.3,302.6c-3.4,0-6.8-0.3-10.2-0.9c-1.6-0.3-3.2-0.8-4.8-1.4c-0.2-0.1-0.2-0.2-0.2-0.4
			c0.9-3.5,1.7-6.9,2.6-10.4c0.1-0.3,0.2-0.2,0.4-0.1c2.2,0.9,4.6,1.6,6.9,2c1.3,0.3,2.7,0.3,4,0.1c0.5,0,0.9-0.4,1-0.8
			c0.1-0.5-0.1-1.1-0.5-1.4c-0.5-0.3-1-0.6-1.6-0.7c-1.6-0.6-3.2-1-4.8-1.7c-1.6-0.6-3-1.5-4.3-2.7c-1.7-1.5-2.6-3.6-2.6-5.8
			c-0.1-2.1,0.3-4.1,1.2-6c1.1-2.2,3-3.9,5.2-4.9c2-1,4.2-1.6,6.4-1.9c2.3-0.3,4.7-0.5,7-0.4c4.3,0.1,8.6,1,12.5,2.7
			c0.6,0.2,1.1,0.5,1.7,0.8c0.2,0.1,0.3,0.2,0.2,0.4c-1.3,3.2-2.6,6.3-3.9,9.5c-0.1,0.3-0.2,0.3-0.4,0.1c-1.9-1.1-3.8-1.9-5.9-2.5
			c-1.5-0.4-3-0.5-4.5-0.3c-0.2,0-0.4,0.1-0.5,0.1c-0.5,0.1-0.8,0.4-0.9,0.9c-0.1,0.5,0.2,1,0.6,1.2c0.5,0.3,1,0.5,1.5,0.6
			c1.7,0.6,3.5,1.1,5.3,1.8c1.4,0.5,2.7,1.3,3.8,2.4c1.7,1.7,2.7,4,2.8,6.5c0.1,1.8-0.2,3.7-0.9,5.4c-1.1,2.7-3.3,4.8-6,5.9
			c-1.9,0.8-4,1.4-6.1,1.6C189.5,302.5,187.9,302.6,186.3,302.6z"/>
		<path id="Tracé_476_4_" class="st0" d="M109.7,292.9c0-1.7,0.3-3.4,0.8-5c0.9-3.2,1.7-6.4,2.6-9.6c0.1-0.3,0.1-0.6,0-1
			c-0.1-0.5-0.5-1-1.1-0.9c-0.9,0-1.8,0.3-2.5,0.7c-0.3,0.1-0.4,0.1-0.5-0.2c-0.8-2.8-1.5-5.7-2.3-8.5c-0.1-0.2-0.1-0.3,0.1-0.4
			c2.4-1.3,4.9-2.4,7.5-3.3c1.7-0.5,3.5-0.8,5.4-0.8c1.6-0.1,3.3,0,4.8,0.4c3.4,0.8,5.8,3.7,5.9,7.1c0.1,1.8-0.2,3.5-0.7,5.2
			c-1.5,5.9-3,11.8-4.6,17.7c-0.5,2.1-1.1,4.1-1.6,6.2c0,0.2-0.2,0.4-0.4,0.4c-1,0.1-2,0.2-3.1,0.3c-0.9,0-1.9,0-2.8-0.2
			c-1.2-0.1-2.3-0.4-3.4-0.9c-2.2-1-3.8-3-4.1-5.4C109.7,294.1,109.7,293.5,109.7,292.9z"/>
		<path id="Tracé_477_4_" class="st0" d="M125.2,260.1c-1.8,0.1-3.6-0.3-5.2-1.1c-2.7-1.3-4.3-4.3-3.9-7.3c0.3-3.1,2.7-5.7,5.8-6.2
			c2.5-0.6,5.1-0.4,7.5,0.4c2.5,0.9,4.2,2.7,4.7,5.4c0.8,3.8-1.6,7.6-5.4,8.4c0,0,0,0,0,0C127.5,260,126.4,260.1,125.2,260.1z"/>
	</g>
</g>
<g id="LTCZ4Q.tif_5_" transform="translate(23.941 17.279)" class="st5">
	<g id="Groupe_272_5_" transform="translate(75.543 109.569)">
		<path id="Tracé_474_5_" class="st0" d="M47.5,158c1.7-0.7,3.4-1.2,5.2-1.5c2.5-0.4,5-0.6,7.6-0.5c1.4,0,2.9,0.3,4.2,0.8
			c2.2,0.8,4,2.6,4.9,4.8l0.2,0.5c1-1,2.1-1.9,3.3-2.7c2.7-1.7,5.8-2.8,9-3.2c2.5-0.4,5.1-0.3,7.6,0.4c4.9,1.5,7.9,4.8,8.7,9.9
			c0.3,2.5,0.1,5.1-0.5,7.6c-1,4.2-2.3,8.3-3.4,12.4c-0.2,0.5-0.2,1-0.2,1.5c0,0.6,0.5,1,1.1,1c0,0,0.1,0,0.1,0
			c0.6,0,1.2-0.2,1.7-0.4c0.7-0.3,1.4-0.6,2.1-0.9c-0.3,1.4-0.7,2.7-1,4c-0.9,3.7-1.9,7.5-2.8,11.2c0,0.3-0.2,0.5-0.5,0.6
			c-4,1.6-8.2,2.3-12.5,2.1c-3,0-5.9-1.1-8.3-3c-2-1.7-3.3-4.2-3.5-6.8c-0.1-2.6,0.2-5.2,1.1-7.6c0.9-3.1,1.8-6.1,2.6-9.2
			c0.3-0.9,0.3-1.8,0-2.6c-0.2-0.5-0.6-0.8-1.2-0.8c-0.9,0-1.8,0.4-2.4,1.1c-0.9,1.1-1.5,2.4-1.9,3.8c-0.9,2.8-1.5,5.7-2.2,8.6
			c-1.3,5-2.5,10-3.8,15.1c-0.1,0.3-0.2,0.4-0.5,0.4c-7.1,0-14.2,0-21.3,0c-0.4,0-0.4-0.1-0.3-0.4c2.4-9.4,4.8-18.8,7.2-28.2
			c0.6-2.4,1.3-4.7,1.8-7.1c0.7-2.9,0.4-6-0.8-8.7C48.6,159.3,48.1,158.6,47.5,158z"/>
		<path id="Tracé_475_5_" class="st0" d="M119.6,206.6c-4.5,0-9-0.4-13.5-1.3c-2.2-0.4-4.3-1.1-6.4-1.9c-0.3-0.1-0.3-0.2-0.2-0.5
			c1.2-4.6,2.3-9.2,3.4-13.8c0.1-0.4,0.3-0.3,0.5-0.2c3,1.3,6,2.1,9.2,2.7c1.8,0.3,3.5,0.4,5.3,0.1c0.6,0,1.2-0.5,1.3-1.1
			c0.2-0.7-0.1-1.4-0.7-1.8c-0.6-0.4-1.3-0.7-2.1-1c-2.1-0.8-4.3-1.4-6.4-2.3c-2.1-0.9-4-2.1-5.7-3.6c-2.2-2-3.4-4.8-3.5-7.7
			c-0.2-2.7,0.3-5.5,1.5-7.9c1.5-2.9,3.9-5.1,6.9-6.5c2.7-1.3,5.5-2.1,8.5-2.5c3.1-0.4,6.2-0.6,9.3-0.6c5.7,0.1,11.4,1.3,16.6,3.6
			c0.8,0.3,1.5,0.7,2.3,1c0.3,0.1,0.4,0.2,0.2,0.6c-1.8,4.2-3.5,8.4-5.2,12.6c-0.2,0.4-0.3,0.3-0.6,0.2c-2.5-1.4-5.1-2.5-7.8-3.3
			c-2-0.5-4-0.7-6-0.4c-0.2,0-0.5,0.1-0.7,0.1c-0.6,0.1-1.1,0.6-1.2,1.2c-0.1,0.6,0.2,1.3,0.8,1.6c0.6,0.3,1.3,0.6,1.9,0.8
			c2.3,0.8,4.7,1.5,7,2.4c1.9,0.7,3.6,1.8,5,3.1c2.3,2.3,3.6,5.3,3.7,8.6c0.1,2.4-0.3,4.9-1.2,7.2c-1.5,3.5-4.4,6.4-7.9,7.8
			c-2.6,1.1-5.3,1.9-8.1,2.2C123.8,206.5,121.7,206.6,119.6,206.6z"/>
		<path id="Tracé_476_5_" class="st0" d="M18,193.8c0-2.2,0.4-4.5,1.1-6.6c1.2-4.3,2.3-8.5,3.4-12.8c0.1-0.4,0.1-0.8,0-1.3
			c-0.1-0.7-0.7-1.3-1.4-1.2c-1.2,0-2.3,0.4-3.4,0.9c-0.4,0.2-0.5,0.1-0.6-0.3c-1-3.8-2.1-7.5-3.1-11.3c-0.1-0.3-0.1-0.4,0.2-0.6
			c3.2-1.7,6.5-3.2,10-4.3c2.3-0.7,4.7-1,7.1-1.1c2.2-0.2,4.3,0,6.4,0.5c4.5,1,7.7,4.9,7.8,9.5c0.1,2.3-0.2,4.7-0.9,6.9
			c-2,7.8-4,15.7-6,23.5c-0.7,2.7-1.4,5.5-2.1,8.2c0,0.3-0.3,0.5-0.6,0.5c-1.4,0.2-2.7,0.3-4.1,0.4c-1.2,0-2.5-0.1-3.7-0.3
			c-1.6-0.2-3.1-0.6-4.5-1.2c-2.9-1.3-5-4-5.4-7.2C18.1,195.3,18,194.5,18,193.8z"/>
		<path id="Tracé_477_5_" class="st0" d="M38.6,150.2c-2.4,0.1-4.7-0.4-6.9-1.4c-3.6-1.8-5.7-5.7-5.2-9.6c0.4-4.2,3.6-7.5,7.7-8.2
			c3.3-0.7,6.7-0.5,9.9,0.5c3.3,1.2,5.6,3.5,6.2,7.1c1.1,5.1-2.1,10-7.2,11.1c0,0,0,0,0,0C41.6,150.1,40.1,150.3,38.6,150.2z"/>
	</g>
</g>
<g id="LTCZ4Q.tif_6_" transform="translate(23.941 17.279)" class="st6">
	<g id="Groupe_272_6_" transform="translate(75.543 109.569)">
		<path id="Tracé_474_6_" class="st0" d="M-48.7,317.7c2.2-0.9,4.5-1.6,6.9-2c3.4-0.6,6.8-0.8,10.2-0.6c1.9,0,3.9,0.4,5.7,1.1
			c3,1.1,5.4,3.4,6.6,6.4l0.3,0.7c1.4-1.3,2.9-2.6,4.5-3.6c3.6-2.3,7.8-3.8,12.1-4.2c3.4-0.6,6.9-0.4,10.2,0.5
			c6.6,2,10.6,6.4,11.7,13.3c0.4,3.4,0.2,6.9-0.7,10.2c-1.3,5.6-3.1,11.1-4.6,16.7c-0.2,0.6-0.3,1.3-0.2,2c0,0.8,0.7,1.4,1.4,1.3
			c0,0,0.1,0,0.1,0c0.8,0,1.5-0.2,2.3-0.6c0.9-0.4,1.8-0.8,2.8-1.2c-0.5,1.8-0.9,3.6-1.3,5.3c-1.3,5-2.5,10-3.7,15
			c-0.1,0.4-0.3,0.7-0.7,0.8c-5.3,2.1-11,3.1-16.7,2.8c-4,0-8-1.4-11.1-4c-2.7-2.3-4.4-5.6-4.6-9.2c-0.2-3.5,0.3-6.9,1.5-10.2
			c1.2-4.1,2.4-8.3,3.5-12.4c0.4-1.1,0.4-2.4,0-3.5c-0.2-0.7-0.8-1.1-1.5-1.1c-1.2,0-2.4,0.6-3.2,1.5c-1.2,1.5-2.1,3.2-2.5,5.1
			c-1.2,3.8-2,7.6-3,11.5c-1.7,6.7-3.4,13.5-5.1,20.2c-0.1,0.4-0.3,0.5-0.7,0.5c-9.5,0-19.1,0-28.6,0c-0.5,0-0.5-0.1-0.4-0.6
			c3.2-12.6,6.4-25.2,9.6-37.8c0.8-3.2,1.7-6.3,2.4-9.6c1-3.9,0.6-8-1.1-11.7C-47.3,319.5-48,318.5-48.7,317.7z"/>
		<path id="Tracé_475_6_" class="st0" d="M48,382.9c-6.1,0-12.1-0.6-18.1-1.7c-2.9-0.6-5.8-1.4-8.5-2.5c-0.4-0.1-0.4-0.3-0.3-0.6
			c1.5-6.1,3.1-12.3,4.6-18.5c0.1-0.6,0.4-0.4,0.7-0.3c4,1.7,8.1,2.9,12.3,3.6c2.3,0.4,4.8,0.5,7.1,0.1c0.8-0.1,1.6-0.7,1.7-1.5
			c0.3-0.9-0.1-1.9-0.9-2.5c-0.9-0.6-1.8-1-2.8-1.3c-2.8-1.1-5.8-1.8-8.6-3c-2.8-1.1-5.4-2.8-7.6-4.8c-2.9-2.7-4.6-6.4-4.6-10.4
			c-0.3-3.7,0.5-7.3,2.1-10.6c2-3.8,5.3-6.9,9.2-8.7c3.6-1.7,7.4-2.8,11.4-3.3c4.1-0.6,8.3-0.8,12.4-0.8c7.7,0.1,15.2,1.8,22.3,4.9
			c1,0.4,2,0.9,3,1.4c0.4,0.2,0.5,0.3,0.3,0.7c-2.4,5.6-4.7,11.3-7,16.9c-0.2,0.5-0.4,0.5-0.8,0.2c-3.3-1.9-6.9-3.4-10.5-4.4
			c-2.6-0.7-5.3-0.9-8-0.6c-0.3,0-0.6,0.1-0.9,0.2c-0.8,0.1-1.5,0.8-1.6,1.6c-0.1,0.9,0.3,1.7,1.1,2.1c0.8,0.5,1.7,0.8,2.6,1.1
			c3.1,1.1,6.3,2,9.4,3.3c2.5,0.9,4.8,2.4,6.7,4.2c3.1,3,4.9,7.2,5,11.5c0.2,3.3-0.4,6.5-1.6,9.6c-2,4.8-5.8,8.5-10.6,10.5
			c-3.4,1.5-7.1,2.5-10.8,2.9C53.7,382.8,50.8,383,48,382.9z"/>
		<path id="Tracé_476_6_" class="st0" d="M-88.3,365.7c0.1-3,0.6-6,1.5-8.9c1.5-5.7,3-11.4,4.6-17.2c0.1-0.6,0.2-1.1,0.1-1.7
			c-0.1-1-0.9-1.7-1.9-1.7c-1.6,0.1-3.1,0.5-4.5,1.2c-0.5,0.2-0.7,0.2-0.9-0.4c-1.4-5-2.8-10.1-4.2-15.1c-0.1-0.4-0.1-0.6,0.3-0.8
			c4.3-2.3,8.8-4.3,13.4-5.8c3.1-0.9,6.3-1.4,9.5-1.5c2.9-0.2,5.8,0,8.6,0.6c6,1.3,10.3,6.6,10.5,12.7c0.1,3.1-0.3,6.3-1.2,9.3
			c-2.7,10.5-5.4,21-8.1,31.5c-0.9,3.7-1.9,7.3-2.8,11c0,0.4-0.4,0.7-0.8,0.6c-1.8,0.2-3.6,0.4-5.5,0.6c-1.7,0-3.3-0.1-5-0.4
			c-2.1-0.2-4.2-0.8-6.1-1.6c-3.9-1.7-6.7-5.4-7.3-9.6C-88.3,367.7-88.4,366.7-88.3,365.7z"/>
		<path id="Tracé_477_6_" class="st0" d="M-60.7,307.3c-3.2,0.1-6.3-0.5-9.2-1.9c-4.8-2.4-7.6-7.6-7-12.9c0.5-5.6,4.8-10.1,10.3-11
			c4.4-1,9-0.7,13.3,0.7c4.5,1.6,7.5,4.7,8.3,9.5c1.4,6.8-2.9,13.5-9.7,14.9c0,0,0,0-0.1,0C-56.6,307.1-58.6,307.3-60.7,307.3z"/>
	</g>
</g>
</svg>
