<?xml version="1.0" encoding="utf-8"?>
<!-- Generator: Adobe Illustrator 25.1.0, SVG Export Plug-In . SVG Version: 6.00 Build 0)  -->
<svg version="1.1" id="Calque_1" xmlns="http://www.w3.org/2000/svg" xmlns:xlink="http://www.w3.org/1999/xlink" x="0px" y="0px"
	 viewBox="0 0 498.3 588.1" style="enable-background:new 0 0 498.3 588.1;" xml:space="preserve">
<style type="text/css">
	.st0{fill:none;}
	.st1{opacity:0.396;fill:#FFFFFF;enable-background:new    ;}
	.st2{opacity:0.15;fill:#FFFFFF;enable-background:new    ;}
	.st3{fill:#D34A3C;}
	.st4{fill:#FFFFFF;}
	.st5{font-family:'Lato-Heavy';}
	.st6{font-size:19px;}
	.st7{fill:#7613E0;}
	.st8{opacity:0.102;fill:#FFFFFF;enable-background:new    ;}
	.st9{fill:#DE5D80;}
	.st10{fill-rule:evenodd;clip-rule:evenodd;fill:#FFFFFF;}
	.st11{fill:#35D9C0;}
	.st12{fill:url(#logo-dmp_1_);}
	.st13{fill:#07A2CF;}
	.st14{opacity:0.298;enable-background:new    ;}
	.st15{fill:url(#Tracé_73_1_);}
	.st16{fill:url(#Tracé_74_1_);}
	.st17{fill:#5FD67A;}
	.st18{font-size:6px;}
	.st19{fill:url(#Tracé_76_1_);}
	.st20{fill:url(#Tracé_143_1_);}
</style>
<pattern  y="588.1" width="601" height="250" patternUnits="userSpaceOnUse" id="pattern" viewBox="0 -250 601 250" style="overflow:visible;">
	<g>
		<rect y="-250" class="st0" width="601" height="250"/>
		
			<image style="overflow:visible;enable-background:new    ;" width="601" height="250" xlink:href="DD923B69EC6A6C65.png"  transform="matrix(1 0 0 -1 0 0)">
		</image>
	</g>
</pattern>
<g id="Composant_10_2" transform="translate(49.921 17.879)">
	<path id="Soustraction_5" class="st1" d="M199.3,323.4L199.3,323.4L199.3,323.4L199.3,323.4l-33.8-7.6l-19-4.4l-56-208.7V59
		c2.3,4.9,5.1,9.6,8.3,14c3.1,4.3,6.7,8.3,10.6,11.9c4.4,4.1,9.5,7.6,14.9,10.2c7.4,3.3,15.2,5.5,23.2,6.5c7.2,1,14.5,1.5,21.8,1.5
		c7.5,0,12.6-0.5,12.6-0.5l48.4-37.9l56.3,37.9L353.1,59l-90.3,257.9L199.3,323.4z"/>
	<g id="Composant_1_15" transform="translate(0 79.829)">
		<g id="Groupe_60" transform="translate(0 0)">
			<path id="Tracé_155" class="st2" d="M0,92.3V37.1C0,16.6,16.6,0,37.1,0h55.2c20.5,0,37.1,16.6,37.1,37.1v55.2
				c0,20.5-16.6,37.1-37.1,37.1H37.1C16.6,129.4,0,112.8,0,92.3z"/>
		</g>
		<g id="Composant_15_7" transform="translate(10 10.151)">
			<path id="Tracé_135" class="st3" d="M31.3,0h45.9c17.3,0,31.3,14,31.4,31.3c0,0,0,0,0,0v45.8c0,17.3-14.1,31.3-31.3,31.3
				c0,0,0,0,0,0H31.4C14.1,108.3,0,94.3,0,77.1c0,0,0,0,0,0V31.3C0,14,14.1,0,31.3,0C31.3,0,31.3,0,31.3,0z"/>
			<path id="Tracé_92" class="st4" d="M54.1,43.5C40.2,43.5,29,54.8,29,68.7s11.3,25.1,25.2,25.1c13.9,0,25.1-11.3,25.1-25.2
				C79.3,54.7,68,43.4,54.1,43.5C54.1,43.5,54.1,43.5,54.1,43.5z M46.9,71.3c-0.4,1-1,1.8-1.8,2.6c-0.3,0.2-0.6,0.4-0.9,0.4
				c-0.4,0-0.7-0.2-1-0.4c-0.5-0.5-0.5-1.4,0-1.9c0,0,0,0,0.1,0c2-1.9,2-5,0.1-7c0,0-0.1-0.1-0.1-0.1l0,0c-0.4-0.3-0.5-0.8-0.4-1.3
				c0.1-0.5,0.5-0.9,1-1c0.5-0.1,1,0,1.3,0.3c0.8,0.7,1.3,1.6,1.7,2.6C47.7,67.3,47.7,69.4,46.9,71.3L46.9,71.3z M51.1,76
				c-0.2,0.4-0.7,0.6-1.1,0.6c-0.3,0-0.6-0.1-0.8-0.3c-0.6-0.4-0.8-1.2-0.4-1.9c0,0,0,0,0,0c2.5-3.6,2.5-8.4,0.1-12.1l0,0
				c-0.4-0.6-0.3-1.5,0.4-1.9c0.6-0.4,1.5-0.3,1.9,0.4l0,0C54.2,65.4,54.2,71.4,51.1,76L51.1,76z M56.6,78.2
				c-0.2,0.4-0.7,0.7-1.2,0.7c-0.3,0-0.5-0.1-0.7-0.2c-0.6-0.4-0.9-1.2-0.5-1.8c0,0,0,0,0-0.1c3-5.1,3.1-11.5,0.1-16.6l0,0
				c-0.3-0.4-0.3-0.9,0-1.3c0.3-0.4,0.7-0.7,1.2-0.7c0.5,0,0.9,0.3,1.2,0.7C60.2,64.8,60.1,72.2,56.6,78.2L56.6,78.2z M62.1,80.3
				c-0.2,0.3-0.5,0.6-0.9,0.7c-0.1,0-0.2,0-0.3,0c-0.2,0-0.5-0.1-0.7-0.2c-0.3-0.2-0.5-0.4-0.7-0.7c-0.1-0.4-0.1-0.8,0.1-1.1
				c1.7-3.2,2.7-6.9,2.7-10.5c0-3.7-0.9-7.3-2.6-10.6c-0.2-0.4-0.2-0.9,0-1.3c0.3-0.4,0.8-0.7,1.3-0.7c0.5,0,0.9,0.3,1.1,0.7
				c1.9,3.7,2.9,7.7,2.9,11.8C65,72.6,64,76.6,62.1,80.3z"/>
			<text transform="matrix(1 0 0 1 36 32)" class="st4 st5 st6">CPS</text>
		</g>
	</g>
	<g id="Composant_2_3" transform="translate(132.285)">
		<g id="Groupe_63" transform="translate(53.731 80.404)">
			<path id="Tracé_160" class="st2" d="M0,42.5V17.8C0,8,8,0,17.8,0h24.7c9.8,0,17.8,8,17.8,17.8v24.7c0,9.8-8,17.8-17.8,17.8H17.8
				C8,60.3,0,52.3,0,42.5z"/>
		</g>
		<g id="Composant_14_10" transform="translate(59.715 85.98)">
			<path id="Tracé_142" class="st7" d="M14.2,0h20.8c7.8,0,14.2,6.3,14.2,14.1c0,0,0,0,0,0v20.7c0,7.8-6.4,14.1-14.2,14.1
				c0,0,0,0,0,0H14.2C6.4,49,0,42.7,0,34.8c0,0,0,0,0,0V14.1C0,6.3,6.4,0,14.2,0z"/>
			<g id="Groupe_188" transform="translate(8.731 13.382)">
				<path id="Tracé_54" class="st4" d="M5.1,11.7V16H4.3c-0.2,0-0.3-0.1-0.4-0.2l-1.7-3.3c-0.1-0.2-0.1-0.3,0-0.5
					c0.1-0.1,0.3-0.2,0.5-0.2H5.1z"/>
				<path id="Tracé_55" class="st4" d="M5.1,6.4v4.3H2.7c-0.2,0-0.3-0.1-0.4-0.2L0.1,7.2C0,7.1,0,6.9,0.1,6.7
					c0.1-0.2,0.3-0.2,0.4-0.2L5.1,6.4L5.1,6.4z"/>
				<path id="Tracé_56" class="st4" d="M29.1,12.4l-1.7,3.3C27.3,15.9,27.1,16,27,16h-0.7v-4.3h2.5c0.2,0,0.3,0.1,0.4,0.2
					C29.1,12.1,29.1,12.3,29.1,12.4z"/>
				<path id="Tracé_57" class="st4" d="M31.2,7.2L29,10.5c-0.1,0.1-0.2,0.2-0.4,0.2h-2.4V6.4h4.6c0.2,0,0.3,0.1,0.4,0.2
					C31.3,6.8,31.3,7,31.2,7.2z"/>
				<path id="Tracé_58" class="st4" d="M21.2,0.2v3.7h3.7L21.2,0.2z"/>
				<path id="Tracé_59" class="st4" d="M20.8,4.9c-0.3,0-0.5-0.2-0.5-0.4c0,0,0,0,0-0.1V0H6.6C6.3,0,6.1,0.2,6.1,0.4c0,0,0,0,0,0.1
					v21.4c0,0.3,0.2,0.5,0.4,0.5c0,0,0,0,0.1,0h18.1c0.3,0,0.5-0.2,0.5-0.5v-17H20.8z M8.7,4.4c0-0.3,0.2-0.5,0.4-0.5c0,0,0,0,0.1,0
					h8.2c0.3,0,0.5,0.2,0.5,0.4c0,0,0,0,0,0.1c0,0.3-0.2,0.5-0.4,0.5c0,0,0,0-0.1,0H9.2C8.9,4.9,8.7,4.7,8.7,4.4z M21.8,19.5H9.5
					C9.2,19.5,9,19.3,9,19c0-0.3,0.2-0.5,0.5-0.5c0,0,0,0,0,0h12.3c0.3,0,0.5,0.2,0.5,0.4c0,0,0,0,0,0.1
					C22.3,19.3,22.1,19.5,21.8,19.5z M21.8,15.8H9.5c-0.3,0-0.5-0.2-0.5-0.5c0-0.3,0.2-0.5,0.5-0.5c0,0,0,0,0,0h12.3
					c0.3,0,0.5,0.2,0.5,0.4c0,0,0,0,0,0.1C22.3,15.6,22.1,15.8,21.8,15.8L21.8,15.8z M21.8,12.2H9.5C9.2,12.2,9,12,9,11.7
					c0-0.3,0.2-0.5,0.5-0.5c0,0,0,0,0,0h12.3c0.3,0,0.5,0.2,0.5,0.4c0,0,0,0,0,0.1C22.3,12,22.1,12.2,21.8,12.2L21.8,12.2z
					 M21.8,8.5H9.5C9.2,8.5,9,8.3,9,8.1c0-0.3,0.2-0.5,0.5-0.5c0,0,0,0,0,0h12.3c0.3,0,0.5,0.2,0.5,0.4c0,0,0,0,0,0.1
					C22.3,8.3,22.1,8.5,21.8,8.5L21.8,8.5z"/>
			</g>
		</g>
		<path id="Tracé_145" class="st8" d="M150.4,112.3c0.8,2.3-0.4,4.7-2.7,5.5c-0.9,0.3-1.9,0.3-2.8,0l-10.6-3.2
			c-3.6-1.1-5-5.5-2.5-8l7.5-7.5c2.5-2.5,6.9-1.1,8,2.5L150.4,112.3z"/>
		<path id="Tracé_146" class="st8" d="M38,71.8c1.3,3.9-0.8,8.2-4.7,9.5c-1.6,0.5-3.3,0.5-4.8,0L9.9,75.8C3.7,74,1.3,66.2,5.6,61.9
			l13-13c4.3-4.3,12.1-1.9,13.9,4.4L38,71.8z"/>
		<path id="Tracé_147" class="st8" d="M129.1,41.2c2.4,8.2-4.6,15.3-12.9,12.8l-25-7.4c-8.4-2.5-11.7-12.9-5.9-18.7L103,10.4
			c5.8-5.8,16.2-2.5,18.7,5.9L129.1,41.2z"/>
		<g id="Groupe_225" transform="translate(59.55 159.863)">
			<path id="Tracé_146-2" class="st8" d="M69.8,52.2c3.3,11.2-6.3,20.8-17.5,17.5L18.2,59.5C6.8,56.1,2.3,41.9,10.2,34l23.9-23.9
				c7.9-7.9,22.1-3.4,25.5,8L69.8,52.2z"/>
			<g id="Groupe_229" transform="translate(5.905 6.378)">
				<path id="Tracé_153" class="st9" d="M59.3,44.4c2.8,9.5-5.4,17.7-14.9,14.9l-29-8.6C5.8,47.8,2,35.7,8.7,29L29,8.7
					c6.7-6.7,18.8-2.9,21.7,6.8L59.3,44.4z"/>
				<path id="Tracé_154" class="st10" d="M22.1,26.9l21.8-0.7c1,0,1.8,0.7,1.8,1.7c0,0.3-0.1,0.7-0.3,1L34,47.4
					c-0.3,0.6-1.1,0.7-1.7,0.4c-0.3-0.2-0.5-0.4-0.5-0.7l-2-7.6l6.3-6.9l-9.2,1.9L21.3,29c-0.5-0.5-0.5-1.2,0-1.7
					C21.5,27.1,21.8,26.9,22.1,26.9z"/>
			</g>
		</g>
		<g id="Groupe_226" transform="translate(139.89 -0.035)">
			<path id="Tracé_146-3" class="st8" d="M100.6,75.1c4.7,16.1-9.2,30-25.4,25.3L26.1,86C9.7,81.2,3.3,60.7,14.7,49.3l34.6-34.6
				c11.4-11.4,31.9-5,36.8,11.4L100.6,75.1z"/>
			<g id="Groupe_228" transform="translate(4.418 4.974)">
				<path id="Tracé_152" class="st11" d="M92.3,69c4.4,14.8-8.3,27.5-23.2,23.1L24.1,78.8C9,74.3,3,55.5,13.5,45.1l31.7-31.6
					C55.6,3.1,74.4,9,78.9,24.1L92.3,69z"/>
				
					<pattern  id="logo-dmp_1_" xlink:href="#pattern" patternTransform="matrix(8.485857e-02 0 0 -8.400000e-02 -6744.1313 -8936.0879)">
				</pattern>
				<rect id="logo-dmp" x="26.4" y="43" class="st12" width="51" height="21"/>
			</g>
		</g>
		<g id="Groupe_227" transform="translate(171.134 143.899)">
			<path id="Tracé_146-4" class="st8" d="M114.2,85.4c5.5,18.3-10.3,34-28.6,28.6L29.8,97.4c-18.7-5.6-26-28.8-13.1-41.7l39.1-39
				C68.6,3.8,92,11.1,97.5,29.8L114.2,85.4z"/>
			<g>
				<path id="Tracé_139" class="st13" d="M108.2,82.6c4.8,16.2-9.1,30.1-25.3,25.3L33.6,93.2c-16.5-4.9-23-25.5-11.6-36.9
					l34.6-34.6c11.4-11.4,32-4.9,36.9,11.6L108.2,82.6z"/>
				<g id="LTCZ4Q.tif" transform="translate(23.941 17.279)">
					<g id="Groupe_272" transform="translate(75.543 109.569)">
						<path id="Tracé_474" class="st4" d="M-46.6-67.4c0.6-0.3,1.3-0.4,1.9-0.5c0.9-0.2,1.9-0.2,2.8-0.2c0.5,0,1.1,0.1,1.6,0.3
							c0.8,0.3,1.5,0.9,1.8,1.8l0.1,0.2c0.4-0.4,0.8-0.7,1.2-1c1-0.6,2.1-1,3.3-1.2c0.9-0.2,1.9-0.1,2.8,0.1
							c1.8,0.6,2.9,1.8,3.2,3.7c0.1,0.9,0.1,1.9-0.2,2.8c-0.4,1.6-0.8,3.1-1.3,4.6c-0.1,0.2-0.1,0.4-0.1,0.6c0,0.2,0.2,0.4,0.4,0.4
							c0,0,0,0,0,0c0.2,0,0.4-0.1,0.6-0.2c0.3-0.1,0.5-0.2,0.8-0.3c-0.1,0.5-0.2,1-0.4,1.5c-0.3,1.4-0.7,2.8-1,4.1
							c0,0.1-0.1,0.2-0.2,0.2c-1.5,0.6-3,0.9-4.6,0.8c-1.1,0-2.2-0.4-3.1-1.1c-0.7-0.6-1.2-1.6-1.3-2.5c-0.1-1,0.1-1.9,0.4-2.8
							c0.3-1.1,0.7-2.3,1-3.4c0.1-0.3,0.1-0.7,0-1c-0.1-0.2-0.2-0.3-0.4-0.3c-0.3,0-0.7,0.2-0.9,0.4c-0.3,0.4-0.6,0.9-0.7,1.4
							c-0.3,1-0.6,2.1-0.8,3.2c-0.5,1.9-0.9,3.7-1.4,5.6c0,0.1-0.1,0.1-0.2,0.1c-2.6,0-5.3,0-7.9,0c-0.1,0-0.1,0-0.1-0.2
							c0.9-3.5,1.8-6.9,2.7-10.4c0.2-0.9,0.5-1.8,0.7-2.6c0.3-1.1,0.2-2.2-0.3-3.2C-46.2-66.9-46.4-67.2-46.6-67.4z"/>
						<path id="Tracé_475" class="st4" d="M-19.9-49.4c-1.7,0-3.3-0.2-5-0.5c-0.8-0.2-1.6-0.4-2.4-0.7c-0.1,0-0.1-0.1-0.1-0.2
							c0.4-1.7,0.8-3.4,1.3-5.1c0-0.2,0.1-0.1,0.2-0.1c1.1,0.5,2.2,0.8,3.4,1c0.6,0.1,1.3,0.1,2,0c0.2,0,0.4-0.2,0.5-0.4
							c0.1-0.3,0-0.5-0.2-0.7c-0.2-0.2-0.5-0.3-0.8-0.4c-0.8-0.3-1.6-0.5-2.4-0.8c-0.8-0.3-1.5-0.8-2.1-1.3
							c-0.8-0.7-1.3-1.8-1.3-2.9c-0.1-1,0.1-2,0.6-2.9c0.6-1.1,1.5-1.9,2.5-2.4c1-0.5,2-0.8,3.1-0.9c1.1-0.2,2.3-0.2,3.4-0.2
							c2.1,0,4.2,0.5,6.1,1.3c0.3,0.1,0.6,0.3,0.8,0.4C-10-66-10-66-10-65.9c-0.6,1.6-1.3,3.1-1.9,4.7c-0.1,0.1-0.1,0.1-0.2,0.1
							c-0.9-0.5-1.9-0.9-2.9-1.2c-0.7-0.2-1.5-0.2-2.2-0.2c-0.1,0-0.2,0-0.3,0c-0.2,0-0.4,0.2-0.4,0.4c0,0.2,0.1,0.5,0.3,0.6
							c0.2,0.1,0.5,0.2,0.7,0.3c0.9,0.3,1.7,0.6,2.6,0.9c0.7,0.3,1.3,0.7,1.9,1.2c0.9,0.8,1.3,2,1.4,3.2c0,0.9-0.1,1.8-0.4,2.6
							c-0.6,1.3-1.6,2.4-2.9,2.9c-0.9,0.4-2,0.7-3,0.8C-18.3-49.4-19.1-49.4-19.9-49.4z"/>
						<path id="Tracé_476" class="st4" d="M-57.5-54.1c0-0.8,0.2-1.7,0.4-2.5c0.4-1.6,0.8-3.2,1.3-4.7c0-0.2,0-0.3,0-0.5
							c0-0.3-0.3-0.5-0.5-0.5c-0.4,0-0.9,0.1-1.3,0.3c-0.1,0.1-0.2,0.1-0.2-0.1c-0.4-1.4-0.8-2.8-1.1-4.2c0-0.1,0-0.2,0.1-0.2
							c1.2-0.6,2.4-1.2,3.7-1.6c0.9-0.2,1.7-0.4,2.6-0.4c0.8-0.1,1.6,0,2.4,0.2c1.7,0.4,2.8,1.8,2.9,3.5c0,0.9-0.1,1.7-0.3,2.6
							c-0.7,2.9-1.5,5.8-2.2,8.7c-0.3,1-0.5,2-0.8,3c0,0.1-0.1,0.2-0.2,0.2c-0.5,0.1-1,0.1-1.5,0.2c-0.5,0-0.9,0-1.4-0.1
							c-0.6-0.1-1.1-0.2-1.7-0.4c-1.1-0.5-1.9-1.5-2-2.7C-57.5-53.6-57.5-53.9-57.5-54.1z"/>
						<path id="Tracé_477" class="st4" d="M-49.9-70.3c-0.9,0-1.7-0.2-2.5-0.5c-1.3-0.7-2.1-2.1-1.9-3.6c0.1-1.5,1.3-2.8,2.8-3
							c1.2-0.3,2.5-0.2,3.7,0.2c1.2,0.4,2.1,1.3,2.3,2.6c0.4,1.9-0.8,3.7-2.7,4.1c0,0,0,0,0,0C-48.7-70.3-49.3-70.3-49.9-70.3z"/>
					</g>
				</g>
			</g>
		</g>
	</g>
	<g id="Groupe_178" transform="translate(22.318 268.529)">
		<path id="Tracé_77" class="st14" d="M267.1,152.9L0,187l171.1,42.4l158-48.2L267.1,152.9z"/>
		<g id="Groupe_173" transform="translate(72.544 23.274)">
			
				<linearGradient id="Tracé_73_1_" gradientUnits="userSpaceOnUse" x1="-313.9184" y1="282.4156" x2="-313.0964" y2="281.6446" gradientTransform="matrix(105.25 0 0 -199.823 33065.1602 56473.9258)">
				<stop  offset="0" style="stop-color:#CBCBCB"/>
				<stop  offset="1" style="stop-color:#FFFFFF"/>
			</linearGradient>
			<path id="Tracé_73" class="st15" d="M0,8.2l104.1,20.2l1.1,179.6L5.7,158.9"/>
			
				<linearGradient id="Tracé_74_1_" gradientUnits="userSpaceOnUse" x1="-314.6231" y1="282.1341" x2="-314.6061" y2="280.5501" gradientTransform="matrix(259.0822 0 0 -31.753 81642.7422 8970.1914)">
				<stop  offset="0" style="stop-color:#C6C6C6"/>
				<stop  offset="1" style="stop-color:#000000"/>
			</linearGradient>
			<path id="Tracé_74" class="st16" d="M143.2,0l115.8,15.8l-155,16L0,8.2L143.2,0z"/>
		</g>
		<g id="Composant_4_6" transform="translate(231.357)">
			<path id="Tracé_161" class="st2" d="M0,47.9V16.3C0,7.3,7.3,0,16.4,0c0,0,0,0,0,0H48c9,0,16.4,7.3,16.4,16.3v31.6
				c0,9-7.3,16.3-16.4,16.3H16.4C7.3,64.2,0,56.9,0,47.9C0,47.9,0,47.9,0,47.9z"/>
		</g>
		<g id="Composant_12_11" transform="translate(236.682 5.452)">
			<path id="Tracé_136" class="st17" d="M15.5,0h22.6c8.5,0,15.4,6.9,15.5,15.4c0,0,0,0,0,0V38c0,8.5-6.9,15.4-15.5,15.4
				c0,0,0,0,0,0H15.5C6.9,53.4,0,46.5,0,38c0,0,0,0,0,0V15.4C0,6.9,6.9,0,15.5,0C15.5,0,15.5,0,15.5,0z"/>
			<text transform="matrix(1 0 0 1 17.299 11.137)" class="st4 st5 st18">Sesam</text>
			<text transform="matrix(1 0 0 1 17.985 16.137)" class="st4 st5 st18">Vitale</text>
			<path id="Tracé_97" class="st4" d="M26.8,21.6c-6.8,0-12.3,5.6-12.3,12.4c0,6.8,5.6,12.3,12.4,12.3c6.8,0,12.3-5.5,12.3-12.3
				C39.2,27.1,33.6,21.6,26.8,21.6C26.8,21.6,26.8,21.6,26.8,21.6z M23.3,35.2c-0.2,0.5-0.5,0.9-0.9,1.3c-0.1,0.1-0.3,0.2-0.5,0.2
				c-0.2,0-0.4-0.1-0.5-0.2c-0.3-0.3-0.3-0.7,0-0.9c0,0,0,0,0,0c1-0.9,1-2.5,0.1-3.4c0,0,0,0,0,0l0,0c-0.2-0.2-0.2-0.4-0.2-0.6
				c0.1-0.2,0.3-0.4,0.5-0.5c0.2-0.1,0.5,0,0.6,0.2c0.4,0.4,0.7,0.8,0.9,1.3C23.7,33.3,23.7,34.3,23.3,35.2L23.3,35.2z M25.3,37.5
				c-0.1,0.2-0.3,0.3-0.5,0.3c-0.1,0-0.3,0-0.4-0.1c-0.3-0.2-0.4-0.6-0.2-0.9c0,0,0,0,0,0c1.2-1.8,1.2-4.1,0-5.9l0,0
				c-0.2-0.3-0.1-0.7,0.3-0.9c0.3-0.2,0.7-0.1,0.9,0.2C26.9,32.3,26.9,35.3,25.3,37.5L25.3,37.5z M28,38.6c-0.1,0.2-0.3,0.3-0.6,0.3
				c-0.1,0-0.2,0-0.4-0.1c-0.3-0.2-0.4-0.6-0.3-0.9c0,0,0,0,0,0c1.5-2.5,1.5-5.6,0.1-8.2l0,0c-0.1-0.2-0.1-0.5,0-0.7
				c0.1-0.2,0.4-0.3,0.6-0.3c0.2,0,0.5,0.1,0.6,0.3C29.8,32,29.7,35.7,28,38.6z M30.7,39.6c-0.1,0.2-0.2,0.3-0.4,0.3
				c0,0-0.1,0-0.1,0c-0.1,0-0.2,0-0.3-0.1c-0.1-0.1-0.3-0.2-0.3-0.4c-0.1-0.2,0-0.4,0-0.5c0.9-1.6,1.3-3.4,1.3-5.2
				c0-1.8-0.4-3.6-1.3-5.2c-0.1-0.2-0.1-0.5,0-0.7c0.1-0.2,0.4-0.3,0.6-0.3c0.2,0,0.5,0.1,0.6,0.4c0.9,1.8,1.4,3.8,1.4,5.8
				C32.2,35.9,31.7,37.8,30.7,39.6L30.7,39.6z"/>
		</g>
		
			<linearGradient id="Tracé_76_1_" gradientUnits="userSpaceOnUse" x1="-242.1266" y1="305.6861" x2="-241.1246" y2="305.0091" gradientTransform="matrix(155.016 0 0 -192.245 37711.5547 58837.5703)">
			<stop  offset="0" style="stop-color:#FFFFFF"/>
			<stop  offset="1" style="stop-color:#FFFFFF"/>
		</linearGradient>
		<path id="Tracé_76" class="st19" d="M176.6,54.9l1.2,176.4l148.2-38.5L331.6,39L176.6,54.9z"/>
	</g>
	<path id="Tracé_149" class="st2" d="M32.1,274.9v-20.8c0-7.4,6-13.4,13.4-13.4c0,0,0,0,0,0h20.8c7.4,0,13.4,6,13.4,13.4
		c0,0,0,0,0,0v20.8c0,7.4-6,13.4-13.4,13.4c0,0,0,0,0,0H45.5C38.1,288.2,32.1,282.3,32.1,274.9C32.1,274.9,32.1,274.9,32.1,274.9z"
		/>
	<path id="Tracé_158" class="st2" d="M276.7,178.8V171c0-4.1,3.3-7.4,7.4-7.4c0,0,0,0,0,0h7.8c4.1,0,7.4,3.3,7.4,7.4c0,0,0,0,0,0
		v7.8c0,4.1-3.3,7.4-7.4,7.4c0,0,0,0,0,0h-7.8C280,186.3,276.7,182.9,276.7,178.8C276.7,178.8,276.7,178.8,276.7,178.8z"/>
	<path id="Tracé_156" class="st2" d="M147.3,144.7v-10.8c0-4.9,4-8.9,8.9-8.9H167c4.9,0,8.9,4,8.9,8.9v10.8c0,4.9-4,8.9-8.9,8.9
		h-10.8C151.3,153.6,147.3,149.6,147.3,144.7z"/>
	<path id="Tracé_159" class="st2" d="M311.2,137.9v-12.2c0-6.6,5.3-11.9,11.9-11.9h12.3c6.6,0,11.9,5.3,11.9,11.9v12.2
		c0,6.6-5.3,11.9-11.9,11.9h-12.3C316.6,149.7,311.2,144.4,311.2,137.9z"/>
	<path id="Tracé_157" class="st2" d="M110.7,258.9v-10.1c0-4.9,4-8.9,8.9-8.9h10.1c4.9,0,8.9,4,8.9,8.9v10.1c0,4.9-4,8.9-8.9,8.9
		h-10.1C114.7,267.8,110.7,263.8,110.7,258.9z"/>
	<g id="Composant_13_8" transform="translate(36 244.98)">
		
			<linearGradient id="Tracé_143_1_" gradientUnits="userSpaceOnUse" x1="-251.8551" y1="328.3696" x2="-252.5092" y2="329.3696" gradientTransform="matrix(40.168 0 0 -40.065 10149.0029 13195.0811)">
			<stop  offset="0" style="stop-color:#FFA800"/>
			<stop  offset="1" style="stop-color:#FFC24D"/>
		</linearGradient>
		<path id="Tracé_143" class="st20" d="M11.6,0h17C35,0,40.2,5.2,40.2,11.6c0,0,0,0,0,0v16.9c0,6.4-5.2,11.6-11.6,11.6c0,0,0,0,0,0
			h-17C5.2,40.1,0,34.9,0,28.5c0,0,0,0,0,0V11.6C0,5.2,5.2,0,11.6,0C11.6,0,11.6,0,11.6,0z"/>
		<path id="Tracé_96" class="st4" d="M28.6,29.5h-13c-1.9,0-3.8-0.8-3.8-3.1v-13c0-2.3,0-2.3,2.3-2.3h11.5v15.3H13.2
			c-0.1,0.8,0.5,1.5,1.3,1.5c0.1,0,0.2,0,0.3,0H27V12.7l1.5,1.5L28.6,29.5L28.6,29.5z M22.7,17.2h-2.6v-2.5h-2.3v2.5h-2.6v2.3h2.5
			V22h2.3v-2.5h2.5L22.7,17.2L22.7,17.2z"/>
	</g>
</g>
</svg>
