<?xml version="1.0" encoding="utf-8"?>
<!-- Generator: Adobe Illustrator 24.0.2, SVG Export Plug-In . SVG Version: 6.00 Build 0)  -->
<svg version="1.1" id="Composant_16_14" xmlns="http://www.w3.org/2000/svg" xmlns:xlink="http://www.w3.org/1999/xlink" x="0px"
	 y="0px" viewBox="0 0 354.9 118.9" style="enable-background:new 0 0 354.9 118.9;" xml:space="preserve">
<style type="text/css">
	.st0{fill:url(#SVGID_1_);}
	.st1{fill:#FFFFFF;}
	.st2{fill:url(#SVGID_2_);}
	.st3{fill:url(#SVGID_3_);}
	.st4{fill:#D34A3C;}
	.st5{fill:none;stroke:#FFFFFF;stroke-width:6;}
	.st6{enable-background:new    ;}
	.st7{fill:#2F78CC;}
</style>
<g id="Rectangle_69" transform="translate(65.996 38.892)">
	
		<linearGradient id="SVGID_1_" gradientUnits="userSpaceOnUse" x1="-290.7304" y1="209.5569" x2="-291.3756" y2="208.7405" gradientTransform="matrix(66.506 0 0 66.507 19390.2305 -13876.4424)">
		<stop  offset="0" style="stop-color:#7613E0"/>
		<stop  offset="1" style="stop-color:#9F57ED"/>
	</linearGradient>
	<path class="st0" d="M23.3,3.8h19.9c10.7,0,19.4,8.7,19.4,19.4v19.9c0,10.7-8.7,19.4-19.4,19.4H23.3c-10.7,0-19.4-8.7-19.4-19.4
		V23.2C3.9,12.5,12.6,3.8,23.3,3.8z"/>
	<g>
		<path class="st1" d="M44.5,66.5H22c-12.1,0-22-9.9-22-22V22C0,9.9,9.9,0,22,0h22.5c12.1,0,22,9.9,22,22v22.5
			C66.5,56.6,56.6,66.5,44.5,66.5z M22,6C13.2,6,6,13.2,6,22v22.5c0,8.8,7.2,16,16,16h22.5c8.8,0,16-7.2,16-16V22
			c0-8.8-7.2-16-16-16H22z"/>
	</g>
</g>
<g id="Rectangle_70" transform="translate(110.109) rotate(90)">
	
		<linearGradient id="SVGID_2_" gradientUnits="userSpaceOnUse" x1="223.6676" y1="186.8457" x2="224.3389" y2="187.6192" gradientTransform="matrix(66.507 0 0 66.506 -14866.7988 -12414.8828)">
		<stop  offset="0" style="stop-color:#67ED9A"/>
		<stop  offset="1" style="stop-color:#4AC87A"/>
	</linearGradient>
	<path class="st2" d="M23,1.5h21.5c11.6,0,21,9.4,21,21V44c0,11.6-9.4,21-21,21H23C11.4,65,2,55.6,2,44V22.5C2,10.9,11.4,1.5,23,1.5
		z"/>
	<g>
		<path class="st1" d="M66.5,22v22.5c0,12.1-9.9,22-22,22H22c-12.1,0-22-9.9-22-22V22C0,9.9,9.9,0,22,0h22.5
			C56.6,0,66.5,9.9,66.5,22z M6,44.5c0,8.8,7.2,16,16,16h22.5c8.8,0,16-7.2,16-16V22c0-8.8-7.2-16-16-16H22C13.2,6,6,13.2,6,22V44.5
			z"/>
	</g>
</g>
<g id="Rectangle_71" transform="translate(88.714 52.366) rotate(90)">
	
		<linearGradient id="SVGID_3_" gradientUnits="userSpaceOnUse" x1="193.4701" y1="218.4084" x2="192.8604" y2="217.4761" gradientTransform="matrix(66.507 0 0 66.506 -12807.0107 -14474.6396)">
		<stop  offset="0" style="stop-color:#FFA800"/>
		<stop  offset="1" style="stop-color:#FFC24D"/>
	</linearGradient>
	<path class="st3" d="M22.8,2.3h21c11.3,0,20.5,9.2,20.5,20.5v21c0,11.3-9.2,20.5-20.5,20.5h-21c-11.3,0-20.5-9.2-20.5-20.5v-21
		C2.3,11.4,11.4,2.3,22.8,2.3z"/>
	<g>
		<path class="st1" d="M66.5,22v22.5c0,12.1-9.9,22-22,22H22c-12.1,0-22-9.9-22-22V22C0,9.9,9.9,0,22,0h22.5
			C56.6,0,66.5,9.9,66.5,22z M6,44.5c0,8.8,7.2,16,16,16h22.5c8.8,0,16-7.2,16-16V22c0-8.8-7.2-16-16-16H22C13.2,6,6,13.2,6,22V44.5
			z"/>
	</g>
</g>
<g id="Rectangle_72" transform="translate(66.506 13.481) rotate(90)">
	<g>
		<path class="st4" d="M23,1.5h21.5c11.6,0,21,9.4,21,21V44c0,11.6-9.4,21-21,21H23C11.4,65,2,55.6,2,44V22.5
			C2,10.9,11.4,1.5,23,1.5z"/>
	</g>
	<path class="st5" d="M22,3h22.5c10.5,0,19,8.5,19,19v22.5c0,10.5-8.5,19-19,19H22c-10.5,0-19-8.5-19-19V22C3,11.5,11.5,3,22,3z"/>
</g>
<g class="st6">
	<path class="st7" d="M192.2,38.1c0,3-0.5,5.8-1.6,8.3c-1,2.5-2.5,4.7-4.4,6.6c-1.9,1.9-4.1,3.3-6.8,4.3c-2.7,1-5.6,1.6-8.8,1.6
		h-16.1V17.4h16.1c3.2,0,6.2,0.5,8.8,1.6s4.9,2.5,6.8,4.3s3.3,4,4.4,6.6C191.7,32.4,192.2,35.1,192.2,38.1z M182.4,38.1
		c0-2.1-0.3-3.9-0.8-5.6s-1.3-3.1-2.3-4.2c-1-1.1-2.2-2-3.7-2.7c-1.4-0.6-3.1-0.9-4.9-0.9h-6.4v26.7h6.4c1.8,0,3.5-0.3,4.9-0.9
		c1.4-0.6,2.7-1.5,3.7-2.7c1-1.1,1.8-2.6,2.3-4.2S182.4,40.2,182.4,38.1z"/>
	<path class="st7" d="M203.8,45.7c0.3,2.5,1,4.3,2.3,5.4c1.2,1.1,2.8,1.7,4.7,1.7c1,0,1.9-0.1,2.7-0.4s1.4-0.5,2-0.8
		c0.6-0.3,1.1-0.6,1.6-0.8c0.5-0.2,1-0.4,1.5-0.4c0.7,0,1.2,0.3,1.6,0.8l2.6,3.2c-0.9,1-1.9,1.9-3,2.6s-2.1,1.2-3.2,1.5
		s-2.2,0.6-3.3,0.8s-2.2,0.2-3.2,0.2c-2.1,0-4-0.3-5.8-1c-1.8-0.7-3.4-1.7-4.8-3s-2.4-3-3.2-5c-0.8-2-1.2-4.3-1.2-6.9
		c0-2,0.3-3.8,1-5.6c0.7-1.8,1.6-3.3,2.9-4.6c1.3-1.3,2.8-2.4,4.6-3.2c1.8-0.8,3.8-1.2,6.1-1.2c2,0,3.7,0.3,5.4,0.9
		c1.6,0.6,3,1.5,4.2,2.7c1.2,1.2,2.1,2.6,2.7,4.3s1,3.6,1,5.7c0,0.7,0,1.2-0.1,1.6c-0.1,0.4-0.2,0.8-0.3,1s-0.4,0.4-0.6,0.5
		s-0.6,0.1-1,0.1H203.8z M215,40.6c0-0.7-0.1-1.4-0.3-2.1c-0.2-0.7-0.5-1.3-0.9-1.8c-0.4-0.5-0.9-0.9-1.6-1.3s-1.5-0.5-2.4-0.5
		c-1.7,0-3,0.5-3.9,1.4c-1,1-1.6,2.3-1.9,4.1H215z"/>
	<path class="st7" d="M254.3,29.3l-11.5,29.6h-8l-11.5-29.6h7.4c0.6,0,1.2,0.1,1.6,0.4c0.4,0.3,0.7,0.7,0.9,1.1l4.1,13.3
		c0.4,1.1,0.7,2.1,1,3.2s0.5,2.1,0.7,3.1c0.4-2.1,1-4.1,1.7-6.2l4.3-13.3c0.2-0.4,0.4-0.8,0.9-1.1c0.4-0.3,0.9-0.4,1.5-0.4H254.3z"
		/>
	<path class="st7" d="M272.9,17.4c2.9,0,5.3,0.3,7.3,0.8c2,0.5,3.7,1.3,4.9,2.3c1.3,1,2.2,2.1,2.8,3.5c0.6,1.4,0.9,2.9,0.9,4.6
		c0,0.9-0.1,1.8-0.4,2.7c-0.3,0.9-0.7,1.7-1.3,2.4c-0.6,0.8-1.3,1.4-2.2,2.1c-0.9,0.6-2,1.2-3.2,1.6c2.7,0.7,4.8,1.7,6.1,3.2
		c1.3,1.5,2,3.4,2,5.8c0,1.8-0.3,3.4-1,4.9c-0.7,1.5-1.7,2.8-3,4c-1.3,1.1-3,2-4.9,2.7c-1.9,0.6-4.2,1-6.6,1h-16.6V17.4H272.9z
		 M267.3,24.6v10.3h5c1.1,0,2-0.1,2.9-0.2c0.9-0.2,1.6-0.4,2.2-0.8c0.6-0.4,1.1-0.9,1.4-1.6s0.5-1.5,0.5-2.5c0-1-0.1-1.8-0.4-2.5
		c-0.2-0.7-0.6-1.2-1.1-1.6c-0.5-0.4-1.2-0.7-2-0.9c-0.8-0.2-1.7-0.3-2.8-0.3H267.3z M274.1,51.6c1.3,0,2.3-0.2,3.1-0.5
		s1.4-0.7,1.9-1.3s0.8-1.1,0.9-1.7c0.2-0.6,0.3-1.3,0.3-2c0-0.8-0.1-1.4-0.3-2.1c-0.2-0.6-0.5-1.1-1-1.5s-1.1-0.7-1.9-1
		c-0.8-0.2-1.8-0.3-3-0.3h-6.7v10.3H274.1z"/>
	<path class="st7" d="M308,28.9c2.2,0,4.3,0.4,6.1,1.1c1.8,0.7,3.4,1.7,4.7,3c1.3,1.3,2.3,2.9,3.1,4.8c0.7,1.9,1.1,4,1.1,6.3
		c0,2.4-0.4,4.5-1.1,6.4c-0.7,1.9-1.8,3.5-3.1,4.8c-1.3,1.3-2.9,2.3-4.7,3c-1.8,0.7-3.9,1.1-6.1,1.1c-2.3,0-4.3-0.4-6.2-1.1
		c-1.9-0.7-3.4-1.7-4.8-3c-1.3-1.3-2.4-2.9-3.1-4.8c-0.7-1.9-1.1-4-1.1-6.4c0-2.3,0.4-4.4,1.1-6.3c0.7-1.9,1.8-3.5,3.1-4.8
		c1.3-1.3,2.9-2.3,4.8-3S305.7,28.9,308,28.9z M308,52.8c2,0,3.5-0.7,4.5-2.2c1-1.4,1.4-3.6,1.4-6.5s-0.5-5.1-1.4-6.5
		c-1-1.4-2.5-2.1-4.5-2.1c-2.1,0-3.6,0.7-4.6,2.1c-1,1.4-1.5,3.6-1.5,6.5s0.5,5.1,1.5,6.5C304.4,52.1,305.9,52.8,308,52.8z"/>
	<path class="st7" d="M354.4,58.9h-8.5c-0.6,0-1.1-0.2-1.5-0.5c-0.4-0.3-0.7-0.7-0.9-1.1l-5.3-9.1c-0.1,0.3-0.2,0.6-0.3,0.9
		c-0.1,0.3-0.3,0.6-0.4,0.8l-4.3,7.4c-0.3,0.4-0.6,0.7-0.9,1.1c-0.4,0.3-0.8,0.5-1.4,0.5h-7.9l9.9-15.3l-9.5-14.3h8.5
		c0.6,0,1.1,0.1,1.4,0.2c0.3,0.2,0.6,0.4,0.8,0.8l5.3,8.7c0.1-0.3,0.3-0.7,0.4-1c0.2-0.3,0.4-0.7,0.6-1l3.8-6.6
		c0.3-0.4,0.5-0.7,0.8-0.9c0.3-0.2,0.7-0.3,1.1-0.3h8.1l-9.5,13.9L354.4,58.9z"/>
</g>
<g class="st6">
	<path class="st7" d="M155.6,105.4v-2.3h15.9v2.3H155.6z"/>
	<path class="st7" d="M175,102.2v-2.9c1.1,0.7,2.3,1.2,3.5,1.5s2.3,0.4,3.1,0.4c1.4,0,2.4-0.2,3-0.7s0.9-1,0.9-1.7
		c0-0.4-0.1-0.8-0.4-1.1s-1-0.7-2.1-1.2l-0.9-0.4l-1.9-0.7c-2-0.8-3.3-1.5-3.8-2.2c-0.5-0.7-0.8-1.5-0.8-2.4c0-1.3,0.5-2.5,1.6-3.3
		c1-0.9,2.7-1.3,5.1-1.3c1.8,0,3.4,0.3,5,0.8v2.5c-1.8-0.6-3.5-1-5.1-1c-1.2,0-2.1,0.2-2.7,0.6s-1,0.9-1,1.5c0,0.6,0.3,1.1,0.8,1.4
		c0.6,0.4,1.5,0.8,2.7,1.2l1.8,0.7c1.7,0.6,2.9,1.3,3.6,2c0.7,0.7,1,1.6,1,2.7c0,1.4-0.5,2.6-1.6,3.5c-1.1,0.9-2.8,1.4-5.2,1.4
		C179.4,103.5,177.2,103.1,175,102.2z"/>
	<path class="st7" d="M203.6,99.4c-0.8,1.4-1.8,2.4-3,3.1c-1.2,0.7-2.2,1-3.2,1c-1.4,0-2.6-0.6-3.7-1.8c-1.1-1.2-1.6-3-1.6-5.4
		c0-1.9,0.4-3.6,1.1-5.1c0.7-1.5,1.7-2.7,2.9-3.5c1.2-0.9,2.7-1.3,4.5-1.3c0.5,0,1.3,0.1,2.3,0.2c0.2,0,0.4,0,0.7,0.1h2.7v11.6
		c0,2,0.2,3.6,0.6,4.8h-2.8C203.9,102.2,203.7,101,203.6,99.4z M203.6,96.2v-7c-1-0.3-1.9-0.4-2.7-0.4c-1.7,0-3.1,0.7-4.2,2
		c-1.1,1.3-1.7,3.1-1.7,5.3c0,1.6,0.3,2.8,0.9,3.7s1.3,1.2,2.1,1.2c0.9,0,1.8-0.4,2.8-1.3C201.9,98.8,202.8,97.6,203.6,96.2z"/>
	<path class="st7" d="M210.8,103.1V86.7h2.7v3.6c0.8-1.3,1.7-2.2,2.8-3s2.2-1.1,3.3-1.1c1,0,1.8,0.3,2.6,0.8c0.8,0.5,1.3,1.2,1.7,2
		s0.5,2.5,0.5,4.9v9.1h-2.7v-9.5c0-1.6-0.1-2.6-0.2-3.1s-0.4-0.9-0.8-1.2s-0.8-0.5-1.3-0.5c-1,0-2,0.5-3.1,1.4s-2,2-2.7,3.4v9.5
		H210.8z"/>
	<path class="st7" d="M242.5,102.4c-1.3,0.5-2.2,0.9-2.8,1c-0.6,0.1-1.1,0.2-1.7,0.2c-1.1,0-2.2-0.2-3.1-0.7s-1.7-1.1-2.1-1.9
		s-0.7-2.2-0.7-4v-6.6H228v-2.3h4.1v-6.6h2.7v6.6h7.3v2.3h-7.3v6.5c0,1.3,0.2,2.2,0.5,2.8c0.3,0.5,0.7,0.9,1.3,1.2s1.1,0.4,1.9,0.4
		c1.3,0,2.7-0.4,4.2-1.2V102.4z"/>
	<path class="st7" d="M260.4,102c-2.2,1-4.2,1.5-6.2,1.5c-1.5,0-2.8-0.4-4-1.1s-2.1-1.8-2.8-3.1s-1-2.8-1-4.4c0-1.5,0.3-2.9,1-4.3
		s1.6-2.4,2.8-3.2c1.2-0.8,2.5-1.1,4-1.1c1.9,0,3.5,0.7,4.7,2.1c1.2,1.4,1.8,3.5,1.8,6.4v0.6h-11.3c0,1.1,0.2,2.2,0.7,3.1
		s1.1,1.6,1.9,2.1c0.8,0.5,1.7,0.7,2.6,0.7c1.8,0,3.7-0.6,5.8-1.8V102z M249.6,93.3h8.2v-0.4c0-1.3-0.3-2.4-1-3.2
		c-0.7-0.8-1.5-1.2-2.6-1.2c-1.1,0-2.1,0.4-2.9,1.2C250.5,90.5,249.9,91.7,249.6,93.3z M251.1,84.2l4.3-4.8h3.2l-5,4.8H251.1z"/>
</g>
</svg>
