<?xml version="1.0" encoding="utf-8"?>
<!-- Generator: Adobe Illustrator 24.0.2, SVG Export Plug-In . SVG Version: 6.00 Build 0)  -->
<svg version="1.1" id="Composant_16_14" xmlns="http://www.w3.org/2000/svg" xmlns:xlink="http://www.w3.org/1999/xlink" x="0px"
	 y="0px" viewBox="0 0 132.5 118.9" style="enable-background:new 0 0 132.5 118.9;" xml:space="preserve">
<style type="text/css">
	.st0{fill:url(#SVGID_1_);}
	.st1{fill:#FFFFFF;}
	.st2{fill:url(#SVGID_2_);}
	.st3{fill:url(#SVGID_3_);}
	.st4{fill:#D34A3C;}
	.st5{fill:none;stroke:#FFFFFF;stroke-width:6;}
</style>
<g id="Rectangle_69" transform="translate(65.996 38.892)">
	
		<linearGradient id="SVGID_1_" gradientUnits="userSpaceOnUse" x1="-44.4861" y1="64.4079" x2="-45.1313" y2="65.2243" gradientTransform="matrix(66.506 0 0 -66.507 3013.5039 4344.1382)">
		<stop  offset="0" style="stop-color:#7613E0"/>
		<stop  offset="1" style="stop-color:#9F57ED"/>
	</linearGradient>
	<path class="st0" d="M23.3,3.8h19.9c10.7,0,19.4,8.7,19.4,19.4v19.9c0,10.7-8.7,19.4-19.4,19.4H23.3c-10.7,0-19.4-8.7-19.4-19.4
		V23.2C3.9,12.5,12.6,3.8,23.3,3.8z"/>
	<g>
		<path class="st1" d="M44.5,66.5H22c-12.1,0-22-9.9-22-22V22C0,9.9,9.9,0,22,0h22.5c12.1,0,22,9.9,22,22v22.5
			C66.5,56.6,56.6,66.5,44.5,66.5z M22,6C13.2,6,6,13.2,6,22v22.5c0,8.8,7.2,16,16,16h22.5c8.8,0,16-7.2,16-16V22
			c0-8.8-7.2-16-16-16H22z"/>
	</g>
</g>
<g id="Rectangle_70" transform="translate(110.109) rotate(90)">
	
		<linearGradient id="SVGID_2_" gradientUnits="userSpaceOnUse" x1="103.5653" y1="89.1427" x2="104.2366" y2="89.9162" gradientTransform="matrix(0 -66.506 -66.507 0 5940.3726 6895.6235)">
		<stop  offset="0" style="stop-color:#67ED9A"/>
		<stop  offset="1" style="stop-color:#4AC87A"/>
	</linearGradient>
	<path class="st2" d="M23,1.5h21.5c11.6,0,21,9.4,21,21V44c0,11.6-9.4,21-21,21H23C11.4,65,2,55.6,2,44V22.5C2,10.9,11.4,1.5,23,1.5
		z"/>
	<g>
		<path class="st1" d="M66.5,22v22.5c0,12.1-9.9,22-22,22H22c-12.1,0-22-9.9-22-22V22C0,9.9,9.9,0,22,0h22.5
			C56.6,0,66.5,9.9,66.5,22z M6,44.5c0,8.8,7.2,16,16,16h22.5c8.8,0,16-7.2,16-16V22c0-8.8-7.2-16-16-16H22C13.2,6,6,13.2,6,22V44.5
			z"/>
	</g>
</g>
<g id="Rectangle_71" transform="translate(88.714 52.366) rotate(90)">
	
		<linearGradient id="SVGID_3_" gradientUnits="userSpaceOnUse" x1="50.3774" y1="67.1362" x2="49.7677" y2="66.2039" gradientTransform="matrix(0 -66.506 -66.507 0 4517.4551 3412.9705)">
		<stop  offset="0" style="stop-color:#FFA800"/>
		<stop  offset="1" style="stop-color:#FFC24D"/>
	</linearGradient>
	<path class="st3" d="M22.8,2.3h21c11.3,0,20.5,9.2,20.5,20.5v21c0,11.3-9.2,20.5-20.5,20.5h-21c-11.3,0-20.5-9.2-20.5-20.5v-21
		C2.3,11.4,11.4,2.3,22.8,2.3z"/>
	<g>
		<path class="st1" d="M66.5,22v22.5c0,12.1-9.9,22-22,22H22c-12.1,0-22-9.9-22-22V22C0,9.9,9.9,0,22,0h22.5
			C56.6,0,66.5,9.9,66.5,22z M6,44.5c0,8.8,7.2,16,16,16h22.5c8.8,0,16-7.2,16-16V22c0-8.8-7.2-16-16-16H22C13.2,6,6,13.2,6,22V44.5
			z"/>
	</g>
</g>
<g id="Rectangle_72" transform="translate(66.506 13.481) rotate(90)">
	<g>
		<path class="st4" d="M23,1.5h21.5c11.6,0,21,9.4,21,21V44c0,11.6-9.4,21-21,21H23C11.4,65,2,55.6,2,44V22.5
			C2,10.9,11.4,1.5,23,1.5z"/>
	</g>
	<path class="st5" d="M22,3h22.5c10.5,0,19,8.5,19,19v22.5c0,10.5-8.5,19-19,19H22c-10.5,0-19-8.5-19-19V22C3,11.5,11.5,3,22,3z"/>
</g>
</svg>
