<svg xmlns="http://www.w3.org/2000/svg" width="74" height="74" viewBox="0 0 74 74">
  <g id="Groupe_76" data-name="Groupe 76" transform="translate(-68 -703)" opacity="0.412">
    <path id="Rectangle_23" data-name="Rectangle 23" d="M37,0H74a0,0,0,0,1,0,0V37A37,37,0,0,1,37,74h0A37,37,0,0,1,0,37v0A37,37,0,0,1,37,0Z" transform="translate(142 777) rotate(180)" fill="#FFA800" opacity="0.15"/>
    <path id="Rectangle_24" data-name="Rectangle 24" d="M27.5,0H55a0,0,0,0,1,0,0V27.5A27.5,27.5,0,0,1,27.5,55h0A27.5,27.5,0,0,1,0,27.5v0A27.5,27.5,0,0,1,27.5,0Z" transform="translate(132 768) rotate(180)" fill="#FFA800" opacity="0.15"/>
  </g>
</svg>
